<?xml version="1.0" standalone="no"?>
<!DOCTYPE svg PUBLIC "-//W3C//DTD SVG 20010904//EN"
 "http://www.w3.org/TR/2001/REC-SVG-20010904/DTD/svg10.dtd">
<svg version="1.0" xmlns="http://www.w3.org/2000/svg"
 width="1024.000000pt" height="1024.000000pt" viewBox="0 0 1024.000000 1024.000000"
 preserveAspectRatio="xMidYMid meet">

<g transform="translate(0.000000,1024.000000) scale(0.100000,-0.100000)"
fill="#000000" stroke="none">
<path d="M50 10230 c0 -5 18 -10 40 -10 40 0 54 -15 25 -26 -8 -4 -12 -11 -9
-16 4 -6 0 -14 -7 -19 -11 -7 -8 -14 15 -34 28 -24 28 -25 7 -25 -12 0 -19 -4
-16 -10 3 -5 17 -10 31 -10 23 0 24 -3 23 -50 l-2 -50 -51 0 c-28 0 -58 5 -66
10 -9 6 -11 10 -3 10 17 0 5 28 -18 41 -19 9 -19 -98 -19 -5016 l0 -5025 5120
0 5120 0 0 5120 0 5120 -560 0 -560 0 0 -40 c0 -29 -4 -40 -15 -40 -11 0 -15
11 -15 40 l0 40 -1225 0 -1225 0 0 -40 0 -40 -40 0 -40 0 0 40 0 40 -3120 0
c-2767 0 -3120 -2 -3120 -15 0 -8 -4 -15 -10 -15 -5 0 -10 7 -10 15 0 13 -21
15 -125 15 -77 0 -125 -4 -125 -10z m5280 -30 c0 -5 -4 -10 -10 -10 -5 0 -10
5 -10 10 0 6 5 10 10 10 6 0 10 -4 10 -10z m2951 -40 c39 0 39 0 39 -40 l0
-40 -40 0 -40 0 0 40 c0 30 -4 40 -16 40 -14 0 -15 2 -3 17 13 15 14 15 17 0
3 -12 14 -17 43 -17z m-7991 10 c0 -5 -12 -10 -26 -10 -14 0 -23 4 -19 10 3 6
15 10 26 10 10 0 19 -4 19 -10z m1470 -130 l0 -40 -40 0 -40 0 0 40 0 40 40 0
40 0 0 -40z m1680 -40 l0 -40 -40 0 c-33 0 -40 3 -40 20 0 12 7 20 18 20 10 0
25 9 35 20 24 28 27 26 27 -20z m6754 -306 c3 -9 -1 -14 -14 -14 -13 0 -20 7
-20 20 0 22 25 18 34 -6z m-6754 -979 c0 -34 -1 -35 -40 -35 -33 0 -40 3 -40
20 0 14 7 20 24 20 13 0 29 7 36 15 18 21 20 19 20 -20z m3109 -15 c9 -5 6 -9
-13 -14 -15 -3 -36 -1 -48 5 -17 9 -23 9 -26 0 -2 -6 -11 -11 -20 -11 -13 0
-12 3 4 19 19 18 69 19 103 1z m-2996 3 c-7 -2 -19 -2 -25 0 -7 3 -2 5 12 5
14 0 19 -2 13 -5z m52 -3 c-3 -5 -14 -10 -23 -9 -14 0 -13 2 3 9 27 11 27 11
20 0z m215 0 c0 -5 8 -10 18 -10 9 0 23 -4 30 -9 7 -4 -13 -6 -45 -3 -32 2
-62 9 -68 14 -6 6 -4 7 6 3 10 -4 20 -2 24 4 8 14 35 14 35 1z m2467 4 c-3 -3
-12 -4 -19 -1 -8 3 -5 6 6 6 11 1 17 -2 13 -5z m-2687 -44 c-19 -4 -52 -15
-73 -24 -21 -9 -42 -14 -47 -11 -5 3 -11 1 -15 -5 -9 -14 -22 -12 -22 3 0 9
10 13 25 11 13 -1 42 6 65 16 23 10 56 18 72 18 29 0 29 0 -5 -8z m3087 -6
c-3 -3 -12 -4 -19 -1 -8 3 -5 6 6 6 11 1 17 -2 13 -5z m-2647 -14 c13 -9 13
-10 0 -9 -8 0 -24 4 -35 9 l-20 9 20 0 c11 0 27 -4 35 -9z m-65 -31 c160 -49
267 -124 491 -343 82 -81 156 -149 166 -151 9 -3 19 -12 21 -20 5 -11 -1 -10
-26 3 -18 8 -40 19 -49 24 -10 4 -25 5 -35 2 -12 -4 -14 -3 -6 3 13 9 -2 23
-193 183 -56 47 -120 101 -143 120 -32 27 -124 79 -101 57 3 -2 28 -24 55 -47
57 -49 163 -165 205 -225 64 -93 70 -109 70 -211 0 -89 1 -95 19 -89 12 3 21
0 25 -10 4 -11 13 -14 29 -10 17 5 26 2 30 -9 4 -9 13 -16 22 -16 18 0 20 -16
3 -23 -7 -3 -4 -6 7 -6 12 -1 26 4 33 11 6 6 15 9 18 5 4 -3 -5 -12 -20 -18
l-26 -12 26 -17 c18 -12 40 -16 72 -14 l47 4 -45 -14 c-29 -10 -48 -12 -54 -6
-6 6 -21 10 -35 10 -26 0 -26 0 4 -16 26 -14 41 -14 115 -4 47 7 96 16 110 20
25 8 25 8 -5 10 -30 2 -30 2 -5 10 14 4 53 8 88 9 34 1 71 6 81 13 15 9 25 9
43 1 l23 -12 -25 -1 c-19 -1 -14 -5 25 -21 28 -11 58 -18 68 -15 10 2 17 -2
17 -9 0 -21 22 -30 34 -14 27 36 215 66 242 39 6 -6 48 -15 95 -21 68 -9 95
-8 139 4 30 8 54 19 52 26 -1 6 8 11 20 11 13 0 29 4 37 9 8 6 -3 7 -31 4 -32
-4 -47 -1 -57 11 -12 14 -10 16 17 16 16 0 45 7 65 15 31 13 36 13 47 0 7 -8
17 -15 22 -15 6 0 5 7 -2 15 -10 12 -10 15 4 15 19 0 21 16 4 24 -7 3 -3 3 9
1 20 -5 21 -4 11 37 -25 111 19 202 202 421 30 36 61 66 67 66 7 1 18 10 25
21 7 11 18 20 25 20 7 0 13 5 13 10 0 6 -3 10 -8 10 -12 0 -148 -106 -253
-197 -98 -86 -204 -176 -224 -191 -5 -4 -23 -8 -40 -10 -28 -2 -29 -2 -12 12
10 8 71 65 135 128 316 306 448 383 682 395 178 9 330 -40 500 -163 81 -58
230 -205 230 -226 0 -7 -21 10 -47 37 -26 28 -51 49 -56 47 -5 -1 -6 2 -3 7 3
5 -1 15 -10 22 -8 7 -14 8 -12 2 4 -16 -9 -15 -35 1 -12 8 -58 27 -102 42 -70
24 -95 28 -195 28 -101 0 -125 -3 -195 -28 -44 -16 -104 -44 -133 -63 -98 -62
-220 -191 -205 -216 3 -5 1 -7 -5 -3 -13 8 -52 -54 -52 -83 0 -12 -4 -19 -10
-16 -10 6 -14 -7 -11 -33 1 -7 -5 -25 -13 -40 -64 -116 -37 -456 43 -546 41
-45 125 -125 129 -122 3 4 55 -46 61 -60 17 -34 39 -45 74 -36 25 7 39 6 48
-2 21 -19 128 -63 200 -83 45 -13 100 -18 184 -18 128 0 189 14 272 61 30 17
44 21 49 13 4 -7 3 -9 -4 -5 -6 3 -13 -2 -17 -13 -7 -23 -110 -74 -195 -96
-118 -31 -285 -7 -430 61 -58 27 -71 37 -60 45 12 8 10 9 -7 4 -12 -3 -24 -1
-28 5 -3 5 -10 10 -16 10 -19 0 -7 -16 31 -39 24 -15 35 -28 29 -32 -7 -4 -2
-10 12 -14 13 -4 31 -13 39 -20 8 -7 32 -16 53 -20 21 -4 44 -13 51 -21 8 -7
22 -12 32 -12 11 1 44 -5 74 -12 59 -15 220 -19 285 -7 l40 7 -35 -17 c-19 -9
-48 -22 -65 -28 -16 -7 -43 -18 -59 -24 -16 -7 -64 -15 -107 -18 -44 -3 -79
-9 -79 -13 0 -28 166 -59 315 -60 59 0 62 -1 105 -46 25 -25 87 -70 137 -100
51 -30 105 -71 119 -89 14 -19 30 -32 35 -29 5 3 9 -2 9 -10 0 -9 -8 -17 -17
-17 -17 -1 -17 -2 0 -6 46 -12 -30 -62 -140 -93 -222 -61 -494 -46 -911 51
-248 57 -870 172 -1150 212 -85 12 -135 7 -497 -51 -230 -38 -456 -81 -835
-162 -331 -71 -353 -74 -560 -74 -173 -1 -205 2 -280 22 -91 25 -173 68 -178
94 -2 12 2 15 17 11 16 -4 19 -1 14 15 -5 22 59 102 82 102 18 0 125 71 183
123 50 44 56 47 110 47 31 0 97 5 146 10 130 15 213 60 111 60 -54 0 -186 26
-233 46 -56 23 -28 34 91 34 150 1 246 19 337 65 80 40 185 124 195 155 3 10
15 22 26 25 12 4 18 13 15 21 -3 7 -1 16 4 19 6 4 10 1 10 -4 0 -6 5 -11 10
-11 6 0 10 5 10 12 0 16 41 58 57 58 7 0 21 12 30 27 10 15 27 37 38 49 29 32
39 46 51 74 27 59 32 81 44 181 11 86 11 119 1 175 -7 38 -16 89 -20 114 -9
56 -49 147 -69 155 -10 4 -12 0 -8 -12 4 -11 -1 -9 -14 7 -24 29 -19 13 16
-60 19 -40 39 -106 58 -192 2 -10 -2 -18 -9 -18 -7 0 -20 28 -30 63 -58 208
-206 368 -400 433 -105 35 -265 38 -362 7 -78 -26 -184 -85 -236 -132 -29 -26
-37 -30 -29 -14 15 28 142 123 207 155 101 50 157 61 283 56 130 -6 206 -28
308 -89 75 -46 156 -119 150 -135 -3 -8 0 -13 7 -11 7 1 11 -7 10 -18 -1 -11
0 -14 3 -7 5 10 9 9 20 -5 7 -10 14 -13 14 -6 1 35 -142 174 -231 225 -107 62
-176 81 -304 84 -66 2 -124 -1 -130 -5 -18 -12 -86 -33 -92 -27 -3 3 -12 -1
-20 -9 -19 -19 -40 -20 -24 -2 6 8 8 17 4 21 -4 4 0 4 8 1 9 -3 23 3 33 14 10
11 23 18 28 15 4 -3 8 -2 7 3 -4 25 3 34 24 29 12 -3 16 -3 10 0 -22 10 -14
22 12 20 13 -2 22 1 19 5 -3 5 7 11 21 15 13 3 22 10 19 15 -3 5 0 9 7 9 7 0
10 3 7 6 -7 6 -50 -14 -59 -28 -3 -5 -13 -10 -21 -12 -17 -2 -98 -55 -98 -63
0 -3 7 -2 16 1 9 3 12 2 9 -5 -4 -5 -14 -7 -24 -4 -21 6 -104 -62 -95 -77 4
-6 2 -8 -4 -5 -5 4 -38 -23 -72 -60 -35 -38 -58 -59 -52 -48 23 44 157 176
239 237 99 72 201 122 295 143 89 21 262 13 353 -16z m118 10 c-3 -10 -11 -15
-19 -12 -20 8 -17 29 5 29 12 0 17 -6 14 -17z m2687 17 c0 -3 -4 -8 -10 -11
-5 -3 -10 -1 -10 4 0 6 5 11 10 11 6 0 10 -2 10 -4z m75 -6 c3 -5 2 -10 -4
-10 -5 0 -13 5 -16 10 -3 6 -2 10 4 10 5 0 13 -4 16 -10z m-3446 -23 l31 -13
-35 -17 c-39 -19 -59 -22 -35 -7 13 8 13 10 1 10 -11 0 -10 4 5 16 17 14 17
15 1 10 -11 -3 -16 -2 -12 4 8 13 7 13 44 -3z m2741 -1 c0 -3 -4 -8 -10 -11
-5 -3 -10 -1 -10 4 0 6 5 11 10 11 6 0 10 -2 10 -4z m704 -17 c-3 -5 0 -9 7
-9 7 0 10 -2 7 -5 -3 -3 -17 0 -32 6 -18 8 -23 15 -15 20 15 9 41 0 33 -12z
m-742 -11 c-9 -9 -15 -9 -24 1 -11 10 -10 11 5 6 10 -5 17 -2 17 6 0 7 3 9 7
6 4 -4 1 -13 -5 -19z m-1947 -8 c3 -6 -1 -7 -9 -4 -18 7 -21 14 -7 14 6 0 13
-4 16 -10z m-836 -26 c14 13 21 14 27 5 4 -7 3 -10 -4 -5 -5 3 -12 1 -14 -5
-2 -6 -15 -13 -29 -14 -19 -2 -25 2 -25 17 0 18 1 18 13 2 12 -17 14 -17 32 0z
m921 -6 c0 -11 -28 -10 -35 1 -3 6 4 9 15 8 11 -1 20 -5 20 -9z m61 -15 c13
-16 12 -17 -3 -4 -10 7 -18 15 -18 17 0 8 8 3 21 -13z m-35 -25 l19 -21 -27
18 c-29 18 -34 25 -20 25 5 0 17 -10 28 -22z m-1031 -30 c5 4 5 1 1 -6 -6 -10
-11 -10 -22 -1 -8 6 -14 14 -14 16 0 3 6 0 13 -6 8 -6 18 -7 22 -3z m1144 -1
c8 -10 7 -14 -2 -14 -8 0 -14 6 -14 14 0 7 1 13 2 13 2 0 8 -6 14 -13z m1571
9 c0 -2 -8 -10 -17 -17 -16 -13 -17 -12 -4 4 13 16 21 21 21 13z m-58 -36 c22
11 22 10 4 -4 -25 -20 -30 -20 -47 2 -13 15 -12 16 3 4 13 -10 22 -11 40 -2z
m-1515 -15 c0 -8 -4 -12 -9 -9 -5 3 -6 10 -3 15 9 13 12 11 12 -6z m2683 5 c0
-5 -2 -10 -4 -10 -3 0 -8 5 -11 10 -3 6 -1 10 4 10 6 0 11 -4 11 -10z m47 -22
c-3 -8 -6 -5 -6 6 -1 11 2 17 5 13 3 -3 4 -12 1 -19z m-1330 -15 c-4 -3 -1
-13 6 -22 10 -14 10 -14 -4 -4 -9 7 -19 10 -23 6 -4 -4 -4 0 0 10 3 9 11 17
17 17 6 0 7 -3 4 -7z m43 -27 c-8 -8 -13 -7 -20 4 -12 20 -1 33 16 19 11 -9
12 -15 4 -23z m1033 18 c113 -29 293 -149 329 -218 5 -11 -12 0 -38 26 -112
108 -249 162 -404 162 -301 -1 -541 -187 -620 -482 -13 -51 -27 -92 -30 -92
-3 0 -4 28 -4 62 2 67 21 124 76 230 43 82 43 82 27 72 -11 -6 -11 -4 0 12 37
49 152 144 214 176 124 64 317 87 450 52z m282 6 c-3 -5 -12 -10 -18 -10 -7 0
-6 4 3 10 19 12 23 12 15 0z m-3880 -20 c-3 -5 -12 -10 -18 -10 -7 0 -6 4 3
10 19 12 23 12 15 0z m2521 -35 c1 -8 -1 -17 -5 -19 -4 -3 -7 6 -7 19 0 25 8
25 12 0z m1385 -7 l22 -33 -31 29 c-34 32 -37 36 -23 36 5 0 20 -15 32 -32z
m-3448 -44 c167 -57 303 -210 348 -394 25 -99 9 -380 -21 -380 -5 0 -3 17 3
38 17 58 13 260 -6 302 l-16 35 2 -57 c2 -32 0 -58 -5 -58 -4 0 -5 -7 -2 -15
4 -9 0 -15 -8 -15 -8 0 -41 43 -74 96 -154 250 -352 343 -580 273 -145 -44
-230 -108 -339 -253 -32 -42 -60 -74 -63 -72 -3 3 1 12 8 21 10 12 10 18 0 30
-7 9 -10 18 -6 22 3 3 6 0 6 -8 0 -11 2 -11 10 1 13 20 13 33 0 25 -34 -21 15
96 74 179 108 150 246 235 421 259 59 8 181 -7 248 -29z m777 32 c0 -3 -4 -8
-10 -11 -5 -3 -10 -1 -10 4 0 6 5 11 10 11 6 0 10 -2 10 -4z m301 -10 c5 3 9
-1 9 -8 0 -10 -33 -13 -149 -13 -82 0 -152 3 -155 6 -4 4 5 4 20 1 21 -4 25
-2 19 9 -7 12 -6 12 7 1 11 -8 18 -9 23 -3 3 6 41 9 94 7 49 -2 95 0 103 5 7
5 14 4 16 -1 2 -6 8 -8 13 -4z m893 1 c-3 -8 3 -13 15 -13 13 0 17 5 13 15 -5
14 -4 14 10 1 23 -21 13 -30 -32 -30 -39 0 -39 0 -23 20 20 23 24 25 17 7z
m-39 -7 c-3 -5 -23 -9 -43 -9 l-37 2 35 7 c52 11 52 11 45 0z m1199 0 c21 -4
42 -14 46 -21 4 -6 12 -9 17 -6 6 4 19 0 29 -8 10 -8 26 -15 35 -15 9 0 48
-24 87 -53 102 -76 167 -162 209 -276 26 -73 27 -74 13 -66 -5 3 -11 16 -11
28 -1 16 -3 17 -6 5 -2 -9 0 -34 6 -54 6 -21 9 -39 7 -41 -2 -2 -23 22 -47 54
-69 93 -127 150 -193 191 -269 170 -535 99 -727 -192 -56 -85 -89 -121 -89
-96 0 5 8 10 18 10 16 1 16 1 -1 14 -15 11 -17 24 -12 80 5 65 4 66 -14 49
-32 -30 -53 -219 -37 -328 l6 -40 -15 40 c-9 22 -15 51 -14 65 1 14 -2 33 -6
43 -17 41 20 226 63 312 50 100 125 185 210 239 39 24 139 62 182 69 49 8 206
6 244 -3z m-1937 -6 c-3 -3 -12 -4 -19 -1 -8 3 -5 6 6 6 11 1 17 -2 13 -5z
m583 -4 c-30 -4 -73 -11 -95 -15 -22 -4 -37 -5 -34 -2 10 12 84 25 134 25 l50
-1 -55 -7z m-583 -26 c-3 -3 -12 -4 -19 -1 -8 3 -5 6 6 6 11 1 17 -2 13 -5z
m-7 -53 c58 -17 139 -34 180 -38 76 -6 104 -1 290 52 35 10 95 16 166 16 120
-1 173 -10 119 -22 -16 -4 -55 -7 -85 -8 -77 -2 -134 -16 -215 -53 -68 -31
-75 -33 -225 -36 -140 -4 -161 -2 -215 18 -33 12 -68 22 -77 23 -9 1 -15 4
-12 8 2 4 -3 9 -11 12 -9 4 -12 1 -8 -9 4 -10 -3 -14 -28 -13 -29 1 -31 2 -10
8 57 16 -46 47 -204 62 -11 1 0 5 25 10 83 14 199 2 310 -30z m-1932 4 c-3 -3
-9 2 -12 12 -6 14 -5 15 5 6 7 -7 10 -15 7 -18z m2035 18 c-7 -2 -19 -2 -25 0
-7 3 -2 5 12 5 14 0 19 -2 13 -5z m240 0 c-7 -2 -19 -2 -25 0 -7 3 -2 5 12 5
14 0 19 -2 13 -5z m-105 -10 c-21 -2 -57 -2 -80 0 -24 2 -7 4 37 4 44 0 63 -2
43 -4z m465 -68 c-10 -13 -22 -25 -27 -25 -5 0 1 11 14 25 30 32 36 32 13 0z
m-658 -41 c14 -6 14 -8 -2 -19 -21 -15 -103 -17 -103 -2 0 6 15 7 38 4 36 -6
36 -6 12 8 l-25 14 32 1 c17 0 39 -3 48 -6z m293 -11 c-21 -2 -38 -8 -38 -14
0 -5 -5 -9 -11 -9 -5 0 -7 5 -3 12 5 8 -3 9 -32 3 -56 -12 -215 -15 -185 -3
13 4 32 6 42 3 11 -4 19 -2 19 4 0 7 41 10 123 9 67 -1 105 -3 85 -5z m-2292
-93 c-21 -79 -33 -102 -33 -61 0 16 3 28 7 26 4 -2 7 14 8 36 2 34 20 74 30
64 2 -2 -4 -31 -12 -65z m3871 40 c8 0 28 -13 44 -29 54 -55 30 -128 -46 -137
-75 -10 -144 62 -117 121 13 27 68 58 90 50 8 -3 20 -5 29 -5z m-3187 -17 c46
-27 64 -89 37 -123 -55 -71 -160 -62 -193 16 -12 29 -12 39 0 68 8 19 22 39
33 45 27 16 91 13 123 -6z m3679 -19 c1 5 8 3 15 -4 11 -8 12 -18 6 -35 -6
-16 -5 -25 2 -27 7 -3 8 -10 3 -18 -13 -21 -24 19 -14 48 5 13 5 22 -1 22 -6
0 -10 -6 -10 -12 0 -9 -4 -8 -10 2 -5 8 -9 26 -9 40 l1 25 8 -25 c4 -14 8 -21
9 -16z m-3170 -24 c11 -24 11 -24 -3 -6 -9 11 -16 24 -16 30 0 12 5 7 19 -24z
m2515 -25 c14 -37 -31 -66 -59 -38 -17 17 -17 16 -9 37 8 20 60 21 68 1z
m-3226 -33 c2 -14 -2 -22 -12 -22 -19 0 -29 17 -22 36 8 22 30 12 34 -14z
m-518 -32 c0 -5 -2 -10 -4 -10 -3 0 -8 5 -11 10 -3 6 -1 10 4 10 6 0 11 -4 11
-10z m2707 -56 c-3 -3 -12 -4 -19 -1 -8 3 -5 6 6 6 11 1 17 -2 13 -5z m-550
-10 c-3 -3 -12 -4 -19 -1 -8 3 -5 6 6 6 11 1 17 -2 13 -5z m420 -20 c-3 -3
-12 -4 -19 -1 -8 3 -5 6 6 6 11 1 17 -2 13 -5z m-2592 -284 c5 -8 4 -11 -3 -6
-6 3 -14 28 -18 54 -4 26 -12 51 -18 55 -8 6 -7 10 2 14 7 2 13 25 13 51 1 26
5 1 9 -54 4 -56 11 -107 15 -114z m113 91 c15 -29 18 -41 9 -45 -7 -3 -6 -5 3
-4 8 1 43 -26 77 -60 77 -77 140 -117 222 -142 109 -34 229 -22 344 36 66 34
126 81 205 163 35 36 53 51 41 34 -13 -18 -20 -35 -17 -39 8 -7 42 26 51 49 8
21 17 21 43 2 16 -12 17 -14 2 -15 -9 0 -18 6 -21 13 -2 6 -8 9 -12 5 -4 -4 2
-14 13 -24 26 -22 21 -55 -20 -138 -77 -153 -292 -286 -465 -286 -154 0 -323
84 -411 205 -41 57 -85 172 -79 205 3 15 0 39 -8 53 -8 15 -10 27 -5 27 4 0
17 -18 28 -39z m3336 -20 c47 -64 127 -137 191 -176 169 -101 352 -100 513 4
49 31 138 119 178 175 l21 30 -7 -45 c-32 -191 -158 -344 -331 -399 -77 -25
-212 -27 -290 -4 -111 32 -287 155 -289 201 0 7 -6 16 -13 20 -21 13 -55 87
-62 136 -6 40 -4 47 21 71 16 14 31 26 34 26 3 0 18 -18 34 -39z m1035 -16 c0
-5 -4 -3 -9 5 -5 8 -9 22 -9 30 0 16 17 -16 18 -35z m-22 -37 c-3 -8 -6 -5 -6
6 -1 11 2 17 5 13 3 -3 4 -12 1 -19z m30 0 c-3 -8 -6 -5 -6 6 -1 11 2 17 5 13
3 -3 4 -12 1 -19z m-4477 -63 c0 -8 -4 -16 -9 -19 -5 -4 -7 4 -4 16 4 19 3 20
-6 8 -6 -8 -11 -10 -11 -4 0 6 3 14 6 17 10 9 24 -2 24 -18z m4440 10 c0 -8
-4 -15 -10 -15 -5 0 -7 7 -4 15 4 8 8 15 10 15 2 0 4 -7 4 -15z m-4415 -85 c6
-23 5 -22 -13 5 -11 17 -17 34 -14 39 6 10 17 -8 27 -44z m4385 11 c-12 -23
-13 -34 -2 -28 4 3 8 -7 9 -21 l1 -27 -13 24 -12 24 0 -26 c0 -15 3 -27 8 -27
5 0 6 -7 2 -16 -4 -12 -9 -9 -19 15 -12 28 -11 35 7 66 22 37 37 49 19 16z
m-4373 -63 c-3 -8 -6 -5 -6 6 -1 11 2 17 5 13 3 -3 4 -12 1 -19z m4379 -74
c-4 -9 -9 -15 -11 -12 -3 3 -3 13 1 22 4 9 9 15 11 12 3 -3 3 -13 -1 -22z
m-4435 2 c14 8 11 -2 -4 -14 -10 -8 -13 -6 -14 11 0 12 1 16 4 9 3 -6 9 -10
14 -6z m4453 -62 c3 -8 2 -12 -4 -9 -6 3 -10 10 -10 16 0 14 7 11 14 -7z
m-3494 -9 c-7 -8 -9 -15 -6 -15 22 0 -79 -77 -132 -101 -107 -48 -169 -62
-277 -63 -133 0 -228 28 -291 86 -24 22 -44 46 -44 52 0 6 6 3 14 -6 7 -10 35
-27 62 -38 196 -84 428 -61 618 62 66 42 75 45 56 23z m3318 -24 c-8 -12 -18
-18 -21 -14 -4 3 0 15 10 25 21 24 29 15 11 -11z m132 -5 c0 -7 30 -62 66
-122 124 -204 135 -224 159 -289 37 -98 30 -97 -20 1 -24 49 -62 114 -84 144
-53 71 -118 198 -130 249 -5 24 -5 39 0 35 5 -3 9 -11 9 -18z m-4478 5 c8 12
9 12 6 0 -6 -22 -28 -25 -27 -4 0 12 2 14 6 4 5 -11 7 -11 15 0z m63 -10 c-8
-14 -25 -14 -25 0 0 5 5 7 10 4 6 -3 10 -1 10 6 0 7 3 10 6 6 3 -3 3 -10 -1
-16z m31 -78 c-20 -42 -64 -116 -97 -165 -33 -49 -78 -126 -101 -171 -22 -45
-37 -68 -33 -52 14 63 68 175 142 297 43 70 86 142 97 160 35 61 29 9 -8 -69z
m-71 19 c-5 -4 -11 -13 -13 -20 -1 -7 -14 -31 -29 -53 -20 -31 -29 -37 -39
-28 -10 8 -14 8 -14 1 0 -6 4 -13 9 -17 8 -5 -34 -95 -45 -95 -6 0 30 75 41
82 10 8 0 12 -18 9 -4 -1 -3 8 3 19 6 11 15 18 20 15 5 -3 20 7 34 22 25 27
35 50 18 39 -5 -3 -9 1 -9 9 0 8 4 12 8 9 4 -2 10 0 14 6 3 5 12 10 18 10 8 0
8 -3 2 -8z m4675 -187 c0 -15 -18 -1 -29 23 l-13 27 21 -22 c12 -12 21 -25 21
-28z m-4508 -28 c15 -12 15 -16 1 -45 -20 -40 -128 -98 -167 -88 -52 13 -25
91 42 119 72 31 98 33 124 14z m4519 -9 c11 -21 11 -22 -4 -9 -10 7 -17 17
-17 22 0 15 9 10 21 -13z m-191 -10 c48 -25 86 -78 76 -104 -9 -22 -67 -14
-139 19 -57 26 -93 66 -83 92 9 24 93 19 146 -7z m-4674 -27 c2 -8 1 -8 -3 0
-4 8 -7 8 -13 -1 -5 -9 -9 -8 -13 3 -4 10 0 14 11 13 9 -2 17 -8 18 -15z
m4895 -34 c-10 -9 -11 -8 -5 6 3 10 9 15 12 12 3 -3 0 -11 -7 -18z m-4895 -28
c-15 -34 -15 -34 -9 -4 7 35 13 48 20 42 2 -3 -3 -20 -11 -38z m4919 -19 c3
-18 2 -30 -2 -27 -3 4 -7 21 -9 38 -2 18 -1 30 2 27 3 -3 7 -20 9 -38z m-4948
-73 c-5 -26 -14 -47 -19 -47 -5 0 -6 -10 -3 -21 6 -19 5 -20 -8 -8 -9 9 -12
18 -6 24 5 5 9 17 9 27 0 10 4 18 9 18 5 0 11 14 15 32 3 17 8 29 10 27 3 -2
-1 -25 -7 -52z m4960 -19 c-3 -8 -6 -5 -6 6 -1 11 2 17 5 13 3 -3 4 -12 1 -19z
m43 -35 c-11 -17 -11 -17 -6 0 3 10 6 24 7 30 0 9 2 9 5 0 3 -7 0 -20 -6 -30z
m-2260 -13 c69 -10 177 -26 240 -35 171 -25 400 -68 735 -141 165 -36 354 -72
420 -81 221 -28 424 1 570 81 39 21 67 31 71 25 10 -17 -5 -74 -31 -121 -22
-40 -174 -197 -297 -308 -46 -41 -48 -45 -48 -97 0 -49 -4 -58 -31 -84 -17
-16 -28 -29 -24 -29 12 0 -58 -46 -205 -135 -140 -84 -230 -145 -214 -145 5 0
18 6 29 13 23 15 75 38 75 34 0 -2 -35 -25 -77 -52 -43 -26 -85 -56 -93 -65
-8 -9 -54 -47 -103 -85 -48 -38 -85 -70 -84 -72 2 -2 28 7 58 20 30 13 67 29
83 36 22 9 26 14 17 25 -9 10 -9 16 -1 21 6 4 9 1 8 -6 -2 -7 5 -15 16 -17 11
-2 16 0 12 7 -4 6 -1 9 7 6 7 -3 22 4 33 16 l19 22 -25 -13 c-25 -13 -25 -13
-5 7 14 14 22 17 28 9 5 -7 13 -3 26 13 11 14 23 21 30 16 7 -4 22 1 33 12 12
10 18 12 14 6 -11 -19 -4 -17 60 22 32 19 61 35 66 35 20 0 5 -45 -27 -77 -30
-30 -50 -73 -27 -59 5 3 16 -4 26 -16 15 -17 16 -24 5 -44 -15 -28 -7 -40 18
-28 19 8 29 11 51 13 6 0 12 6 12 12 0 5 -4 7 -10 4 -6 -3 -7 1 -4 10 5 11 10
13 17 6 7 -7 19 -5 39 5 17 9 28 18 25 21 -3 2 -18 -3 -33 -13 -21 -14 -26
-15 -22 -4 8 25 92 62 129 58 l34 -4 -25 -11 -25 -12 31 0 c18 -1 34 -7 37
-14 5 -14 -28 -117 -40 -126 -14 -10 -63 -116 -63 -134 0 -11 18 -25 53 -41
28 -13 73 -46 99 -72 52 -55 138 -189 138 -216 0 -10 6 -18 14 -18 24 0 56
-50 56 -89 0 -50 51 -129 87 -137 16 -3 33 -7 39 -9 18 -5 54 -124 54 -174 -1
-51 -10 -72 -55 -122 -42 -48 -87 -78 -148 -99 -28 -11 -81 -30 -116 -44 -36
-15 -72 -26 -81 -26 -46 0 -186 211 -250 377 -40 104 -59 147 -107 251 l-25
53 -24 -22 c-13 -12 -24 -30 -24 -38 -1 -11 -6 -7 -15 9 -9 15 -14 54 -15 98
0 39 -4 72 -9 72 -29 0 -48 -203 -27 -294 l9 -39 -59 41 c-33 23 -67 54 -77
69 -9 16 -26 39 -37 53 l-21 25 7 -30 c10 -42 56 -113 86 -133 14 -9 44 -30
67 -45 27 -18 49 -43 60 -70 10 -24 34 -57 54 -74 35 -31 35 -53 -2 -53 -9 0
-35 -13 -58 -29 -55 -37 -203 -77 -337 -91 -88 -9 -141 -8 -285 5 -97 9 -212
22 -256 30 -157 26 -86 0 115 -42 151 -31 290 -38 480 -24 182 14 233 21 207
30 -14 5 -3 13 40 30 32 12 82 34 111 48 30 14 57 21 61 17 5 -5 29 -39 54
-75 52 -74 55 -89 32 -194 -9 -39 -18 -85 -22 -102 -3 -18 -10 -33 -15 -33 -5
0 -7 -3 -5 -8 3 -4 -6 -21 -19 -37 -14 -18 -24 -24 -24 -15 0 8 -8 0 -17 -17
-10 -18 -67 -82 -127 -143 -82 -83 -117 -111 -142 -116 -43 -8 -537 13 -634
27 -88 12 -144 8 -261 -23 l-87 -22 -67 33 c-87 43 -144 40 -188 -9 -17 -19
-27 -40 -24 -50 4 -16 1 -17 -22 -9 -14 5 -98 13 -186 19 -88 5 -184 12 -213
16 -39 4 -62 2 -88 -11 -22 -10 -82 -21 -148 -26 -61 -5 -133 -16 -161 -24
-27 -8 -75 -21 -106 -30 -45 -12 -68 -26 -113 -71 -35 -34 -81 -66 -119 -83
-37 -17 -74 -42 -90 -62 -15 -19 -32 -39 -37 -46 -6 -7 -10 -17 -10 -23 0 -5
-7 -10 -16 -10 -8 0 -13 -4 -9 -10 6 -9 -29 -83 -36 -75 -3 2 -5 -4 -6 -13 -1
-9 -10 -48 -22 -87 -11 -38 -23 -88 -26 -110 l-7 -40 -31 36 c-37 41 -160 195
-199 248 -14 20 -24 39 -21 44 2 4 0 6 -5 5 -5 -2 -29 22 -53 53 -24 31 -79
100 -122 153 -48 59 -75 101 -71 109 4 6 4 9 -1 5 -8 -7 -19 2 -45 37 -15 20
-15 20 10 0 l24 -20 -22 32 c-12 17 -22 34 -22 37 0 17 -33 55 -43 49 -6 -4
-5 -10 5 -17 8 -6 19 -22 23 -36 7 -22 6 -23 -9 -11 -9 7 -16 18 -16 23 0 5
-18 33 -40 63 -22 30 -36 55 -31 55 6 0 18 -15 27 -32 10 -18 19 -28 21 -21 3
7 -5 22 -16 35 -12 12 -21 27 -21 34 0 13 58 34 95 34 11 0 33 7 49 15 15 8
35 15 42 15 8 0 14 7 14 15 0 10 -10 15 -29 15 -28 0 -91 42 -91 60 0 5 -19
27 -42 49 -22 23 -38 41 -34 41 7 0 77 -50 86 -61 3 -4 23 -14 44 -23 21 -9
44 -24 51 -33 8 -10 14 -12 18 -6 8 12 87 -4 87 -18 0 -4 10 -9 23 -11 12 -2
21 -9 19 -17 -2 -8 3 -11 12 -8 8 3 48 -6 88 -21 71 -26 79 -27 288 -27 232 0
290 9 396 60 28 14 56 25 63 25 7 0 9 4 6 10 -3 5 5 29 19 52 14 24 48 97 76
163 136 319 188 510 230 849 24 191 25 257 5 296 -33 63 -145 123 -300 159
-27 7 -66 16 -85 21 -19 4 -60 11 -90 15 -30 3 -67 8 -83 11 l-27 6 27 51 c15
29 36 64 47 79 15 22 20 48 23 125 7 211 4 285 -8 277 -4 -2 -10 3 -13 12 -3
8 -2 12 4 9 15 -9 12 11 -4 24 -23 19 -27 -3 -11 -49 17 -48 16 -53 -9 -44 -9
4 -16 17 -16 34 0 16 -5 32 -11 36 -9 5 -10 -8 -5 -47 20 -156 20 -159 -19
-299 -21 -74 -40 -150 -43 -168 -4 -29 -8 -33 -30 -30 -22 3 -28 12 -44 68
-10 36 -17 77 -15 93 2 17 -3 33 -15 44 -21 19 -23 39 -5 46 6 3 2 6 -10 6
-49 2 -56 -68 -18 -179 14 -40 25 -75 25 -77 0 -2 -16 -3 -36 -3 -44 0 -111
32 -162 77 -20 18 -50 38 -67 45 -16 6 -34 18 -38 25 -4 7 -19 13 -33 13 -24
0 -119 48 -111 56 2 3 28 -7 58 -21 30 -14 63 -25 74 -25 18 0 18 1 -3 16 -13
9 -77 47 -144 85 -144 84 -256 178 -262 223 -16 105 -9 94 -167 241 -83 77
-161 158 -174 180 -25 43 -42 130 -27 139 5 3 45 -13 88 -34 126 -64 183 -75
379 -75 187 1 210 4 625 96 279 62 479 99 753 140 351 51 477 55 717 19z
m2227 -7 c-3 -10 -5 -4 -5 12 0 17 2 24 5 18 2 -7 2 -21 0 -30z m50 -15 c-3
-8 -6 -5 -6 6 -1 11 2 17 5 13 3 -3 4 -12 1 -19z m-5045 -140 c-6 -6 -7 0 -4
19 5 21 7 23 10 9 2 -10 0 -22 -6 -28z m4995 -35 c-3 -10 -5 -2 -5 17 0 19 2
27 5 18 2 -10 2 -26 0 -35z m23 -3 c0 -22 -3 -40 -8 -40 -4 0 -6 18 -4 40 2
22 6 40 8 40 2 0 4 -18 4 -40z m-46 -82 c-4 -13 -7 -29 -7 -35 0 -7 -4 -13 -9
-13 -10 0 -10 1 3 39 12 35 24 43 13 9z m-4885 -113 c0 -5 -6 1 -14 15 -8 14
-14 30 -14 35 0 6 6 -1 14 -15 8 -14 14 -29 14 -35z m4856 31 c0 -13 -2 -22
-4 -20 -2 2 -11 -2 -19 -9 -12 -10 -12 -6 2 21 9 17 18 32 19 32 1 0 2 -11 2
-24z m26 -29 c-10 -9 -11 -8 -5 6 3 10 9 15 12 12 3 -3 0 -11 -7 -18z m-4845
-44 c13 -20 13 -25 2 -16 -8 7 -17 11 -19 8 -3 -2 -5 5 -6 15 -2 26 1 25 23
-7z m4774 -8 c0 -8 -33 -49 -72 -91 -40 -42 -71 -81 -70 -88 2 -6 0 -8 -4 -4
-4 4 -14 2 -23 -4 -9 -7 7 12 34 43 92 101 116 129 109 129 -4 0 -1 7 6 15 16
19 20 19 20 0z m-4667 -134 c5 -9 -1 -5 -12 8 -13 15 -21 18 -22 10 0 -11 -2
-11 -6 -1 -2 6 -10 9 -16 5 -6 -4 -8 0 -4 10 3 8 -1 21 -9 27 -8 7 -14 20 -15
29 -1 9 -4 5 -9 -9 -7 -22 -8 -22 -9 -4 -1 11 2 24 5 27 7 7 82 -73 97 -102z
m107 -111 c0 -8 -5 -22 -10 -30 -8 -11 -9 -8 -4 12 6 27 -16 65 -30 51 -3 -4
-6 0 -6 8 0 8 -9 20 -20 27 -11 7 -20 18 -20 24 0 7 20 -8 45 -32 25 -24 45
-51 45 -60z m4470 86 c0 -3 -4 -8 -10 -11 -5 -3 -10 -1 -10 4 0 6 5 11 10 11
6 0 10 -2 10 -4z m-91 -171 c0 -5 -8 6 -19 25 -11 19 -19 40 -19 45 0 6 8 -6
19 -25 11 -19 19 -39 19 -45z m-4404 36 c3 -5 2 -12 -3 -15 -5 -3 -9 1 -9 9 0
17 3 19 12 6z m4410 -187 c24 -70 62 -157 84 -193 21 -36 42 -79 46 -96 3 -16
29 -54 57 -83 28 -29 47 -56 43 -60 -4 -4 -28 16 -54 44 -26 28 -57 54 -68 58
-11 4 -27 23 -36 44 -8 20 -32 78 -52 127 -33 79 -96 298 -95 329 1 22 31 -45
75 -170z m-4452 121 c4 -8 3 -16 -1 -19 -4 -3 -9 4 -9 15 -2 23 3 25 10 4z
m41 -165 c-19 -96 -39 -195 -44 -220 -18 -76 -67 -166 -110 -200 -22 -18 -38
-36 -35 -41 3 -4 -6 -18 -20 -31 -18 -15 -22 -24 -13 -29 8 -5 3 -12 -15 -20
-19 -8 -26 -18 -22 -29 4 -12 0 -16 -17 -15 -13 1 -22 6 -20 11 6 15 39 43 45
38 3 -3 8 -1 12 5 3 6 0 11 -7 11 -7 0 0 11 15 25 24 23 33 35 24 35 -10 0
-101 -95 -134 -140 -22 -30 -74 -97 -116 -149 -92 -115 -149 -213 -197 -339
-20 -53 -47 -113 -59 -132 -13 -19 -20 -26 -16 -15 4 11 31 85 59 165 45 125
75 190 96 210 14 14 103 134 147 200 60 89 110 141 209 215 l74 56 30 96 c16
54 30 116 30 140 0 46 59 235 93 295 11 21 22 37 23 35 1 -1 -13 -81 -32 -177z
m4424 145 c-3 -3 -9 2 -12 12 -6 14 -5 15 5 6 7 -7 10 -15 7 -18z m-4541 -70
c0 -8 -4 -15 -9 -15 -10 0 -11 14 -1 23 9 10 10 9 10 -8z m39 -7 c4 -7 4 -10
-1 -6 -4 4 -15 -7 -25 -24 -9 -17 -27 -39 -40 -47 -21 -14 -23 -14 -15 -1 5 8
9 24 10 35 0 11 7 20 15 20 8 0 21 8 28 18 16 20 19 21 28 5z m4564 -91 c-8
-9 -9 -7 -4 7 5 13 4 17 -4 12 -8 -5 -10 -2 -5 10 6 15 7 15 16 -1 6 -11 5
-21 -3 -28z m-4665 23 c4 -6 -6 -7 -27 -3 -44 8 -48 13 -10 13 17 0 34 -4 37
-10z m-21 -16 c9 -3 13 -11 10 -16 -4 -6 -10 -5 -16 3 -6 10 -7 7 -3 -8 5 -17
2 -23 -10 -23 -9 0 -13 -5 -10 -11 4 -6 -1 -17 -11 -25 -18 -14 -17 -15 11 -9
46 11 58 11 62 0 5 -17 -49 -43 -102 -50 -30 -3 -56 -13 -67 -25 -11 -11 -24
-20 -31 -20 -22 0 -89 -62 -83 -76 3 -8 -6 -21 -22 -31 -15 -10 -31 -23 -37
-29 -5 -6 -42 -34 -81 -62 -114 -83 -212 -210 -284 -366 -60 -130 -118 -332
-127 -438 -9 -108 11 -81 37 50 23 122 88 320 135 413 74 146 171 255 348 389
51 38 103 79 117 90 l25 20 -29 -10 c-16 -6 -31 -9 -33 -6 -5 4 20 14 54 21
10 2 26 6 36 10 25 10 21 1 -14 -40 -19 -21 -24 -33 -15 -29 10 4 28 23 42 43
l24 36 -22 6 -23 5 23 13 c13 7 44 15 69 17 24 2 58 11 75 20 16 8 32 13 35
11 5 -5 -21 -87 -37 -118 -6 -10 -11 -30 -13 -46 -2 -15 -7 -30 -13 -32 -5 -2
-27 -19 -48 -38 -22 -18 -58 -38 -79 -44 -25 -6 -41 -18 -44 -30 -3 -10 -14
-19 -24 -19 -10 0 -31 -16 -46 -36 -15 -20 -39 -48 -52 -63 -13 -14 -39 -54
-59 -88 -42 -72 -55 -78 -17 -8 36 69 31 69 -16 0 -90 -133 -173 -342 -204
-510 -6 -37 -15 -58 -59 -142 -17 -33 -40 -56 -31 -31 7 17 -46 40 -97 44 -22
1 -54 9 -71 17 -18 8 -54 18 -82 22 -27 4 -43 10 -35 13 9 3 -3 11 -30 18
l-45 13 50 -4 c37 -3 44 -2 25 4 -24 9 -24 9 8 10 23 1 31 -3 26 -11 -4 -7 -3
-8 4 -4 7 4 12 1 12 -8 0 -8 -6 -17 -12 -19 -8 -3 -5 -6 6 -6 15 -1 17 4 12
32 -4 17 -8 40 -9 50 -1 9 -6 17 -13 17 -7 0 -9 10 -6 27 6 31 18 46 46 56 13
5 17 14 13 28 -6 23 20 99 33 99 4 0 11 21 15 47 4 26 15 60 26 74 10 15 19
32 19 39 0 6 9 23 20 37 13 16 18 34 15 47 -4 14 -3 17 3 8 6 -9 15 0 33 35
13 26 27 50 30 53 4 3 21 33 39 68 18 34 36 62 40 62 3 0 34 26 67 58 33 31
83 77 112 102 29 25 68 60 87 78 18 17 40 32 49 32 8 0 15 5 15 11 0 19 24 34
53 34 26 -1 31 5 28 33 -3 18 19 43 30 36 5 -3 9 1 9 8 0 10 3 9 9 -1 6 -9 6
-22 -1 -34 -5 -10 -7 -21 -5 -24 7 -6 30 37 32 60 1 9 10 24 21 33 16 14 17
15 2 10 -10 -3 -18 -1 -18 5 0 7 12 8 32 4 26 -6 30 -5 25 9 -7 17 9 21 37 10z
m4516 -66 c44 -95 61 -192 53 -296 -6 -74 -8 -81 -14 -47 -5 35 -6 32 -8 -25
-1 -62 0 -66 38 -105 142 -148 386 -562 516 -875 26 -63 60 -138 76 -166 34
-60 37 -76 9 -43 l-20 24 20 -48 c24 -59 26 -89 5 -81 -10 4 -15 0 -15 -12 0
-10 -9 -36 -19 -58 -10 -23 -26 -61 -36 -86 -19 -52 -64 -114 -62 -85 1 9 -6
22 -16 29 -15 9 -20 8 -28 -6 -5 -10 -20 -23 -31 -29 -17 -9 -14 -2 12 32 19
24 45 55 57 69 13 14 23 28 23 32 0 5 5 8 12 8 9 0 9 -3 0 -12 -7 -7 -12 -20
-12 -30 0 -10 -7 -21 -15 -24 -8 -4 -15 -11 -15 -18 1 -15 70 64 70 81 0 7 5
13 10 13 6 0 10 9 10 19 0 11 4 23 10 26 11 7 10 75 -2 75 -4 0 -8 8 -8 18 0
14 2 15 10 2 11 -17 13 -10 4 14 -3 9 -11 13 -18 9 -8 -4 -8 -2 1 7 8 9 9 20
1 39 -5 14 -11 33 -13 41 -7 34 -25 70 -35 70 -5 0 -9 10 -8 23 1 12 -14 56
-34 98 -20 41 -38 85 -42 96 -29 90 -285 535 -368 639 -38 46 -68 86 -68 89 0
10 -30 37 -31 28 0 -4 -6 5 -13 21 -10 21 -11 40 -4 70 17 72 4 241 -26 334
-24 73 -27 102 -10 102 3 0 18 -28 34 -62z m-4410 12 c-22 -43 -46 -55 -35
-17 6 18 41 56 53 57 1 0 -7 -18 -18 -40z m697 -38 c65 -32 141 -70 168 -85
28 -14 59 -29 70 -33 13 -5 -5 -10 -55 -16 -175 -19 -331 -49 -385 -73 -31
-13 -59 -24 -63 -23 -4 1 -18 -4 -32 -12 -23 -12 -24 -12 -10 4 8 10 -7 4 -33
-13 -25 -18 -50 -37 -54 -43 -3 -7 7 -2 24 10 46 32 50 27 9 -12 -26 -24 -36
-42 -36 -65 0 -17 5 -31 10 -31 6 0 10 9 10 19 0 32 46 76 117 114 122 63 264
92 511 104 l134 6 -26 -27 c-23 -26 -32 -28 -118 -32 -214 -10 -380 -47 -513
-114 -76 -38 -90 -50 -93 -72 -4 -31 35 -64 110 -97 52 -22 227 -66 303 -76
74 -9 92 -24 30 -26 -31 0 -43 -3 -32 -8 26 -10 18 -24 -23 -39 -60 -22 -360
-33 -360 -13 0 4 15 5 34 3 18 -2 37 1 40 7 4 6 16 11 27 11 12 0 19 5 16 13
-2 6 5 18 17 24 19 11 17 12 -14 7 -26 -4 -31 -3 -20 5 11 8 11 11 3 12 -22 3
-27 4 -51 18 -13 7 -30 10 -38 7 -8 -3 -13 -2 -10 2 2 4 -9 15 -25 24 l-29 17
-1 -67 c-1 -74 -4 -69 -33 63 -22 95 -16 105 36 61 23 -20 46 -36 52 -36 5 0
-10 18 -34 39 -25 22 -55 48 -67 59 l-22 20 -7 -31 c-5 -24 -8 -27 -15 -14 -6
9 -5 25 0 39 5 13 12 39 15 59 4 19 20 57 36 83 17 25 30 53 30 61 0 8 5 15
11 15 6 0 19 10 28 22 15 17 29 21 85 22 39 1 70 -4 74 -10 4 -6 23 -15 42
-19 19 -4 41 -12 48 -18 25 -20 24 3 -2 33 -14 17 -26 35 -27 38 -3 34 -10 83
-14 110 -8 46 12 43 152 -26z m3977 12 c3 -8 2 -12 -4 -9 -6 3 -10 10 -10 16
0 14 7 11 14 -7z m-6 -51 c13 -16 21 -21 17 -13 -6 12 -5 13 6 3 9 -9 10 -16
3 -23 -8 -8 -19 0 -38 25 -32 41 -24 47 12 8z m-4331 -20 c3 -8 0 -19 -7 -23
-21 -13 -178 -170 -184 -183 -2 -7 -5 3 -5 21 -1 18 6 49 14 70 14 32 3 24
-82 -63 -54 -55 -97 -103 -95 -107 1 -5 -1 -8 -5 -9 -5 0 -16 -2 -26 -4 -12
-2 -5 8 20 30 21 18 54 59 73 91 74 128 121 170 204 189 57 13 85 9 93 -12z
m503 5 c0 -6 -6 -5 -15 2 -8 7 -15 14 -15 16 0 2 7 1 15 -2 8 -4 15 -11 15
-16z m3117 -50 c-3 -8 -6 -5 -6 6 -1 11 2 17 5 13 3 -3 4 -12 1 -19z m823 -38
c5 8 13 11 17 6 4 -5 2 -11 -5 -13 -6 -3 -10 -9 -7 -13 3 -5 13 -6 21 -3 13 5
15 1 9 -15 -4 -14 -2 -22 6 -22 12 0 31 -21 50 -55 7 -11 -29 21 -80 70 -50
50 -91 94 -91 98 0 5 16 -9 36 -29 28 -30 37 -35 44 -24z m-3600 -13 c0 -7 -5
-19 -10 -27 -9 -13 -10 -13 -11 0 0 10 -3 8 -9 -5 -7 -17 -9 -16 -9 10 -1 24
4 31 19 32 11 1 20 -4 20 -10z m-1505 -7 c-3 -5 -11 -10 -16 -10 -6 0 -7 5 -4
10 3 6 11 10 16 10 6 0 7 -4 4 -10z m1665 -10 c185 -26 376 -89 424 -139 43
-45 48 -86 30 -261 -21 -215 -49 -368 -99 -542 -42 -145 -203 -531 -205 -489
0 7 20 59 44 115 105 242 165 424 199 606 15 79 47 322 47 363 0 22 -25 21
-67 -1 l-33 -17 -4 -130 c-4 -156 -32 -289 -107 -510 -81 -238 -141 -336 -243
-396 -28 -17 -41 -29 -28 -26 12 3 20 1 17 -4 -3 -4 -18 -8 -33 -8 -15 -1 -62
-3 -106 -7 -89 -7 -118 3 -136 47 -16 37 -5 64 30 79 16 7 46 30 65 51 31 35
35 45 35 94 0 49 -4 59 -37 97 -74 81 -145 94 -281 54 -66 -20 -181 -32 -166
-17 2 2 -14 23 -36 47 -53 58 -59 86 -29 143 33 63 79 80 222 80 137 1 186 13
233 59 62 60 80 135 50 207 -15 34 -49 61 -66 50 -6 -3 -10 -2 -10 3 0 5 -18
17 -40 27 -22 10 -40 21 -40 24 0 3 39 4 86 2 181 -7 484 37 599 88 26 11 49
20 53 20 18 -3 32 2 30 10 -2 4 8 17 22 28 l24 21 -24 36 c-29 43 -108 89
-200 116 -63 19 -221 44 -269 42 -18 0 -20 2 -10 9 10 6 2 9 -23 9 -31 0 -38
4 -38 20 0 16 5 19 23 16 12 -3 56 -10 97 -16z m3570 -41 c12 -8 10 -9 -7 -4
-14 4 -23 2 -23 -4 0 -6 5 -11 10 -11 6 0 10 -5 10 -12 0 -6 -9 -3 -20 7 -11
10 -20 22 -20 27 0 11 32 10 50 -3z m-4809 -22 c-10 -9 -11 -8 -5 6 3 10 9 15
12 12 3 -3 0 -11 -7 -18z m4386 -54 c-3 -10 -5 -2 -5 17 0 19 2 27 5 18 2 -10
2 -26 0 -35z m429 17 c0 -12 -4 -16 -9 -11 -5 5 -6 14 -3 20 10 15 12 14 12
-9z m-4246 0 c-14 -4 -65 -20 -115 -36 -49 -15 -106 -36 -125 -46 -27 -16 -31
-16 -15 -3 33 28 120 65 187 80 70 15 107 18 68 5z m270 -21 c-62 -9 -163 -42
-197 -64 -41 -27 -46 -50 -17 -85 30 -35 66 -56 121 -70 36 -9 35 -9 -12 -4
-69 8 -176 56 -195 88 -14 24 -13 27 14 55 47 49 177 89 286 89 l55 0 -55 -9z
m87 5 c-3 -3 -12 -4 -19 -1 -8 3 -5 6 6 6 11 1 17 -2 13 -5z m152 -18 c10 -11
8 -15 -6 -18 -14 -3 -10 -7 15 -18 17 -8 32 -18 32 -21 0 -3 -18 -12 -40 -19
-52 -17 -45 -25 9 -10 34 9 41 15 41 35 0 17 6 25 18 25 10 1 4 8 -18 20 -51
28 -17 24 90 -11 107 -34 120 -42 120 -75 0 -49 -84 -83 -220 -90 -52 -2 -122
-6 -155 -8 -37 -2 -52 -1 -40 4 18 8 17 9 -6 9 -53 2 -174 54 -184 79 -7 20
12 50 43 65 35 18 69 26 137 32 54 5 56 5 45 -15 -6 -11 -17 -20 -24 -20 -8 0
-19 -7 -26 -15 -11 -13 -7 -15 28 -15 23 0 45 6 52 15 10 12 10 15 -1 15 -11
0 -11 2 1 10 8 5 23 7 33 4 12 -4 17 0 17 15 0 24 22 28 39 7z m3771 -42 c0
-7 6 -15 13 -17 6 -3 8 -6 2 -6 -5 0 -26 18 -45 41 l-34 42 32 -24 c18 -13 32
-29 32 -36z m0 46 c0 -5 -2 -10 -4 -10 -3 0 -8 5 -11 10 -3 6 -1 10 4 10 6 0
11 -4 11 -10z m-5090 -7 c0 -11 -59 -43 -78 -43 -9 0 3 11 28 25 54 28 50 27
50 18z m5130 -3 c0 -5 -2 -10 -4 -10 -3 0 -8 5 -11 10 -3 6 -1 10 4 10 6 0 11
-4 11 -10z m-4800 -27 c0 -16 -9 -43 -20 -61 -20 -33 -81 -67 -104 -59 -13 5
-9 77 4 77 4 0 10 11 14 23 6 27 38 45 79 46 23 1 27 -3 27 -26z m1326 -20
c19 -14 34 -32 34 -39 0 -21 -9 -17 -37 17 -14 16 -40 37 -57 45 l-31 14 29
-5 c16 -4 44 -18 62 -32z m-729 -11 c-18 -19 -23 -42 -9 -42 4 0 13 -10 21
-22 9 -16 3 -14 -20 9 -32 32 -32 33 -14 53 10 11 23 20 28 20 6 0 3 -8 -6
-18z m-1068 -39 c-8 -10 -23 -28 -34 -41 -11 -13 -20 -27 -20 -30 0 -11 -107
-192 -116 -198 -16 -9 -10 16 14 59 22 42 96 158 107 167 3 3 13 17 23 33 10
15 22 27 28 27 7 0 6 -6 -2 -17z m1887 -59 c-30 -21 -42 -17 -15 5 13 11 26
17 29 14 3 -2 -4 -11 -14 -19z m3446 1 c2 3 5 -1 5 -7 0 -7 3 -24 7 -38 8 -24
7 -24 -7 -5 -7 11 -22 34 -33 50 l-18 30 20 -18 c11 -9 23 -15 26 -12z m-5197
-34 c-3 -6 -14 -11 -23 -11 -13 0 -14 -2 -3 -9 10 -7 8 -12 -9 -24 -19 -13
-20 -18 -10 -37 l12 -22 22 21 c27 25 67 31 74 11 3 -8 2 -12 -2 -9 -16 15
-146 -148 -146 -182 0 -9 -6 -19 -14 -22 -7 -3 -16 -23 -19 -44 -4 -22 -25
-64 -52 -100 -25 -35 -45 -66 -45 -69 0 -13 32 20 46 49 9 16 17 27 20 25 2
-3 -9 -31 -26 -64 -16 -32 -30 -65 -30 -72 0 -7 -5 -10 -12 -6 -7 4 -8 3 -4
-5 4 -6 -4 -25 -18 -42 -14 -17 -26 -35 -26 -40 0 -5 -5 -9 -10 -9 -6 0 -29
-12 -51 -26 -23 -14 -37 -20 -33 -12 12 19 14 39 3 32 -5 -3 -7 -9 -4 -14 3
-5 1 -11 -4 -15 -6 -3 -8 -12 -5 -19 6 -16 -41 -56 -65 -56 -12 0 -8 7 12 25
29 28 36 48 12 39 -9 -4 -15 0 -15 10 0 9 5 16 10 16 6 0 10 4 10 8 0 20 -33
6 -46 -20 -18 -34 -27 -37 -14 -4 5 13 6 27 3 30 -3 3 6 10 21 15 14 6 27 18
27 28 1 17 2 17 6 1 5 -21 23 -24 24 -5 0 10 2 10 6 0 2 -7 12 -13 21 -13 15
0 15 2 2 10 -13 8 -13 10 2 10 24 0 41 -33 25 -50 -10 -10 -8 -10 11 -1 27 14
28 32 2 49 -28 17 -25 27 13 51 29 19 30 21 9 21 -13 0 -20 4 -17 10 3 5 20 7
38 5 l32 -5 -35 11 c-46 14 -50 19 -54 65 -2 21 -4 44 -5 49 -1 6 -6 3 -11 -5
-17 -25 0 40 23 85 56 112 130 207 153 198 8 -3 11 -9 8 -14 -3 -5 -1 -9 4 -9
17 0 35 30 48 78 7 26 13 41 13 34 1 -7 5 -11 11 -7 5 3 7 12 4 20 -3 7 0 22
6 32 10 16 11 16 7 -4 -5 -24 17 -22 27 3 3 9 10 13 15 9 5 -3 13 0 16 6 4 5
9 8 12 5 3 -2 2 -9 -2 -15z m395 -15 c0 -2 -9 -2 -20 1 -11 3 -20 9 -20 15 0
5 9 4 20 -2 11 -6 20 -12 20 -14z m873 -3 c-7 -2 -19 -2 -25 0 -7 3 -2 5 12 5
14 0 19 -2 13 -5z m-1165 -20 c16 -16 16 -16 0 -10 -13 4 -18 1 -18 -10 0 -16
-1 -16 -16 -1 -16 16 -12 38 7 38 6 0 18 -8 27 -17z m4999 -6 c-2 -7 7 -34 20
-60 30 -58 40 -112 23 -122 -18 -11 -27 5 -33 57 -3 26 -13 58 -22 72 -18 27
-13 82 6 70 5 -3 8 -11 6 -17z m-4771 3 c16 -6 37 -22 48 -36 18 -26 18 -26
-3 -20 -11 3 -30 9 -41 12 -25 7 -26 -12 -3 -38 15 -17 15 -18 -10 -18 -14 0
-28 4 -31 9 -6 10 -117 -7 -131 -20 -5 -5 -21 -9 -35 -9 -51 0 -103 -66 -182
-227 -65 -134 -128 -229 -128 -194 0 7 12 36 26 65 14 28 41 93 60 143 49 134
76 183 131 235 94 88 216 127 299 98z m4829 -27 c4 -34 -14 -48 -32 -25 -17
23 -16 32 2 32 8 0 15 8 15 17 0 26 11 8 15 -24z m135 -8 c0 -5 -5 -3 -10 5
-5 8 -10 20 -10 25 0 6 5 3 10 -5 5 -8 10 -19 10 -25z m-4755 15 c3 -5 1 -10
-4 -10 -6 0 -11 5 -11 10 0 6 2 10 4 10 3 0 8 -4 11 -10z m4793 -172 c39 -75
73 -134 76 -130 8 7 6 -19 -3 -42 -6 -15 -10 -10 -20 25 -16 54 -49 126 -107
230 -25 44 -41 85 -37 92 4 7 9 2 14 -13 3 -14 38 -86 77 -162z m-4744 147
c-4 -8 -11 -12 -16 -9 -6 4 -5 10 3 15 19 12 19 11 13 -6z m543 -33 c38 -27
73 -99 73 -149 0 -46 -32 -101 -70 -120 -75 -38 -237 27 -256 102 -7 30 -7 30
-41 8 -21 -14 -59 -19 -178 -25 -173 -8 -387 -38 -393 -56 -5 -17 -27 -15 -42
3 -7 8 -28 15 -46 15 -29 0 -34 4 -34 23 0 13 -5 28 -11 34 -6 6 -8 20 -4 32
8 27 88 74 117 69 24 -5 23 -6 -29 -24 -11 -4 -13 -8 -6 -11 7 -2 22 2 35 9
17 9 88 13 263 14 267 2 337 13 459 75 69 35 116 35 163 1z m-727 -12 c0 -5
-2 -10 -4 -10 -3 0 -8 5 -11 10 -3 6 -1 10 4 10 6 0 11 -4 11 -10z m-795 -102
c-19 -40 -35 -78 -35 -85 0 -7 -4 -13 -10 -13 -12 0 10 58 53 138 32 59 27 33
-8 -40z m429 -65 c-7 -16 -14 -33 -14 -39 0 -6 -10 -23 -21 -38 -12 -15 -19
-30 -16 -33 4 -3 -6 -29 -20 -57 -43 -84 -37 -35 7 60 40 87 66 134 75 134 2
0 -3 -12 -11 -27z m-490 -103 c-31 -115 -46 -162 -50 -157 -6 5 28 146 45 191
18 46 21 25 5 -34z m490 -52 c4 -44 4 -45 -30 -56 -19 -5 -34 -9 -34 -8 0 2 6
16 14 32 8 16 20 42 26 58 13 36 19 31 24 -26z m399 -13 c13 -6 17 -19 17 -61
0 -53 0 -54 -52 -89 -45 -30 -61 -35 -110 -35 -49 0 -59 3 -77 26 -12 15 -21
37 -21 50 0 36 -11 56 -24 45 -8 -6 -23 -4 -44 6 -38 18 -39 24 -11 41 19 12
19 11 9 -8 -6 -11 -7 -20 -1 -20 5 0 12 7 15 16 3 8 10 13 15 9 6 -3 13 1 18
9 4 8 24 16 43 18 51 6 202 1 223 -7z m4991 -11 c3 -8 2 -12 -4 -9 -6 3 -10
10 -10 16 0 14 7 11 14 -7z m-597 -36 c30 -28 29 -48 -1 -48 -26 0 -40 13 -50
48 -10 30 19 30 51 0z m-4782 -35 c-4 -10 -11 -33 -17 -50 -12 -43 -21 -42
-16 1 2 19 1 33 -3 30 -17 -10 -70 -281 -62 -314 4 -16 1 -20 -18 -19 -17 1
-19 3 -6 6 9 2 17 9 17 14 0 6 -8 8 -17 5 -34 -9 -200 -18 -221 -11 -16 5 -22
14 -22 37 0 26 -3 30 -21 25 -13 -4 1 15 38 50 55 52 56 53 18 32 -69 -39
-125 -82 -125 -96 0 -7 -4 -13 -10 -13 -55 0 93 135 265 240 116 72 217 103
200 63z m5402 -55 c-3 -7 -5 -2 -5 12 0 14 2 19 5 13 2 -7 2 -19 0 -25z
m-6648 6 c2 -2 -57 -4 -131 -4 -75 0 -151 -2 -169 -5 l-34 -5 35 14 c27 11 65
13 165 9 72 -3 132 -7 134 -9z m7530 0 c3 -3 -30 -5 -74 -4 -44 2 -96 0 -115
-3 -90 -15 -142 -18 -135 -7 3 6 10 8 14 6 4 -3 29 1 55 7 45 12 244 13 255 1z
m-7372 0 c-3 -3 -12 -4 -19 -1 -8 3 -5 6 6 6 11 1 17 -2 13 -5z m6923 -10 c0
-2 -7 -4 -15 -4 -8 0 -15 4 -15 10 0 5 7 7 15 4 8 -4 15 -8 15 -10z m579 -6
c-10 -7 -5 -8 14 -3 21 4 34 0 50 -15 12 -11 31 -26 41 -33 18 -13 18 -14 -4
-12 -12 1 -29 10 -36 20 -8 10 -17 16 -20 12 -4 -3 -15 -2 -26 4 -11 6 -47 17
-81 25 l-62 14 58 -5 c34 -2 57 0 57 6 0 6 5 7 11 3 8 -4 7 -9 -2 -16z m-8061
-19 c-29 -9 -55 -16 -57 -14 -2 3 9 9 25 15 16 5 36 14 44 19 8 4 21 6 28 3 7
-2 -11 -13 -40 -23z m449 25 c-3 -3 -12 -4 -19 -1 -8 3 -5 6 6 6 11 1 17 -2
13 -5z m60 -10 c-3 -3 -12 -4 -19 -1 -8 3 -5 6 6 6 11 1 17 -2 13 -5z m6550
-26 c-3 -8 -6 -5 -6 6 -1 11 2 17 5 13 3 -3 4 -12 1 -19z m500 16 c-3 -3 -12
-4 -19 -1 -8 3 -5 6 6 6 11 1 17 -2 13 -5z m-7035 -51 c51 -14 109 -28 128
-30 34 -5 185 -46 225 -63 11 -4 39 -13 63 -19 24 -7 40 -16 36 -22 -8 -13
-52 -3 -128 27 -33 13 -61 22 -63 20 -7 -7 109 -57 145 -63 21 -4 32 -11 32
-22 -1 -41 -15 -40 -108 4 -110 53 -173 71 -87 25 73 -40 90 -54 92 -77 1 -10
11 -39 22 -65 29 -69 35 -113 21 -163 -12 -44 -14 -45 -52 -45 -24 0 -37 4
-33 10 4 6 -7 10 -27 10 -18 0 -74 11 -125 23 l-92 23 -3 -41 -3 -40 -52 -3
c-29 -2 -53 -6 -53 -11 0 -4 37 -18 82 -31 44 -13 116 -40 160 -61 94 -46 261
-156 279 -184 11 -18 11 -19 -5 -6 -9 8 -19 11 -23 7 -3 -3 -1 -6 5 -6 6 0 13
-8 17 -17 3 -10 27 -33 53 -52 76 -54 178 -184 397 -509 65 -95 105 -176 105
-211 0 -95 -147 -77 -394 46 -388 194 -790 542 -876 759 -13 32 -25 61 -26 63
-2 2 -22 -11 -46 -28 -38 -28 -49 -31 -112 -30 -89 1 -124 14 -179 65 -61 58
-87 117 -106 247 l-17 112 -14 -47 c-8 -27 -18 -48 -23 -48 -5 0 -6 21 -3 48
34 240 174 400 376 431 107 16 305 4 412 -26z m6937 33 c-2 -2 -22 -6 -44 -9
-27 -4 -35 -3 -25 3 14 9 79 15 69 6z m558 -24 c119 -37 206 -125 266 -265 25
-59 31 -88 33 -162 3 -90 1 -94 -11 -22 -8 51 -21 39 -28 -25 -25 -241 -219
-391 -392 -303 -54 27 -59 25 -70 -34 -25 -139 -280 -401 -599 -616 -207 -140
-420 -236 -523 -237 -100 -1 -103 29 -19 157 29 44 84 132 121 195 127 211
237 373 302 443 36 37 63 71 60 73 -3 3 -19 -2 -37 -11 -45 -23 -46 -13 -2 22
110 88 276 174 437 228 l70 24 -66 0 c-36 1 -68 4 -72 7 -3 3 1 27 8 52 8 25
13 48 11 50 -2 2 -17 -3 -33 -11 -82 -42 -168 -62 -268 -62 -123 0 -175 21
-188 76 -12 44 21 133 64 177 17 18 28 32 25 32 -4 0 -52 -16 -106 -35 -163
-56 -112 -5 73 74 73 31 56 31 -34 0 -103 -37 -120 -36 -47 2 107 54 373 137
498 154 25 4 66 11 93 17 145 31 332 31 434 0z m-8120 -13 c-14 -10 -29 -19
-34 -19 -4 0 -1 5 7 10 13 9 13 10 0 10 -22 0 4 15 30 17 20 2 20 1 -3 -18z
m7462 17 c-2 -3 -32 -11 -67 -19 -50 -12 -60 -12 -51 -1 10 12 38 18 98 22 13
1 22 0 20 -2z m-4559 -63 c51 -46 57 -133 12 -192 -18 -24 -25 -26 -91 -26
-60 0 -69 -2 -54 -12 9 -7 26 -13 37 -13 10 0 17 -3 13 -6 -3 -3 -30 0 -60 7
-39 8 -54 16 -50 25 3 8 -5 16 -20 19 -14 4 -28 13 -31 21 -3 8 -17 14 -31 14
-21 0 -25 4 -25 31 l0 31 -18 -22 c-15 -18 -22 -21 -38 -12 -24 12 -203 -2
-286 -23 -62 -17 -96 -14 -188 13 -57 18 -130 76 -130 105 0 21 82 46 175 53
75 6 246 -25 253 -46 9 -27 248 -1 347 39 28 11 74 20 102 21 44 0 58 -5 83
-27z m4267 5 c-3 -8 -6 -5 -6 6 -1 11 2 17 5 13 3 -3 4 -12 1 -19z m-7224 -8
c-10 -11 -19 -20 -21 -20 -1 0 2 9 8 20 6 11 15 20 20 20 6 0 2 -9 -7 -20z
m-47 -36 c1 -9 0 -13 -4 -10 -3 4 -7 14 -8 22 -1 9 0 13 4 10 3 -4 7 -14 8
-22z m8544 22 c0 -3 -4 -8 -10 -11 -5 -3 -10 -1 -10 4 0 6 5 11 10 11 6 0 10
-2 10 -4z m-7370 -26 c18 -12 2 -12 -25 0 -13 6 -15 9 -5 9 8 0 22 -4 30 -9z
m7319 -44 c-3 -3 -11 5 -18 17 -13 21 -12 21 5 5 10 -10 16 -20 13 -22z m44
-23 c-3 -7 -9 -11 -13 -8 -5 3 -10 0 -12 -7 -3 -8 -7 -6 -11 5 -3 9 -3 16 1
16 22 -4 31 3 26 19 -5 13 -4 14 4 3 6 -8 8 -20 5 -28z m-8620 2 c-3 -9 -8
-14 -10 -11 -3 3 -2 9 2 15 9 16 15 13 8 -4z m1377 -5 c0 -5 -5 -12 -11 -15
-5 -4 -9 -18 -7 -32 4 -35 -25 -54 -48 -32 -17 17 -11 37 24 81 13 16 42 15
42 -2z m54 -49 c3 -4 -6 -6 -19 -3 -14 2 -25 6 -25 8 0 8 39 4 44 -5z m5346
-14 c60 -40 75 -78 75 -192 0 -99 -1 -101 -48 -199 -45 -95 -132 -215 -177
-246 -12 -8 -50 -35 -84 -60 -33 -25 -85 -60 -114 -77 -59 -37 -206 -103 -227
-103 -7 0 -15 -4 -17 -10 -1 -5 -23 -12 -48 -15 l-45 -6 30 16 30 15 -40 -6
c-22 -3 -59 -14 -82 -25 -41 -18 -146 -49 -168 -49 -7 0 -17 12 -24 28 -7 15
-24 44 -38 64 l-25 37 -63 -78 c-79 -97 -135 -146 -202 -178 -62 -28 -79 -51
-138 -175 -37 -80 -158 -393 -180 -468 -4 -14 -14 -34 -21 -45 -18 -26 -18
-129 0 -144 20 -16 28 -86 16 -132 -18 -64 -62 -106 -127 -119 -65 -14 -105
-8 -149 22 -46 31 -74 78 -74 123 0 34 7 45 50 86 58 54 132 88 153 70 10 -8
14 -7 14 4 0 8 -9 17 -19 21 -21 6 -24 20 -5 27 41 16 137 272 161 432 8 50
22 108 31 130 10 22 19 48 20 58 1 11 7 22 14 27 7 4 11 10 9 13 -5 8 50 74
115 139 89 90 70 105 -47 37 -82 -47 -248 -114 -421 -168 -66 -21 -144 -48
-173 -60 -29 -11 -69 -21 -88 -21 -33 0 -36 -2 -30 -24 4 -17 -3 -34 -25 -62
-40 -51 -88 -79 -158 -93 -112 -22 -200 39 -209 144 -5 67 21 116 80 146 37
19 51 20 177 14 147 -8 208 1 342 50 173 62 260 119 299 195 28 54 82 97 148
116 31 9 64 22 72 30 12 12 10 14 -15 15 -17 1 -34 2 -40 3 -5 1 -35 5 -65 10
-50 7 -107 19 -152 32 -27 8 -22 -11 7 -26 42 -22 23 -20 -60 6 -97 31 -132
29 -330 -20 -275 -69 -328 -89 -348 -134 -6 -15 -19 -32 -27 -39 -8 -7 -10
-13 -4 -13 31 -1 -8 -70 -40 -70 -6 0 0 7 12 16 25 17 31 47 7 38 -8 -4 -12
-10 -9 -15 3 -5 -1 -6 -9 -3 -8 3 -33 -5 -56 -17 -34 -17 -52 -20 -93 -16 -27
4 -56 11 -64 18 -7 6 -18 8 -24 4 -5 -3 -10 0 -11 7 0 7 -4 4 -8 -6 -7 -17 -9
-17 -29 9 -49 62 -37 150 28 209 46 41 38 49 -10 10 -42 -36 -70 -94 -70 -148
l0 -45 -55 -11 c-30 -6 -55 -15 -55 -19 0 -10 -46 -31 -66 -31 -8 0 -12 5 -9
10 3 6 0 10 -8 10 -8 0 -33 19 -56 41 -22 23 -41 36 -41 30 0 -5 -7 -8 -15 -5
-9 4 -15 0 -15 -10 0 -9 4 -16 8 -16 5 0 13 -16 19 -35 6 -19 10 -35 8 -35 -1
0 -19 7 -40 16 -20 8 -41 14 -47 12 -13 -5 63 -55 111 -74 36 -14 35 -14 -27
-9 -74 7 -112 19 -129 42 -12 16 -13 15 -13 -1 0 -24 54 -44 169 -61 55 -8
115 -22 134 -30 59 -24 176 -43 305 -48 68 -3 125 -7 128 -10 2 -2 -6 -24 -20
-48 -23 -43 -43 -108 -48 -159 -3 -29 -48 -44 -48 -16 0 9 -4 16 -10 16 -22 0
-8 -29 39 -80 27 -29 54 -70 60 -90 11 -38 54 -69 98 -71 12 0 13 -2 4 -6 -10
-4 -10 -7 -1 -13 6 -4 -10 -10 -38 -14 -77 -10 -75 -33 2 -28 66 4 163 41 172
66 6 15 126 76 150 76 8 0 14 7 14 15 0 8 6 15 13 15 22 -1 226 83 231 95 2 7
-6 10 -25 7 -26 -4 -29 -2 -26 19 4 22 9 24 53 23 60 -2 114 -21 114 -41 0
-15 -65 -83 -121 -126 -66 -50 -198 -107 -280 -122 -85 -14 -173 -56 -238
-111 -21 -19 -49 -34 -62 -34 -12 0 -20 -2 -17 -5 3 -3 31 -6 62 -6 31 -1 56
-5 56 -9 0 -12 -117 -30 -191 -30 -48 1 -60 3 -47 11 10 5 43 10 75 10 40 1
52 4 40 10 -22 13 -115 0 -133 -19 -11 -11 -44 -16 -121 -18 -93 -3 -136 0
-295 21 -36 5 -162 51 -218 80 -23 12 -42 51 -39 81 0 4 -5 11 -13 15 -9 6 -7
9 10 9 46 0 20 17 -35 22 -71 7 -171 46 -228 90 -23 18 -63 61 -90 95 -26 35
-52 63 -56 63 -15 0 -10 41 16 160 27 120 44 159 77 168 15 4 17 7 6 13 -10 7
-10 9 3 9 9 0 35 28 58 63 31 44 35 53 14 32 -15 -17 -36 -41 -46 -55 l-18
-25 7 25 c8 34 59 85 103 106 20 9 58 32 84 51 26 18 66 41 88 49 46 19 47 28
1 15 -18 -5 -32 -8 -32 -6 0 25 248 87 395 99 98 9 127 15 119 28 -6 10 10 9
186 -11 52 -6 136 -12 185 -13 86 -1 115 -8 115 -31 0 -6 -34 -7 -101 -3 -62
4 -99 3 -95 -2 5 -9 20 -12 122 -28 31 -5 71 3 175 34 74 22 195 57 269 77
l134 37 111 -16 c62 -9 167 -16 236 -16 68 0 173 -7 233 -16 103 -15 113 -15
175 2 63 17 70 22 231 178 245 238 380 332 577 402 55 19 88 24 174 24 94 0
110 -3 139 -23z m-3946 -22 c8 -8 20 -15 27 -15 7 0 10 -2 7 -5 -10 -10 -68 8
-68 21 0 18 15 18 34 -1z m-2852 -177 c-2 -65 -8 -116 -12 -113 -4 2 -5 39 -3
82 3 57 1 74 -6 63 -13 -19 -14 -6 -2 18 6 9 13 30 16 46 10 47 12 27 7 -96z
m1728 98 c0 -3 -4 -8 -10 -11 -5 -3 -10 -1 -10 4 0 6 5 11 10 11 6 0 10 -2 10
-4z m-222 -38 c-2 -16 -10 -22 -30 -23 -17 0 -28 5 -28 12 0 7 9 13 20 13 11
0 20 5 20 10 0 6 5 10 11 10 6 0 9 -10 7 -22z m7179 -30 c-3 -8 -6 -5 -6 6 -1
11 2 17 5 13 3 -3 4 -12 1 -19z m-5886 -25 c13 -16 12 -17 -3 -4 -17 13 -22
21 -14 21 2 0 10 -8 17 -17z m5895 -40 c-10 -10 -19 5 -10 18 6 11 8 11 12 0
2 -7 1 -15 -2 -18z m-5599 -19 c-3 -3 -12 -4 -19 -1 -8 3 -5 6 6 6 11 1 17 -2
13 -5z m418 -4 c-3 -5 -16 -15 -28 -21 -21 -10 -21 -9 2 10 25 23 36 27 26 11z
m-632 -87 c-7 -2 -21 -2 -30 0 -10 3 -4 5 12 5 17 0 24 -2 18 -5z m332 -24
c-50 -10 -142 -10 -175 1 -15 5 21 8 95 8 89 0 110 -2 80 -9z m5452 -51 c-3
-8 -6 -5 -6 6 -1 11 2 17 5 13 3 -3 4 -12 1 -19z m-8637 -9 c0 -6 -4 -7 -10
-4 -5 3 -10 11 -10 16 0 6 5 7 10 4 6 -3 10 -11 10 -16z m6954 -35 c3 -8 2
-12 -4 -9 -6 3 -10 10 -10 16 0 14 7 11 14 -7z m-6946 -25 c-6 -4 -7 -12 -4
-18 4 -6 2 -11 -3 -11 -13 0 -13 6 -4 38 4 17 8 20 14 11 4 -8 3 -16 -3 -20z
m8604 -11 c-8 -8 -9 -4 -5 13 4 13 8 18 11 10 2 -7 -1 -18 -6 -23z m-1672 14
c0 -4 -9 -13 -20 -20 -19 -12 -20 -11 -8 8 13 20 28 27 28 12z m-6905 -51 c-3
-5 1 -11 7 -14 7 -3 3 -4 -9 -4 -16 1 -19 5 -14 17 5 8 6 22 4 30 -3 10 0 9 7
-3 6 -9 9 -21 5 -26z m4562 -14 c29 -14 39 -23 30 -29 -11 -7 -197 -1 -205 7
-8 8 12 28 42 41 36 16 73 10 133 -19z m-4597 13 c0 -5 -4 -10 -10 -10 -5 0
-10 5 -10 10 0 6 5 10 10 10 6 0 10 -4 10 -10z m74 -55 c4 -13 2 -14 -14 -5
-23 13 -26 20 -6 20 8 0 16 -7 20 -15z m8509 -25 c3 6 4 5 3 -2 -1 -7 -14 -13
-29 -13 -23 -2 -25 0 -15 18 10 19 11 20 23 3 8 -10 15 -13 18 -6z m-8487 -12
c4 -7 3 -8 -4 -4 -7 4 -12 1 -12 -8 0 -8 -5 -18 -12 -22 -6 -4 -9 -3 -6 2 3 5
8 17 11 27 7 20 13 21 23 5z m33 -53 c11 -19 16 -35 11 -35 -6 0 -10 4 -10 9
0 12 -33 9 -43 -4 -5 -6 -7 -4 -4 5 2 8 12 14 21 12 14 -3 16 0 7 17 -24 45
-9 41 18 -4z m6451 -26 c12 -8 10 -9 -9 -4 -16 5 -21 4 -17 -4 4 -6 2 -11 -4
-11 -7 0 -25 -9 -42 -21 -16 -12 -31 -19 -33 -17 -4 4 74 66 85 67 3 0 12 -4
20 -10z m-6406 -59 c11 -23 12 -29 3 -18 -8 10 -16 16 -18 14 -2 -3 -5 7 -5
20 -2 30 -1 29 20 -16z m8325 19 c1 8 4 12 7 8 3 -3 1 -14 -5 -24 -7 -13 -10
-14 -11 -3 0 11 -3 11 -12 2 -10 -10 -10 -15 2 -23 13 -9 13 -10 -2 -6 -11 4
-18 -2 -23 -20 -3 -14 -8 -23 -11 -20 -3 3 5 29 17 57 19 43 24 49 30 34 5
-12 8 -13 8 -5z m-3547 1 c26 -12 68 -79 68 -109 0 -19 -5 -20 -82 -18 -84 3
-157 27 -166 55 -2 7 0 12 5 11 20 -4 34 2 28 11 -4 6 -11 8 -16 4 -11 -7 -83
16 -75 24 9 9 127 30 173 31 23 1 52 -4 65 -9z m-4743 -90 c11 -24 11 -24 -3
-6 -9 11 -16 24 -16 30 0 12 5 7 19 -24z m4367 4 c8 -32 -6 -43 -61 -46 -22
-1 -47 -2 -55 -4 -8 -1 -21 -2 -29 -3 -11 -1 -11 -4 -1 -15 10 -13 8 -13 -13
-3 l-25 11 27 23 c14 13 30 23 34 23 5 0 23 6 40 14 71 32 75 32 83 0z m3838
-67 c-8 -23 -24 -49 -37 -56 -21 -13 -21 -13 -5 5 10 11 24 36 33 57 21 50 27
47 9 -6z m-8176 8 c-3 -3 -9 2 -12 12 -6 14 -5 15 5 6 7 -7 10 -15 7 -18z
m4461 -40 c0 -5 9 -12 20 -17 13 -4 24 -20 27 -38 7 -30 18 -38 29 -20 8 13
25 13 25 0 0 -5 -17 -18 -37 -28 l-38 -19 -25 23 c-30 29 -44 31 -30 4 14 -26
4 -42 -23 -39 -12 1 -30 -2 -40 -6 -23 -10 -190 5 -203 18 -13 13 70 113 110
132 36 18 49 19 113 10 40 -5 72 -14 72 -20z m3741 15 c0 -5 -4 -10 -10 -10
-5 0 -10 5 -10 10 0 6 5 10 10 10 6 0 10 -4 10 -10z m900 -160 l0 -40 -40 0
-40 0 0 40 0 40 40 0 40 0 0 -40z m-1020 27 c0 -2 -10 -12 -22 -23 l-23 -19
19 23 c18 21 26 27 26 19z m-11 -50 c-2 -1 -11 -8 -21 -15 -12 -10 -18 -10
-24 -1 -4 7 -3 9 4 5 6 -3 13 -2 17 4 3 5 11 10 17 10 6 0 9 -1 7 -3z m-39
-50 c0 -8 -3 -8 -9 2 -6 9 -11 10 -15 2 -4 -6 -13 -11 -19 -11 -7 0 -3 7 7 15
20 15 36 12 36 -8z m-7856 -38 c-3 -5 -10 -7 -15 -3 -5 3 -7 10 -3 15 3 5 10
7 15 3 5 -3 7 -10 3 -15z m5568 -46 c-16 -21 -40 -57 -53 -81 -13 -23 -30 -41
-38 -40 -7 2 -20 20 -28 41 -15 36 -14 38 8 57 13 11 40 24 59 30 19 5 42 14
50 20 30 20 31 9 2 -27z m2151 -35 c-11 -13 -18 -29 -15 -37 3 -10 0 -12 -12
-8 -10 4 -16 1 -16 -7 0 -8 6 -16 13 -19 6 -3 2 -4 -10 -4 -32 2 -29 15 14 59
40 41 60 53 26 16z m-3183 -8 c-20 -13 -33 -13 -25 0 3 6 14 10 23 10 15 0 15
-2 2 -10z m-60 -9 c0 -5 -7 -11 -15 -15 -15 -5 -20 5 -8 17 9 10 23 9 23 -2z
m-4317 -35 c3 3 4 -2 3 -12 -2 -10 -9 -20 -17 -22 -11 -3 -11 -1 1 7 13 9 8
15 -11 13 -3 -1 -6 6 -6 13 0 10 4 12 12 5 7 -5 14 -7 18 -4z m5265 -10 c3
-15 -1 -17 -20 -11 -32 10 -35 15 -18 25 20 13 34 7 38 -14z m-5207 -23 l24
-28 -26 23 c-14 12 -29 19 -32 15 -4 -3 -7 -1 -7 5 0 20 15 14 41 -15z m5186
-7 c15 -9 36 -18 46 -22 34 -12 17 -26 -25 -20 l-43 6 34 -16 c34 -15 42 -14
72 7 13 10 32 4 100 -29 114 -56 208 -142 250 -229 36 -76 50 -119 41 -128 -4
-4 -7 -27 -7 -53 0 -36 -4 -47 -17 -50 -11 -2 -18 3 -18 11 0 29 -28 27 -40
-3 -6 -15 -21 -37 -33 -48 -25 -22 -51 -34 -264 -122 -15 -6 -21 -15 -17 -25
3 -8 2 -15 -4 -15 -6 0 -19 -3 -29 -7 -15 -6 -16 -4 -6 9 11 13 9 15 -11 14
-13 -1 -30 -7 -37 -13 -8 -6 -24 -14 -36 -17 -39 -12 -25 -22 33 -23 35 -1 72
6 101 18 24 10 56 19 69 19 14 0 41 7 62 16 20 10 42 18 47 19 6 0 27 9 47 18
45 20 78 22 78 4 0 -24 -58 -94 -103 -126 -39 -27 -59 -32 -158 -42 -63 -7
-116 -14 -118 -16 -2 -1 1 -9 7 -16 9 -11 4 -17 -26 -29 -41 -18 -107 -26
-118 -15 -4 4 -41 7 -83 7 -42 1 -121 5 -176 10 -55 5 -136 12 -180 16 -111 8
-112 8 -83 47 32 42 80 149 80 179 0 13 -1 44 -2 70 -1 27 2 54 8 60 5 7 13
24 17 38 4 14 18 39 30 56 23 30 26 31 130 37 93 6 158 17 270 47 30 8 30 8
-7 9 -21 1 -38 5 -38 10 0 5 21 28 46 51 35 32 43 45 33 51 -8 5 -17 9 -21 9
-5 0 -8 7 -8 15 0 19 -9 19 -34 0 -10 -8 -23 -12 -27 -9 -5 3 -9 0 -9 -5 0
-16 -33 -13 -56 4 -12 9 -31 12 -50 9 -34 -6 -35 -4 -66 98 l-15 47 71 11 c52
9 77 18 94 36 13 13 32 24 42 24 11 0 20 5 20 11 0 16 101 5 137 -15z m-270 8
c-3 -3 -12 -4 -19 -1 -8 3 -5 6 6 6 11 1 17 -2 13 -5z m2482 -17 c-2 -1 -13
-9 -24 -17 -19 -14 -19 -14 -6 3 7 9 18 17 24 17 6 0 8 -1 6 -3z m-7374 -19
c5 4 5 1 1 -5 -4 -7 -5 -13 -2 -13 2 0 12 -3 22 -7 12 -4 15 -3 10 5 -11 18 0
14 15 -5 7 -10 10 -15 5 -11 -4 4 -18 3 -31 -2 -17 -6 -27 -5 -35 6 -7 7 -9
14 -5 14 4 0 1 8 -6 18 -12 15 -12 16 2 5 9 -7 20 -9 24 -5z m4435 -28 c0 -11
-7 -20 -15 -20 -27 0 -18 30 13 39 1 1 2 -8 2 -19z m2887 5 c0 -8 -4 -12 -9
-9 -5 3 -6 10 -3 15 9 13 12 11 12 -6z m-7216 -52 c13 -15 12 -15 -8 -4 -24
12 -29 21 -14 21 5 0 15 -7 22 -17z m41 -27 c7 4 8 2 4 -4 -4 -6 -13 -9 -21
-6 -8 4 -12 11 -8 17 5 8 8 7 11 -1 2 -7 9 -9 14 -6z m2213 -9 c-22 -17 -14
-33 20 -39 28 -6 29 -4 15 23 -19 34 -3 20 32 -28 55 -77 55 -79 17 -57 -43
26 -89 38 -89 24 0 -5 6 -10 13 -10 8 0 34 -14 57 -31 l44 -32 -22 -18 c-12
-9 -28 -20 -35 -22 -13 -6 -12 -7 34 -40 20 -15 22 -19 9 -27 -12 -8 -11 -10
6 -10 11 0 31 -11 43 -24 35 -37 83 -56 180 -72 105 -18 388 -44 456 -43 30 1
68 -7 95 -18 71 -31 296 -49 393 -31 32 6 39 4 53 -17 9 -14 12 -33 9 -48 -8
-29 -65 -97 -82 -97 -6 0 -17 16 -24 35 -7 19 -17 35 -21 35 -13 0 -9 -38 5
-43 9 -4 8 -8 -3 -16 -12 -9 -13 -11 -1 -11 8 0 -7 -11 -34 -25 -27 -13 -52
-22 -56 -19 -4 2 -18 0 -31 -5 -13 -5 -50 -15 -83 -21 -69 -14 -115 -29 -130
-42 -11 -10 -1 -9 114 18 58 13 78 14 93 5 13 -8 24 -8 38 -1 11 6 26 8 32 4
7 -4 8 -3 4 4 -8 14 24 32 58 32 13 0 53 15 88 33 60 31 98 37 98 16 0 -23
-23 -50 -73 -83 -28 -20 -69 -51 -91 -71 -66 -62 -207 -113 -339 -122 l-77 -6
8 24 c7 18 20 26 53 32 45 9 65 25 50 40 -10 10 -73 -9 -106 -30 -11 -7 -26
-13 -33 -13 -8 0 -28 -6 -45 -14 -138 -62 -360 -100 -464 -78 -118 24 -327 94
-421 140 -139 68 -166 87 -207 144 l-37 51 29 -7 c28 -7 50 -17 188 -88 39
-20 93 -42 120 -48 28 -6 66 -20 85 -30 55 -29 125 -34 210 -15 41 10 113 23
160 29 l85 12 -90 7 c-49 4 -153 10 -230 12 -162 6 -233 13 -241 26 -3 5 -13
9 -23 9 -10 0 -35 11 -55 25 -21 14 -41 23 -46 20 -4 -3 -10 -2 -12 3 -4 9
-100 57 -110 54 -4 -1 -5 4 -2 12 3 8 -6 18 -24 25 -50 21 -98 106 -90 160 3
20 1 28 -8 24 -10 -4 -11 2 -3 29 6 18 13 42 16 53 18 56 94 140 185 203 75
51 310 137 243 89z m4855 9 c0 -2 -8 -10 -17 -17 -16 -13 -17 -12 -4 4 13 16
21 21 21 13z m-7000 -57 c0 -14 -5 -11 -31 17 l-24 27 28 -18 c15 -9 27 -21
27 -26z m-50 11 c0 -5 -2 -10 -4 -10 -3 0 -8 5 -11 10 -3 6 -1 10 4 10 6 0 11
-4 11 -10z m6995 -9 c3 -5 0 -13 -6 -17 -8 -5 -9 -3 -4 6 6 10 4 12 -9 7 -10
-4 -15 -3 -11 3 8 13 22 13 30 1z m-2735 -11 c0 -5 -5 -10 -11 -10 -5 0 -7 5
-4 10 3 6 8 10 11 10 2 0 4 -4 4 -10z m-4270 -10 c0 -5 -7 -10 -16 -10 -8 0
-12 5 -9 10 3 6 10 10 16 10 5 0 9 -4 9 -10z m4260 -24 c0 -12 -44 -33 -110
-51 l-25 -7 24 25 c13 14 31 26 40 26 23 0 49 6 57 14 11 10 14 9 14 -7z
m2660 0 c0 -2 -8 -10 -17 -17 -16 -13 -17 -12 -4 4 13 16 21 21 21 13z m-6764
-31 c-11 -8 -15 -15 -9 -15 6 0 10 -7 9 -15 -2 -17 -16 -32 -17 -19 0 5 -2 17
-4 26 -2 10 4 22 13 28 25 14 30 11 8 -5z m3784 -18 c0 -15 -41 -56 -80 -80
-14 -9 -72 -25 -130 -37 -58 -12 -114 -24 -125 -27 -20 -5 -20 -5 0 16 12 12
43 25 74 31 30 6 62 16 70 24 9 7 36 21 61 30 25 9 56 26 70 36 29 23 60 26
60 7z m-3748 -17 c-10 -12 -18 -16 -21 -9 -2 6 3 15 10 20 24 15 29 10 11 -11z
m4056 13 c-23 -48 -33 -63 -44 -63 -7 0 -14 -4 -16 -10 -1 -5 -34 -31 -73 -57
-57 -39 -71 -54 -73 -78 -3 -37 -22 -85 -32 -85 -5 0 -13 -14 -19 -31 -10 -30
-13 -31 -51 -26 -31 4 -50 16 -90 57 -45 46 -48 52 -30 57 11 3 20 9 20 13 0
11 99 62 109 56 5 -3 44 28 86 68 68 65 84 75 125 81 25 3 52 10 60 16 18 11
32 12 28 2z m2614 -15 c-6 -6 -25 -12 -44 -14 -22 -3 -28 -1 -19 5 8 5 21 7
29 3 10 -3 13 -1 8 6 -5 8 -1 10 10 5 13 -5 15 -3 9 7 -6 9 -4 11 4 5 9 -5 9
-11 3 -17z m-6606 -4 c18 -15 18 -15 -2 -5 -12 6 -24 7 -28 4 -3 -3 -6 -1 -6
5 0 16 12 15 36 -4z m6649 -4 c3 -6 -1 -7 -9 -4 -18 7 -21 14 -7 14 6 0 13 -4
16 -10z m-4415 -26 c0 -2 -8 0 -19 5 -10 6 -22 7 -26 3 -5 -4 -5 -1 -1 6 5 9
12 9 27 2 10 -6 19 -13 19 -16z m4275 -4 c-3 -5 -12 -10 -18 -10 -7 0 -6 4 3
10 19 12 23 12 15 0z m-6440 -9 c3 -5 0 -13 -6 -17 -8 -5 -9 -3 -4 6 6 10 4
12 -9 7 -10 -4 -15 -3 -11 3 8 13 22 13 30 1z m55 -25 c0 -3 -4 -8 -10 -11 -5
-3 -10 -1 -10 4 0 6 5 11 10 11 6 0 10 -2 10 -4z m-337 -33 c-7 -2 -21 -2 -30
0 -10 3 -4 5 12 5 17 0 24 -2 18 -5z m4 -19 c-3 -3 -12 -4 -19 -1 -8 3 -5 6 6
6 11 1 17 -2 13 -5z m3733 -24 c-20 -13 -33 -13 -25 0 3 6 14 10 23 10 15 0
15 -2 2 -10z m3287 4 c-3 -3 -12 -4 -19 -1 -8 3 -5 6 6 6 11 1 17 -2 13 -5z
m-4068 -20 c13 -11 -8 -10 -34 2 l-30 13 30 -6 c17 -3 32 -7 34 -9z m4146 -4
c3 -5 1 -10 -4 -10 -6 0 -11 5 -11 10 0 6 2 10 4 10 3 0 8 -4 11 -10z m-7290
-30 c-3 -5 -11 -10 -16 -10 -6 0 -7 5 -4 10 3 6 11 10 16 10 6 0 7 -4 4 -10z
m7389 1 c4 -5 -3 -7 -14 -4 -23 6 -26 13 -6 13 8 0 17 -4 20 -9z m-7439 -21
c-11 -5 -29 -9 -40 -9 -17 -1 -17 1 -5 9 8 5 26 9 40 9 23 0 23 -1 5 -9z
m3718 3 c-13 -2 -33 -2 -45 0 -13 2 -3 4 22 4 25 0 35 -2 23 -4z m-3786 -19
c-3 -3 -12 -4 -19 -1 -8 3 -5 6 6 6 11 1 17 -2 13 -5z m7663 -4 c-19 -13 -30
-13 -30 0 0 6 10 10 23 10 18 0 19 -2 7 -10z m-7710 -14 c0 -2 -9 -6 -20 -9
-11 -3 -18 -1 -14 4 5 9 34 13 34 5z m7805 -26 c8 -13 -5 -13 -25 0 -13 8 -13
10 2 10 9 0 20 -4 23 -10z m40 -20 c3 -5 2 -10 -4 -10 -5 0 -13 5 -16 10 -3 6
-2 10 4 10 5 0 13 -4 16 -10z m-3730 -70 c3 -5 1 -10 -4 -10 -6 0 -11 5 -11
10 0 6 2 10 4 10 3 0 8 -4 11 -10z m3916 -27 c13 -17 13 -17 -6 -3 -11 8 -22
16 -24 17 -2 2 0 3 6 3 6 0 17 -8 24 -17z m-2176 -12 c3 -5 1 -12 -5 -16 -5
-3 -10 1 -10 9 0 18 6 21 15 7z m-1600 -60 c21 -42 75 -90 110 -99 17 -5 28
-12 25 -16 -3 -5 6 -13 20 -18 14 -6 20 -12 13 -15 -7 -2 -23 3 -35 11 -12 9
-28 16 -35 16 -7 0 -37 9 -68 21 -45 17 -59 28 -75 59 -25 50 -25 58 3 63 12
2 23 5 24 6 1 0 9 -12 18 -28z m1595 -117 c-16 -38 -41 -70 -87 -114 -63 -59
-113 -95 -99 -71 5 7 1 9 -8 5 -9 -3 -14 -9 -11 -14 6 -9 -136 -75 -195 -90
-25 -6 -69 -18 -97 -26 -151 -43 -558 -62 -738 -35 -187 27 -229 37 -183 45 7
1 22 7 33 14 19 12 18 12 -5 6 -14 -3 -22 -3 -17 2 4 4 -32 24 -80 43 -129 53
-188 87 -214 122 -17 24 -20 36 -12 48 17 27 50 24 97 -8 25 -17 55 -31 68
-30 22 0 23 0 2 9 -12 4 -24 16 -28 25 -5 15 -2 16 31 10 21 -4 44 -8 51 -8 6
0 12 -6 12 -14 0 -8 13 -13 38 -13 l37 -1 -27 -17 c-16 -9 -28 -20 -28 -25 0
-13 43 3 63 24 10 11 19 19 21 19 2 0 34 -11 70 -25 52 -20 86 -25 154 -25 48
-1 113 -7 145 -14 37 -9 55 -11 50 -3 -4 6 0 8 10 4 9 -3 18 -1 20 6 3 9 7 9
18 0 9 -7 46 -10 99 -8 65 2 75 1 40 -5 -25 -5 -73 -9 -107 -11 -34 -1 -60 -6
-57 -11 8 -13 120 -9 209 7 195 36 226 40 235 25 10 -16 51 -1 109 40 70 51
95 60 154 54 51 -5 58 -3 91 26 19 17 45 47 57 67 18 29 19 37 8 44 -8 5 -20
7 -26 4 -7 -2 -13 0 -13 5 0 6 13 9 29 8 16 -1 28 -5 25 -9 -2 -4 4 -7 15 -6
11 1 18 3 16 5 -8 8 16 43 26 37 5 -4 10 2 11 12 1 10 3 -4 5 -31 3 -34 -2
-65 -17 -102z m2270 116 c0 -6 -9 -2 -20 7 -11 10 -20 19 -20 21 0 1 9 -2 20
-8 11 -6 20 -15 20 -20z m-7304 11 c-3 -5 4 -11 15 -14 24 -6 17 -27 -9 -27
-10 0 -67 -16 -127 -36 -61 -19 -126 -36 -146 -37 -21 -1 -35 -5 -33 -9 6 -9
-325 -85 -431 -98 -49 -6 -94 -15 -100 -20 -21 -17 -121 -51 -174 -59 l-56 -9
47 -1 c27 0 75 8 108 20 33 11 65 19 71 17 16 -5 -183 -118 -209 -118 -62 0
-132 58 -132 109 0 43 29 123 53 149 64 70 161 79 293 27 50 -20 107 -35 130
-35 22 0 166 31 320 69 153 39 290 72 304 74 46 8 81 7 76 -2z m368 -27 c21
-8 20 -16 -6 -46 -23 -24 -114 -72 -163 -84 -24 -6 -43 -27 -43 -49 -1 -10
-123 -61 -217 -91 -27 -8 -59 -19 -70 -24 -87 -40 -395 -119 -486 -125 -65 -4
-212 -71 -189 -85 9 -6 -5 -17 -47 -39 -43 -21 -81 -53 -133 -110 -87 -97
-129 -117 -222 -107 -208 21 -284 214 -120 304 52 29 148 40 200 23 33 -11 46
-10 112 12 41 14 166 48 277 76 259 65 359 97 568 183 375 155 478 185 539
162z m5419 -23 c100 -35 232 -91 482 -206 177 -82 255 -112 600 -233 121 -42
136 -45 225 -44 52 0 111 -3 130 -8 38 -10 100 -61 100 -82 -1 -8 -6 -6 -15 6
-17 23 -20 14 -4 -15 5 -11 14 -17 20 -14 12 8 12 -57 -2 -92 -40 -106 -221
-168 -323 -110 -24 13 -61 52 -95 99 -63 87 -113 129 -221 183 -41 21 -77 40
-80 44 -16 19 -105 54 -255 101 -93 28 -212 72 -263 96 -52 24 -97 44 -102 44
-5 0 -10 4 -12 9 -1 5 -69 43 -151 85 -81 42 -158 83 -171 92 -50 32 -39 74
20 74 19 0 71 -13 117 -29z m-2978 -11 c-3 -5 -11 -10 -16 -10 -6 0 -7 5 -4
10 3 6 11 10 16 10 6 0 7 -4 4 -10z m3404 -2 c28 -6 51 -15 51 -19 0 -4 -19
-1 -43 6 -23 7 -51 15 -62 18 -42 10 6 6 54 -5z m-1279 -28 c-15 -28 -94 -70
-144 -76 -26 -4 -46 -3 -46 1 0 13 34 34 57 35 27 0 114 37 112 47 -3 17 2 22
16 17 11 -4 12 -11 5 -24z m-4385 3 c43 -42 -15 -131 -144 -223 -265 -189
-339 -239 -416 -286 -46 -29 -94 -63 -107 -77 -18 -20 -30 -24 -53 -19 -27 5
-29 4 -16 -12 8 -9 15 -31 17 -49 1 -17 7 -33 13 -35 19 -6 12 -57 -16 -113
-40 -78 -90 -104 -198 -104 -69 1 -87 5 -135 30 -101 55 -129 141 -69 210 42
48 71 62 155 73 90 13 235 81 325 154 36 29 120 104 187 167 143 134 377 301
424 301 9 0 24 -7 33 -17z m690 -14 c-4 -11 -2 -19 5 -19 6 0 8 6 5 13 -4 6 9
-6 28 -28 33 -38 41 -69 12 -45 -11 9 -12 7 -8 -9 3 -11 15 -23 27 -27 11 -4
55 -29 96 -55 46 -30 94 -52 125 -58 27 -6 78 -15 112 -22 61 -11 118 -39 111
-55 -2 -4 11 -11 27 -15 17 -4 57 -15 90 -24 56 -16 62 -16 92 0 24 13 44 16
80 11 123 -17 328 -24 357 -13 15 6 16 10 6 22 -11 13 -4 15 52 15 35 0 106 9
158 20 51 12 99 19 106 16 7 -3 14 0 16 6 3 7 16 5 37 -7 22 -11 30 -20 23
-27 -5 -5 -76 -16 -156 -24 -104 -10 -159 -20 -189 -34 l-42 -20 35 6 c19 3
60 9 90 15 30 5 85 9 122 9 37 0 90 5 118 11 66 14 145 66 145 96 0 13 5 24
10 25 4 2 22 16 38 32 27 27 31 28 42 13 9 -13 18 -15 42 -8 27 8 32 6 42 -16
7 -14 14 -23 18 -20 3 4 0 13 -6 21 -8 10 -9 16 -1 21 5 3 10 -1 10 -9 0 -9 4
-16 10 -16 5 0 6 -7 3 -17 -5 -12 -3 -14 8 -9 11 6 10 4 -1 -6 -8 -7 -16 -20
-18 -28 -5 -24 -65 -81 -79 -76 -7 3 -12 2 -12 -2 4 -23 -3 -34 -17 -28 -8 3
-12 2 -9 -4 7 -11 -103 -68 -205 -104 -207 -75 -555 -106 -849 -76 -269 28
-522 128 -644 255 -71 75 -102 138 -101 210 1 66 18 120 34 110 6 -4 8 -15 5
-26z m4335 -21 c125 -84 138 -94 191 -137 30 -25 86 -75 124 -111 39 -37 115
-103 170 -146 170 -135 233 -170 335 -184 83 -12 118 -28 154 -70 44 -54 46
-93 6 -158 -50 -81 -234 -116 -330 -62 -50 28 -85 84 -96 155 -5 38 -3 43 41
88 48 49 52 58 11 31 -23 -14 -26 -13 -58 14 -18 16 -69 55 -113 87 -44 32
-114 86 -155 119 -41 34 -129 97 -195 141 -184 121 -239 187 -214 252 13 36
56 30 129 -19z m915 -12 c315 -78 313 -77 479 -20 110 38 144 38 207 -2 54
-34 82 -79 87 -139 4 -44 1 -55 -22 -82 -45 -53 -125 -83 -122 -46 0 10 -8 19
-19 21 -11 3 -24 10 -30 17 -15 19 -181 81 -252 95 -35 6 -139 36 -233 66
-124 40 -170 59 -170 70 0 9 -8 18 -17 20 -10 3 -36 14 -58 24 -49 23 -36 21
150 -24z m-1765 -36 c-8 -5 -22 -9 -30 -9 -10 0 -8 3 5 9 27 12 43 12 25 0z
m-60 -20 c-8 -5 -24 -9 -35 -9 l-20 0 20 9 c11 5 27 9 35 9 13 1 13 0 0 -9z
m2789 -59 c6 -29 6 -40 -3 -38 -6 1 -14 18 -17 37 -3 19 -10 44 -14 55 -8 19
-8 19 8 3 9 -9 21 -34 26 -57z m-2841 34 c-2 -3 -20 -7 -39 -9 -19 -3 -47 -9
-62 -15 -35 -14 -95 -15 -81 -2 5 5 36 14 69 18 69 10 119 14 113 8z m32 -15
c-28 -21 -63 -34 -54 -19 5 8 60 36 74 38 3 0 -6 -8 -20 -19z m-6002 -46 c-14
-49 -5 -88 27 -120 13 -13 20 -24 14 -24 -6 0 -7 -5 -3 -12 5 -7 3 -8 -5 -4
-7 5 -10 11 -7 14 3 3 -3 11 -14 19 -11 8 -20 20 -20 27 0 8 -10 12 -24 11
-18 -2 -23 1 -19 11 4 10 9 12 18 4 9 -8 12 -1 13 27 0 37 18 100 27 92 2 -2
-1 -22 -7 -45z m-18 26 c0 -5 -4 -10 -10 -10 -5 0 -10 5 -10 10 0 6 5 10 10
10 6 0 10 -4 10 -10z m5528 3 c-10 -2 -26 -2 -35 0 -10 3 -2 5 17 5 19 0 27
-2 18 -5z m3312 -73 c0 -5 -4 -10 -10 -10 -5 0 -10 5 -10 10 0 6 5 10 10 10 6
0 10 -4 10 -10z m-4665 -30 c3 -5 1 -10 -4 -10 -6 0 -11 5 -11 10 0 6 2 10 4
10 3 0 8 -4 11 -10z m4248 -90 c-4 -4 -66 25 -90 43 -7 5 -10 13 -7 18 2 5 27
-6 53 -24 27 -17 46 -34 44 -37z m-5120 53 c-7 -2 -19 -2 -25 0 -7 3 -2 5 12
5 14 0 19 -2 13 -5z m-38 -13 c7 -12 -32 -12 -60 0 -16 7 -13 9 17 9 20 1 40
-3 43 -9z m105 0 c12 -8 11 -10 -7 -10 -12 0 -25 5 -28 10 -8 13 15 13 35 0z
m-57 -7 c-7 -2 -19 -2 -25 0 -7 3 -2 5 12 5 14 0 19 -2 13 -5z m-3301 -53
c-50 -30 -85 -88 -90 -147 -2 -29 -7 -53 -11 -53 -15 1 -35 20 -28 27 5 4 12
1 17 -7 8 -12 10 -10 10 8 0 14 -6 22 -17 23 -17 1 -17 2 -1 6 10 2 20 18 24
39 3 19 10 34 15 34 5 0 9 5 9 12 0 12 59 68 72 68 4 0 7 3 7 8 -3 19 2 26 10
12 7 -10 3 -18 -17 -30z m4945 34 c-3 -3 -12 -4 -19 -1 -8 3 -5 6 6 6 11 1 17
-2 13 -5z m3720 -46 c-3 -8 -6 -5 -6 6 -1 11 2 17 5 13 3 -3 4 -12 1 -19z
m-27 2 c0 -5 -4 -10 -10 -10 -5 0 -10 5 -10 10 0 6 5 10 10 10 6 0 10 -4 10
-10z m-8 -30 c35 -32 32 -40 -7 -14 -20 13 -42 44 -30 44 2 0 19 -13 37 -30z
m35 4 c-3 -3 -12 -4 -19 -1 -8 3 -5 6 6 6 11 1 17 -2 13 -5z m45 -49 c4 -21 3
-23 -14 -14 -15 8 -16 12 -6 24 7 8 14 14 14 15 1 0 4 -11 6 -25z m25 -37 c-3
-8 -6 -5 -6 6 -1 11 2 17 5 13 3 -3 4 -12 1 -19z m10 -80 c-3 -7 -5 -2 -5 12
0 14 2 19 5 13 2 -7 2 -19 0 -25z m-8827 -15 c0 -5 -5 -15 -10 -23 -7 -12 -9
-10 -7 8 1 19 17 33 17 15z m873 -40 c-10 -7 -24 -17 -30 -23 -10 -8 -12 -5
-11 13 2 18 8 23 30 22 25 0 27 -1 11 -12z m7164 3 c7 -6 -11 -45 -19 -40 -5
3 -7 12 -4 20 3 8 2 13 -2 13 -18 -3 -32 2 -32 11 0 8 45 5 57 -4z m-8066 -39
c-10 -9 -11 -8 -5 6 3 10 9 15 12 12 3 -3 0 -11 -7 -18z m1759 9 c0 -2 -7 -7
-16 -10 -8 -3 -12 -2 -9 4 6 10 25 14 25 6z m5457 -12 c-3 -3 -12 -4 -19 -1
-8 3 -5 6 6 6 11 1 17 -2 13 -5z m-6367 -24 c0 -5 -2 -10 -4 -10 -3 0 -8 5
-11 10 -3 6 -1 10 4 10 6 0 11 -4 11 -10z m-735 -20 c3 -6 -1 -7 -9 -4 -18 7
-21 14 -7 14 6 0 13 -4 16 -10z m7985 -25 c0 -5 -5 -3 -10 5 -5 8 -10 20 -10
25 0 6 5 3 10 -5 5 -8 10 -19 10 -25z m-7260 15 c0 -5 -4 -10 -10 -10 -5 0
-10 5 -10 10 0 6 5 10 10 10 6 0 10 -4 10 -10z m-270 -9 c0 -5 -7 -12 -16 -15
-14 -5 -15 -4 -4 9 14 17 20 19 20 6z m1015 -1 c3 -6 -1 -7 -9 -4 -18 7 -21
14 -7 14 6 0 13 -4 16 -10z m638 3 c-7 -2 -21 -2 -30 0 -10 3 -4 5 12 5 17 0
24 -2 18 -5z m4642 -3 c8 -13 -25 -13 -45 0 -12 8 -9 10 12 10 15 0 30 -4 33
-10z m-147 -17 c-10 -2 -26 -2 -35 0 -10 3 -2 5 17 5 19 0 27 -2 18 -5z m1642
-25 c0 -5 -4 -8 -10 -8 -5 0 -10 10 -10 23 0 18 2 19 10 7 5 -8 10 -18 10 -22z
m-7520 -10 c0 -13 9 -38 20 -56 20 -32 20 -33 1 -22 -11 6 -25 27 -31 48 -12
46 -12 52 0 52 6 0 10 -10 10 -22z m1597 6 c-3 -3 -12 -4 -19 -1 -8 3 -5 6 6
6 11 1 17 -2 13 -5z m-1627 -8 c0 -3 -4 -8 -10 -11 -5 -3 -10 -1 -10 4 0 6 5
11 10 11 6 0 10 -2 10 -4z m1745 -6 c13 -5 14 -9 5 -9 -8 0 -24 4 -35 9 -13 5
-14 9 -5 9 8 0 24 -4 35 -9z m-1055 -17 c0 -1 -10 -7 -21 -14 -15 -8 -19 -8
-15 0 10 16 -6 14 -30 -4 -23 -15 -40 -9 -25 9 8 9 91 17 91 9z m5995 -21 c-3
-3 -11 0 -18 7 -9 10 -8 11 6 5 10 -3 15 -9 12 -12z m-1740 -32 c13 -6 15 -9
5 -9 -8 0 -22 4 -30 9 -18 12 -2 12 25 0z m-4865 -24 c0 -2 -7 -7 -16 -10 -8
-3 -12 -2 -9 4 6 10 25 14 25 6z m2680 0 c0 -2 -18 -6 -40 -8 -22 -2 -40 0
-40 4 0 5 18 8 40 8 22 0 40 -2 40 -4z m1443 -3 c-7 -2 -21 -2 -30 0 -10 3 -4
5 12 5 17 0 24 -2 18 -5z m2627 -82 c0 -2 -9 4 -19 13 -11 10 -24 15 -30 11
-7 -3 -8 0 -5 9 3 8 -3 19 -15 26 -12 6 -21 16 -21 22 0 7 20 -8 45 -32 25
-24 45 -46 45 -49z m485 79 c3 -5 1 -10 -4 -10 -6 0 -11 5 -11 10 0 6 2 10 4
10 3 0 8 -4 11 -10z m-4468 -6 c-3 -3 -12 -4 -19 -1 -8 3 -5 6 6 6 11 1 17 -2
13 -5z m-2713 -19 c11 -8 16 -15 10 -15 -5 0 -18 7 -28 15 -11 8 -16 15 -10
15 5 0 18 -7 28 -15z m311 -32 c0 -15 -7 -28 -15 -31 -13 -3 -13 -2 -1 6 11 8
9 11 -9 17 l-23 7 24 14 c13 7 24 13 25 14 0 0 0 -12 -1 -27z m6715 12 c-7 -8
-20 -15 -29 -15 -11 0 -8 5 9 14 33 19 35 19 20 1z m-6770 -21 c0 -8 -19 -13
-24 -6 -3 5 1 9 9 9 8 0 15 -2 15 -3z m6415 -24 c-3 -5 -12 -10 -18 -10 -7 0
-6 4 3 10 19 12 23 12 15 0z m-2838 -567 c-3 -2 -13 -3 -23 -1 -16 3 -16 4 2
22 18 18 19 18 22 2 2 -10 1 -20 -1 -23z"/>
<path d="M6508 8693 c7 -3 16 -2 19 1 4 3 -2 6 -13 5 -11 0 -14 -3 -6 -6z"/>
<path d="M6440 8599 c-31 -6 -30 -6 18 -8 28 0 52 1 52 3 0 8 -37 11 -70 5z"/>
<path d="M3598 8583 c6 -2 18 -2 25 0 6 3 1 5 -13 5 -14 0 -19 -2 -12 -5z"/>
<path d="M3558 8573 c7 -3 16 -2 19 1 4 3 -2 6 -13 5 -11 0 -14 -3 -6 -6z"/>
<path d="M6210 8530 c-8 -5 -10 -10 -5 -10 6 0 17 5 25 10 8 5 11 10 5 10 -5
0 -17 -5 -25 -10z"/>
<path d="M5746 7861 c-18 -7 -18 -8 4 -14 27 -7 39 -1 24 12 -5 5 -18 5 -28 2z"/>
<path d="M4430 7851 c0 -6 4 -13 10 -16 6 -3 7 1 4 9 -7 18 -14 21 -14 7z"/>
<path d="M5829 7646 c-57 -52 -99 -67 -214 -77 -141 -13 -185 -20 -185 -31 0
-6 7 -8 15 -4 15 5 75 -38 75 -55 0 -5 -8 -9 -18 -9 -10 0 -28 -11 -41 -23
-17 -19 -20 -29 -12 -48 14 -39 47 -62 76 -55 29 7 30 18 10 75 -21 60 -2 50
30 -16 l28 -56 -23 -19 c-29 -23 -56 -23 -105 2 -36 18 -40 19 -57 3 -10 -9
-16 -23 -13 -30 2 -8 0 -11 -5 -8 -14 9 -24 -44 -13 -74 6 -17 15 -25 27 -23
10 2 26 -4 37 -14 14 -13 29 -15 65 -10 60 8 103 41 166 127 28 38 60 71 71
75 12 4 60 10 107 14 47 4 77 8 67 9 -10 0 -15 6 -12 11 4 6 11 7 17 4 12 -8
3 27 -20 71 -8 17 -18 69 -21 116 l-6 87 -46 -42z m-299 -106 c0 -5 -2 -10 -4
-10 -3 0 -8 5 -11 10 -3 6 -1 10 4 10 6 0 11 -4 11 -10z"/>
<path d="M4375 7635 c5 -38 1 -67 -18 -123 -13 -39 -27 -69 -32 -65 -5 5 2 -7
14 -24 19 -28 28 -33 64 -33 62 0 108 -16 135 -47 13 -16 42 -49 65 -76 118
-137 326 -126 267 15 -5 13 -16 31 -23 40 -13 17 -16 17 -53 -1 -21 -11 -41
-18 -44 -16 -3 2 -24 8 -47 14 -55 15 -62 39 -28 88 l26 38 -3 -44 c-2 -33 1
-46 15 -55 24 -15 67 10 80 47 17 53 -43 101 -82 65 -11 -11 -12 -9 -2 8 15
31 69 74 92 74 33 0 20 20 -13 21 -18 0 -84 4 -146 8 -99 7 -121 12 -178 42
-36 18 -72 42 -80 53 -14 19 -14 17 -9 -29z"/>
<path d="M3385 8590 c-3 -5 -2 -10 4 -10 5 0 13 5 16 10 3 6 2 10 -4 10 -5 0
-13 -4 -16 -10z"/>
<path d="M6219 7944 c-5 -15 -8 -29 -5 -31 2 -2 8 10 14 26 13 38 5 41 -9 5z"/>
<path d="M5098 8093 c7 -3 16 -2 19 1 4 3 -2 6 -13 5 -11 0 -14 -3 -6 -6z"/>
<path d="M6300 7615 c-15 -19 -13 -21 24 -31 l28 -7 -17 27 c-20 31 -19 30
-35 11z"/>
<path d="M4050 6216 c0 -2 7 -7 16 -10 8 -3 12 -2 9 4 -6 10 -25 14 -25 6z"/>
<path d="M6537 4736 c-4 -10 -5 -21 -2 -24 9 -9 17 6 13 25 -3 17 -4 17 -11
-1z"/>
<path d="M6540 4684 c0 -8 5 -12 10 -9 6 4 8 11 5 16 -9 14 -15 11 -15 -7z"/>
<path d="M4835 4393 c-49 -14 -99 -29 -110 -34 -11 -4 -58 -20 -105 -35 -46
-15 -80 -29 -74 -31 6 -2 69 10 139 27 134 33 255 76 255 91 0 12 0 12 -105
-18z"/>
<path d="M5270 4416 c0 -11 112 -54 180 -70 115 -26 120 -27 120 -16 0 5 -2
10 -5 10 -3 0 -65 18 -137 40 -127 38 -158 45 -158 36z"/>
<path d="M3160 3740 c0 -5 5 -10 11 -10 5 0 7 5 4 10 -3 6 -8 10 -11 10 -2 0
-4 -4 -4 -10z"/>
<path d="M3185 3669 c-4 -6 -5 -12 -2 -15 2 -3 7 2 10 11 7 17 1 20 -8 4z"/>
<path d="M3590 3127 c0 -2 6 -10 14 -16 11 -9 16 -9 22 1 4 7 4 10 -1 6 -4 -4
-14 -3 -22 3 -7 6 -13 9 -13 6z"/>
<path d="M2445 5160 c-3 -5 -1 -10 4 -10 6 0 11 5 11 10 0 6 -2 10 -4 10 -3 0
-8 -4 -11 -10z"/>
<path d="M2432 5109 c-19 -30 -11 -32 11 -3 10 13 14 24 10 24 -5 0 -14 -9
-21 -21z"/>
<path d="M7281 5304 c0 -11 3 -14 6 -6 3 7 2 16 -1 19 -3 4 -6 -2 -5 -13z"/>
<path d="M3418 4993 c7 -3 16 -2 19 1 4 3 -2 6 -13 5 -11 0 -14 -3 -6 -6z"/>
<path d="M3470 4980 c14 -4 36 -8 50 -8 22 0 22 1 -5 8 -16 4 -39 8 -50 8 -16
0 -15 -2 5 -8z"/>
<path d="M3785 5210 c-21 -16 -33 -30 -27 -30 6 0 19 -3 29 -6 14 -5 15 -4 4
4 -12 8 -9 15 15 36 40 35 25 33 -21 -4z"/>
<path d="M4154 5196 c-5 -11 -24 -28 -41 -37 -18 -9 -30 -18 -27 -21 2 -3 -8
-5 -23 -6 -16 0 -50 -3 -78 -7 -47 -6 -184 12 -229 31 -14 5 -17 4 -12 -4 28
-45 301 -65 381 -27 44 21 64 42 65 66 0 26 -25 29 -36 5z"/>
<path d="M2365 4689 c-4 -6 -5 -12 -2 -15 2 -3 7 2 10 11 7 17 1 20 -8 4z"/>
<path d="M2400 4476 c0 -8 7 -17 16 -20 23 -9 24 -4 2 17 -14 13 -18 14 -18 3z"/>
<path d="M2854 4814 c-18 -14 -18 -15 4 -4 12 6 22 13 22 15 0 8 -5 6 -26 -11z"/>
<path d="M3852 4771 c-10 -27 -7 -41 7 -41 3 0 7 16 8 35 4 43 -2 45 -15 6z"/>
<path d="M3770 4696 c0 -2 11 -6 25 -8 13 -3 22 -1 19 3 -5 9 -44 13 -44 5z"/>
<path d="M2610 4371 c0 -6 4 -13 10 -16 6 -3 7 1 4 9 -7 18 -14 21 -14 7z"/>
<path d="M1493 4363 c9 -2 25 -2 35 0 9 3 1 5 -18 5 -19 0 -27 -2 -17 -5z"/>
<path d="M1730 4300 c8 -5 22 -9 30 -9 10 0 8 3 -5 9 -27 12 -43 12 -25 0z"/>
<path d="M1178 4260 c-53 -9 -71 -18 -63 -30 3 -4 -3 -7 -12 -6 -24 2 -73 -97
-72 -143 1 -20 3 -28 6 -18 2 9 8 17 13 17 5 0 7 -8 3 -17 -3 -10 -3 -15 2
-11 4 4 14 0 21 -10 8 -9 14 -12 14 -5 0 6 -4 15 -10 18 -5 3 -10 22 -10 41 0
111 127 185 237 139 46 -19 55 -13 11 8 -47 21 -86 26 -140 17z"/>
<path d="M8663 4342 c-51 -14 -90 -28 -88 -30 2 -2 37 3 77 12 40 9 116 22
168 30 l95 14 -80 0 c-57 1 -106 -7 -172 -26z"/>
<path d="M8336 4295 c-54 -19 -102 -37 -105 -41 -9 -10 61 7 89 21 14 7 51 20
83 29 31 9 57 19 57 21 0 10 -27 3 -124 -30z"/>
<path d="M9039 4251 c108 -18 176 -111 142 -196 -5 -12 -4 -26 3 -34 8 -11 8
-13 -1 -8 -6 4 -15 2 -19 -5 -4 -7 -4 -10 1 -6 4 4 14 3 21 -3 9 -7 14 -5 19
10 3 12 3 25 0 31 -3 5 -2 10 3 10 13 0 -4 98 -22 125 -32 48 -81 76 -143 80
l-58 4 54 -8z"/>
<path d="M9136 3993 c-6 -14 -5 -15 5 -6 7 7 10 15 7 18 -3 3 -9 -2 -12 -12z"/>
<path d="M9183 3938 c3 -9 1 -19 -6 -22 -9 -3 -9 -5 0 -5 18 -1 27 19 13 32
-10 9 -12 8 -7 -5z"/>
<path d="M3643 4245 c0 -8 4 -12 9 -9 4 3 8 9 8 15 0 5 -4 9 -8 9 -5 0 -9 -7
-9 -15z"/>
<path d="M6731 3719 c-35 -32 -60 -63 -56 -67 4 -4 10 -1 12 6 3 6 10 9 15 6
6 -4 8 -2 4 4 -3 6 9 23 28 37 28 21 75 76 64 75 -2 -1 -32 -28 -67 -61z"/>
<path d="M6615 3614 c-52 -46 -96 -64 -156 -64 -57 0 -62 -10 -16 -39 17 -11
45 -32 60 -47 30 -27 48 -23 53 13 6 41 16 59 40 77 20 14 28 16 34 6 5 -8 14
-4 29 16 25 31 22 40 -8 25 -17 -10 -20 -9 -15 4 3 8 10 12 15 9 5 -3 9 -1 9
4 0 6 10 8 23 5 21 -4 22 -4 3 11 -26 21 -24 21 -71 -20z"/>
<path d="M4765 3526 c17 -8 32 -12 34 -10 7 7 -3 12 -34 18 l-30 6 30 -14z"/>
<path d="M4814 3523 c4 -4 30 -8 58 -9 32 -1 46 1 37 7 -17 11 -105 12 -95 2z"/>
<path d="M4400 3466 c-23 -13 -21 -14 25 -9 28 3 54 9 60 14 15 15 -57 10 -85
-5z"/>
<path d="M4515 3460 c3 -5 8 -10 11 -10 2 0 4 5 4 10 0 6 -5 10 -11 10 -5 0
-7 -4 -4 -10z"/>
<path d="M4350 3425 c-10 -13 -8 -15 14 -15 14 0 26 -4 26 -10 0 -5 4 -10 9
-10 14 0 63 42 56 48 -3 4 -9 2 -13 -4 -13 -20 -49 -25 -65 -10 -13 14 -16 14
-27 1z"/>
<path d="M4672 3401 c2 -7 7 -12 11 -12 12 1 9 15 -3 20 -7 2 -11 -2 -8 -8z"/>
<path d="M4506 3364 c-9 -8 -14 -20 -11 -24 5 -8 45 23 45 35 0 10 -19 4 -34
-11z"/>
<path d="M5117 3363 c-11 -11 -8 -30 6 -36 7 -3 12 4 12 19 0 24 -6 30 -18 17z"/>
<path d="M4830 3341 c0 -5 5 -13 10 -16 6 -3 10 -2 10 4 0 5 -4 13 -10 16 -5
3 -10 2 -10 -4z"/>
<path d="M4874 3295 c11 -8 27 -15 35 -15 9 0 3 7 -13 15 -36 19 -47 19 -22 0z"/>
<path d="M5080 3275 c-8 -9 -8 -15 -2 -15 12 0 26 19 19 26 -2 2 -10 -2 -17
-11z"/>
<path d="M4158 3273 c-20 -5 -25 -33 -5 -33 7 0 18 9 25 20 12 20 11 21 -20
13z"/>
<path d="M4170 3189 c0 -5 5 -7 10 -4 6 3 10 8 10 11 0 2 -4 4 -10 4 -5 0 -10
-5 -10 -11z"/>
<path d="M4013 3151 c-36 -18 -40 -26 -18 -35 22 -8 43 3 51 26 8 27 4 28 -33
9z m17 -16 c-7 -8 -17 -15 -22 -15 -6 0 -5 7 2 15 7 8 17 15 22 15 6 0 5 -7
-2 -15z"/>
<path d="M4200 3160 c0 -6 11 -10 25 -10 14 0 25 4 25 8 0 4 -11 9 -25 10 -14
1 -25 -3 -25 -8z"/>
<path d="M3945 3060 c-10 -11 -13 -20 -8 -20 13 0 38 29 31 35 -3 3 -13 -4
-23 -15z"/>
<path d="M4436 3043 c-3 -4 -25 -10 -49 -14 l-42 -6 47 -2 c26 0 50 4 53 10 8
12 1 22 -9 12z"/>
<path d="M3954 2978 c4 -29 14 -59 21 -67 17 -17 32 -7 18 11 -6 7 -14 34 -17
61 -4 26 -12 47 -18 47 -7 0 -8 -18 -4 -52z"/>
<path d="M4187 2983 c-11 -10 -8 -43 3 -43 6 0 10 11 10 25 0 26 -2 29 -13 18z"/>
<path d="M4676 2914 c-9 -8 -14 -20 -11 -25 8 -11 45 12 45 28 0 18 -15 16
-34 -3z"/>
<path d="M4888 2923 c-18 -5 -24 -28 -10 -37 11 -7 27 6 35 27 7 17 5 18 -25
10z"/>
<path d="M4498 2873 c7 -3 16 -2 19 1 4 3 -2 6 -13 5 -11 0 -14 -3 -6 -6z"/>
<path d="M4019 2771 c16 -29 71 -72 119 -92 49 -22 98 -24 139 -8 52 21 84 28
78 18 -8 -11 -1 -11 55 2 25 6 60 11 78 11 17 0 35 4 38 9 6 10 65 3 99 -11
11 -5 57 -21 103 -35 80 -26 87 -27 180 -16 53 7 98 14 101 16 2 3 -43 5 -100
4 -109 -1 -141 7 -235 53 -27 14 -67 26 -89 26 -22 1 -61 4 -86 7 -53 7 -111
-5 -189 -42 -102 -47 -151 -40 -233 36 -48 44 -75 55 -58 22z"/>
<path d="M4396 2781 c5 -5 50 -11 99 -14 83 -5 87 -4 55 8 -39 15 -170 20
-154 6z"/>
<path d="M4710 2772 c0 -15 11 -29 33 -42 42 -26 71 -22 75 10 3 24 3 24 -11
5 -13 -16 -20 -18 -43 -10 -16 6 -34 22 -41 35 -13 25 -13 25 -13 2z"/>
<path d="M5218 2783 c7 -3 16 -2 19 1 4 3 -2 6 -13 5 -11 0 -14 -3 -6 -6z"/>
<path d="M4318 2763 c7 -3 16 -2 19 1 4 3 -2 6 -13 5 -11 0 -14 -3 -6 -6z"/>
<path d="M4368 2763 c7 -3 16 -2 19 1 4 3 -2 6 -13 5 -11 0 -14 -3 -6 -6z"/>
<path d="M4410 2542 c8 -5 61 -17 117 -27 86 -15 116 -17 189 -8 71 9 97 8
136 -4 27 -8 59 -12 71 -10 19 3 18 4 -8 11 -16 4 -46 15 -65 24 -28 13 -77
17 -245 19 -122 2 -204 0 -195 -5z"/>
<path d="M5625 3390 c3 -5 17 -10 31 -10 13 0 24 5 24 10 0 6 -14 10 -31 10
-17 0 -28 -4 -24 -10z"/>
<path d="M5765 3366 c-11 -8 -14 -15 -7 -20 12 -7 42 3 42 14 0 16 -17 19 -35
6z"/>
<path d="M6365 2680 c3 -5 15 -10 26 -10 10 0 19 5 19 10 0 6 -12 10 -26 10
-14 0 -23 -4 -19 -10z"/>
<path d="M6440 2664 c0 -27 24 -33 34 -8 10 25 7 30 -14 31 -15 1 -20 -4 -20
-23z"/>
<path d="M6640 2674 c0 -8 11 -14 25 -14 14 0 25 4 25 9 0 5 -11 11 -25 13
-17 4 -25 1 -25 -8z"/>
<path d="M6774 2581 c3 -5 17 -8 31 -8 14 0 25 3 25 8 0 5 -14 9 -31 9 -16 0
-28 -4 -25 -9z"/>
<path d="M6604 2548 c-3 -5 8 -11 25 -14 17 -4 28 -11 25 -16 -4 -6 3 -5 15 2
12 6 19 15 16 19 -7 12 -75 19 -81 9z"/>
<path d="M6648 2483 c7 -3 16 -2 19 1 4 3 -2 6 -13 5 -11 0 -14 -3 -6 -6z"/>
<path d="M6820 2481 c0 -5 9 -7 20 -4 11 3 20 7 20 9 0 2 -9 4 -20 4 -11 0
-20 -4 -20 -9z"/>
<path d="M6940 2390 c12 -8 11 -14 -10 -42 -13 -18 -16 -27 -7 -19 15 12 16
10 11 -20 -9 -44 -13 -48 -29 -26 -11 15 -13 15 -18 2 -6 -13 18 -35 38 -35
12 0 35 71 35 110 0 31 -4 40 -17 40 -15 0 -16 -2 -3 -10z"/>
<path d="M6790 2375 c-18 -21 -3 -32 16 -13 10 9 12 18 6 22 -5 3 -15 -1 -22
-9z"/>
<path d="M6485 2360 c3 -5 22 -10 41 -10 21 0 33 4 29 10 -3 6 -22 10 -41 10
-21 0 -33 -4 -29 -10z"/>
<path d="M6294 2278 c-3 -4 11 -8 30 -8 20 0 36 2 36 4 0 8 -61 12 -66 4z"/>
<path d="M6576 2273 c-12 -12 -6 -43 9 -43 8 0 15 9 15 19 0 21 -13 34 -24 24z"/>
<path d="M6420 2250 c-12 -8 -11 -10 8 -10 12 0 22 5 22 10 0 13 -11 13 -30 0z"/>
<path d="M6238 2188 c9 -18 18 -35 20 -37 1 -2 5 -2 8 2 10 10 -7 47 -26 57
-19 10 -19 9 -2 -22z"/>
<path d="M6210 2155 c0 -8 7 -15 16 -15 14 0 14 3 4 15 -7 8 -14 15 -16 15 -2
0 -4 -7 -4 -15z"/>
<path d="M6566 2105 c-11 -30 -6 -40 11 -22 12 12 14 20 6 28 -7 7 -12 6 -17
-6z"/>
<path d="M6630 2116 c0 -2 11 -6 25 -8 14 -3 25 -1 25 3 0 5 -11 9 -25 9 -14
0 -25 -2 -25 -4z"/>
<path d="M6360 2042 c-66 -30 -79 -62 -25 -62 19 0 35 5 35 10 0 6 -9 10 -21
10 -11 0 -17 5 -14 10 3 6 15 10 26 10 10 0 19 7 19 15 0 8 -1 15 -2 14 -2 0
-10 -3 -18 -7z"/>
<path d="M6397 2013 c-15 -14 8 -23 61 -23 32 0 52 4 47 9 -12 11 -100 22
-108 14z"/>
<path d="M6513 1939 c-31 -9 -42 -23 -25 -32 4 -3 28 1 54 8 34 8 49 9 51 1 2
-6 8 -8 12 -3 10 9 -24 37 -45 36 -8 -1 -30 -5 -47 -10z"/>
<path d="M3765 2630 c-3 -5 -2 -10 4 -10 5 0 13 5 16 10 3 6 2 10 -4 10 -5 0
-13 -4 -16 -10z"/>
<path d="M3631 2483 c-1 -35 14 -52 32 -34 8 8 7 11 -5 11 -10 0 -18 10 -21
28 -4 26 -4 25 -6 -5z"/>
<path d="M3810 2470 c0 -5 11 -10 24 -10 14 0 28 5 31 10 4 6 -7 10 -24 10
-17 0 -31 -4 -31 -10z"/>
<path d="M3699 2458 c0 -2 -2 -11 -4 -21 -3 -15 -1 -16 11 -6 16 13 19 29 4
29 -5 0 -10 -1 -11 -2z"/>
<path d="M3835 2390 c3 -5 16 -10 28 -9 21 0 21 1 2 9 -28 12 -37 12 -30 0z"/>
<path d="M3660 2331 c0 -13 40 -41 58 -41 7 0 0 11 -16 25 -32 27 -42 31 -42
16z"/>
<path d="M3736 2327 c3 -10 9 -15 12 -12 3 3 0 11 -7 18 -10 9 -11 8 -5 -6z"/>
<path d="M3445 2290 c-17 -18 -17 -20 -1 -20 9 0 19 7 23 15 9 25 -2 27 -22 5z"/>
<path d="M3606 2282 c-3 -6 1 -13 9 -16 9 -3 20 -16 25 -28 8 -22 9 -22 9 -2
1 24 -34 61 -43 46z"/>
<path d="M3870 2271 c0 -11 49 -31 54 -23 3 5 -8 13 -25 19 -16 6 -29 8 -29 4z"/>
<path d="M3589 2233 c6 -13 19 -23 28 -23 9 0 14 1 12 3 -2 1 -15 11 -28 22
l-24 20 12 -22z"/>
<path d="M4151 2241 c-7 -5 -2 -12 14 -21 30 -16 38 -11 15 11 -10 9 -23 13
-29 10z"/>
<path d="M4498 2183 c7 -3 16 -2 19 1 4 3 -2 6 -13 5 -11 0 -14 -3 -6 -6z"/>
<path d="M4705 2170 c3 -5 18 -10 33 -10 21 0 24 2 12 10 -20 13 -53 13 -45 0z"/>
<path d="M4357 2154 c-4 -4 -7 -14 -7 -23 0 -11 3 -12 11 -4 6 6 10 16 7 23
-2 6 -7 8 -11 4z"/>
<path d="M3675 2123 c11 -3 31 -16 44 -30 28 -30 40 -23 17 12 -12 19 -24 25
-49 24 -21 -1 -25 -3 -12 -6z"/>
<path d="M3875 2109 c-6 -9 1 -13 43 -22 33 -7 27 9 -8 21 -18 7 -32 7 -35 1z"/>
<path d="M3690 2055 c44 -45 59 -45 23 0 -15 19 -35 35 -42 35 -9 0 -2 -13 19
-35z"/>
<path d="M4110 2060 c0 -5 7 -10 16 -10 8 0 12 5 9 10 -3 6 -10 10 -16 10 -5
0 -9 -4 -9 -10z"/>
<path d="M4805 2053 c-38 -9 -40 -23 -2 -23 26 0 37 4 37 15 0 16 -2 16 -35 8z"/>
<path d="M4080 2030 c0 -5 5 -10 10 -10 6 0 10 5 10 10 0 6 -4 10 -10 10 -5 0
-10 -4 -10 -10z"/>
<path d="M4561 2029 c-1 -9 2 -18 5 -22 8 -8 34 3 34 15 0 6 -6 8 -14 5 -8 -3
-17 -1 -20 6 -2 7 -5 6 -5 -4z"/>
<path d="M4290 1985 c-6 -8 -9 -23 -5 -35 6 -19 12 -21 41 -16 19 3 50 9 69
12 23 4 41 2 51 -7 14 -12 16 -11 12 6 -3 17 -11 20 -53 19 -28 -1 -63 -5 -79
-9 -27 -7 -29 -6 -24 19 6 30 5 31 -12 11z"/>
<path d="M4660 1990 c0 -5 5 -10 10 -10 6 0 10 5 10 10 0 6 -4 10 -10 10 -5 0
-10 -4 -10 -10z"/>
<path d="M5608 2286 c-19 -14 -23 -26 -10 -26 4 0 13 9 20 20 14 23 13 24 -10
6z"/>
<path d="M7105 1849 c-4 -6 -5 -12 -2 -15 2 -3 7 2 10 11 7 17 1 20 -8 4z"/>
<path d="M6808 1663 c6 -2 18 -2 25 0 6 3 1 5 -13 5 -14 0 -19 -2 -12 -5z"/>
<path d="M5210 1661 c0 -25 6 -27 13 -6 4 8 2 17 -3 20 -6 4 -10 -3 -10 -14z"/>
<path d="M4866 1647 c-16 -12 -16 -13 3 -13 11 0 17 4 14 9 -3 5 5 6 18 2 19
-5 21 -4 9 4 -19 14 -23 14 -44 -2z"/>
</g>
</svg>
