<?xml version="1.0" standalone="no"?>
<!DOCTYPE svg PUBLIC "-//W3C//DTD SVG 20010904//EN"
 "http://www.w3.org/TR/2001/REC-SVG-20010904/DTD/svg10.dtd">
<svg version="1.0" xmlns="http://www.w3.org/2000/svg"
 width="1024.000000pt" height="1024.000000pt" viewBox="0 0 1024.000000 1024.000000"
 preserveAspectRatio="xMidYMid meet">

<g transform="translate(0.000000,1024.000000) scale(0.100000,-0.100000)"
fill="#000000" stroke="none">
<path d="M192 10223 c5 -25 25 -27 38 -4 10 19 8 21 -15 21 -19 0 -26 -5 -23
-17z"/>
<path d="M3720 8525 c-36 -8 -99 -20 -140 -26 -117 -18 -183 -56 -233 -137
-15 -23 -54 -59 -95 -86 -134 -89 -260 -249 -303 -388 -30 -93 -36 -264 -14
-363 28 -126 102 -260 201 -363 46 -48 81 -88 80 -90 -2 -1 -11 5 -20 14 -25
25 -38 5 -44 -63 l-5 -58 -111 -110 c-84 -83 -119 -125 -140 -170 -49 -101
-45 -181 10 -267 18 -28 24 -52 24 -93 0 -94 29 -128 221 -264 136 -96 172
-131 188 -188 9 -31 22 -49 53 -70 58 -40 66 -55 40 -81 l-22 -22 -87 88
c-112 112 -132 136 -156 195 -11 26 -22 47 -26 47 -6 0 -54 -70 -135 -197 -47
-75 -83 -102 -178 -132 -20 -7 -53 -23 -73 -37 -20 -13 -57 -29 -83 -35 -65
-16 -105 -42 -128 -84 -21 -40 -25 -41 -59 -19 -23 15 -30 15 -95 -1 -39 -10
-76 -25 -83 -34 -8 -11 -51 -25 -122 -40 -262 -55 -431 -125 -520 -215 -72
-73 -80 -105 -54 -230 11 -55 31 -161 44 -236 13 -74 37 -209 53 -300 17 -91
34 -190 39 -221 l10 -56 -49 -21 c-37 -15 -54 -31 -75 -67 -16 -26 -49 -69
-75 -96 -69 -71 -81 -99 -76 -178 l5 -66 -64 -89 c-99 -140 -118 -185 -117
-281 0 -48 7 -94 16 -115 14 -34 13 -38 -19 -105 -41 -87 -44 -155 -9 -230 29
-63 65 -94 152 -130 98 -40 126 -71 195 -214 58 -118 66 -128 161 -220 110
-105 223 -240 211 -251 -24 -22 -183 -71 -273 -84 -58 -9 -121 -21 -140 -27
-19 -6 -89 -12 -155 -12 -114 -2 -124 -4 -187 -35 -76 -37 -124 -86 -134 -137
-5 -31 -10 -35 -38 -36 -17 0 -62 -9 -101 -20 -38 -11 -98 -26 -133 -35 -34
-9 -75 -26 -90 -39 -15 -12 -38 -26 -52 -30 -44 -14 -103 -56 -166 -117 -40
-39 -66 -58 -75 -53 -7 5 -10 4 -6 -2 4 -6 -4 -31 -18 -55 -21 -37 -25 -56
-25 -128 1 -194 84 -269 405 -360 l180 -52 290 -5 c304 -6 313 -5 495 42 58
14 170 35 250 46 157 21 197 31 248 61 l32 20 35 -30 c152 -134 442 -198 1005
-222 129 -6 335 -15 457 -21 122 -6 288 -7 370 -4 l148 7 68 -31 c234 -107
479 -105 670 6 32 18 86 42 119 54 l60 20 61 -39 c221 -137 347 -158 603 -97
121 29 117 27 209 95 141 105 226 131 585 184 124 18 218 25 377 28 116 2 209
6 206 11 -2 4 2 7 11 7 8 0 17 -6 20 -12 5 -11 7 -11 12 0 7 15 124 17 124 2
0 -5 12 -10 27 -10 16 0 39 -12 58 -29 90 -88 239 -144 380 -145 85 -1 94 1
165 37 41 21 85 48 97 59 31 29 47 82 39 134 -5 39 -3 45 25 68 38 32 68 41
140 41 43 0 64 -6 92 -25 56 -38 63 -65 38 -145 -12 -37 -21 -94 -21 -127 0
-94 29 -133 137 -187 203 -101 408 -106 662 -16 91 32 129 51 159 78 43 40 24
129 -53 243 -14 20 -30 55 -36 78 -24 93 -33 116 -43 116 -6 0 -4 5 4 9 19 11
161 32 171 25 5 -3 59 9 121 26 62 17 151 40 198 51 103 23 209 84 256 146 65
85 53 222 -28 309 -40 44 -40 44 -15 44 31 0 51 31 43 64 -3 12 -18 33 -33 47
-35 32 -186 94 -285 115 -84 19 -101 27 -218 99 -82 50 -349 165 -383 165 -28
0 -20 12 49 80 182 179 306 372 370 575 26 81 28 104 28 230 0 77 -5 208 -10
290 -11 162 -27 215 -83 285 -16 20 -43 64 -60 97 -58 116 -162 196 -310 239
l-75 21 -13 64 c-18 91 -61 273 -83 349 -11 36 -42 144 -69 240 -119 416 -214
629 -333 748 -74 75 -110 146 -148 290 -26 100 -51 137 -129 187 -74 48 -102
76 -220 219 -79 97 -82 103 -122 228 -71 228 -228 597 -319 749 -76 128 -186
229 -375 344 -119 72 -125 79 -125 142 0 72 -26 192 -60 280 -106 274 -365
489 -662 549 -99 20 -311 14 -403 -11 -217 -59 -393 -207 -496 -418 -33 -67
-35 -68 -64 -61 -16 4 -106 8 -200 10 -138 2 -179 6 -215 21 -38 15 -74 18
-235 18 -104 0 -195 4 -202 8 -7 4 -39 41 -72 82 -33 41 -69 84 -78 96 -10 11
-54 53 -98 91 -89 78 -212 145 -315 172 -90 24 -230 29 -310 11z m159 -59 c12
-14 5 -46 -13 -58 -13 -9 -59 -10 -80 -2 -21 8 -20 50 2 63 25 15 78 13 91 -3z
m-202 -39 c50 -39 81 -76 118 -142 16 -27 36 -59 45 -70 35 -42 80 -136 115
-241 20 -60 39 -115 42 -121 3 -8 -3 -13 -13 -13 -35 0 1 -20 55 -30 73 -14
116 -36 150 -79 49 -62 48 -72 -13 -141 -42 -47 -57 -73 -65 -111 -10 -44 -9
-52 8 -70 24 -26 77 -38 164 -39 76 0 125 16 153 52 30 38 131 111 229 166 50
28 188 87 307 131 208 77 342 142 437 211 23 17 45 30 47 28 2 -2 -10 -32 -25
-65 -48 -100 -112 -143 -356 -237 -119 -46 -225 -90 -335 -138 -14 -6 -32 -10
-42 -9 -23 3 -34 -20 -14 -31 22 -13 13 -24 -39 -47 -25 -11 -45 -26 -45 -34
0 -8 -6 -17 -14 -20 -7 -3 -15 -25 -18 -49 -3 -24 -11 -56 -19 -70 -29 -54
-91 -155 -124 -201 -19 -26 -32 -54 -28 -62 7 -19 39 -19 47 0 8 22 34 18 41
-6 6 -17 13 -20 35 -15 35 6 160 66 160 76 0 4 25 12 55 19 30 7 88 23 128 36
39 14 79 25 88 25 9 0 24 9 34 20 15 17 31 20 94 21 42 0 85 4 95 8 44 17 247
-56 386 -138 8 -5 26 -14 40 -20 14 -6 40 -21 58 -32 54 -35 36 -4 -20 33 -29
20 -87 63 -128 97 -96 78 -145 102 -229 111 -58 6 -191 53 -191 67 0 3 10 13
23 24 27 23 50 23 155 3 45 -9 86 -14 89 -10 4 4 2 16 -5 26 -45 73 36 108
114 50 27 -19 55 -55 83 -108 48 -89 86 -138 96 -123 3 6 2 11 -4 11 -9 0 -22
27 -27 60 -2 8 -10 20 -18 26 -9 6 -13 14 -9 17 3 4 1 7 -6 7 -9 0 -9 5 -1 20
8 14 8 26 0 40 -6 11 -8 20 -5 20 3 0 0 6 -7 14 -7 8 -16 12 -20 9 -5 -2 -8 6
-7 19 0 33 16 107 18 84 2 -34 63 -200 98 -269 77 -147 263 -266 493 -317 126
-28 216 -34 312 -21 287 38 435 141 553 384 15 31 31 60 36 63 5 3 9 16 9 30
0 13 5 24 10 24 6 0 11 12 11 28 2 24 2 24 6 4 10 -51 -33 -143 -155 -331 -57
-87 -227 -232 -277 -236 -14 -1 -84 -21 -180 -52 -91 -29 -200 -35 -281 -14
-27 7 -65 16 -84 21 -19 5 -66 18 -104 30 -38 11 -71 19 -73 16 -16 -16 243
-97 377 -117 44 -7 77 -16 74 -20 -6 -10 50 -17 194 -24 234 -12 354 -43 483
-127 56 -36 128 -72 236 -119 26 -11 29 -15 16 -20 -12 -4 6 -14 52 -29 91
-30 118 -44 165 -86 21 -19 42 -33 47 -32 4 2 19 -5 33 -15 13 -9 21 -17 17
-17 -5 0 -1 -7 7 -16 26 -25 19 -57 -21 -96 -43 -42 -156 -84 -307 -115 -89
-18 -117 -35 -74 -46 22 -6 23 -7 3 -22 -11 -9 -15 -14 -8 -10 19 9 53 -17 53
-41 0 -12 -7 -24 -15 -28 -20 -7 -19 -23 3 -30 9 -3 5 -4 -10 -2 -15 2 -29 -1
-30 -6 -5 -15 -83 -15 -81 0 4 19 -14 14 -30 -8 -18 -26 -130 -52 -190 -44
-31 5 -47 3 -52 -7 -5 -7 -4 -14 3 -17 7 -2 19 -10 26 -18 8 -8 23 -14 33 -13
16 0 16 1 -2 10 -15 7 -9 8 22 4 45 -5 150 14 246 45 84 28 87 27 87 -19 0
-34 -5 -44 -33 -65 -19 -15 -39 -26 -45 -26 -7 0 -12 -7 -12 -15 0 -9 9 -15
25 -15 14 0 25 -4 25 -9 0 -29 -96 -99 -200 -146 -36 -16 -78 -39 -95 -51 -16
-12 -48 -27 -70 -34 -89 -28 -84 -39 16 -34 52 2 119 8 149 13 33 5 59 6 65 0
5 -5 18 -9 30 -8 17 1 16 2 -5 8 -20 6 -15 8 29 14 30 3 59 11 65 17 5 5 18
10 28 10 10 0 18 5 18 11 0 5 4 8 9 5 5 -3 11 1 14 8 3 8 15 19 25 25 17 9 19
8 15 -9 -3 -11 -10 -20 -15 -20 -5 0 -6 -5 -3 -10 10 -17 -34 -79 -61 -86 -13
-3 -21 -10 -18 -15 3 -5 -2 -9 -10 -9 -9 0 -16 -4 -16 -10 0 -17 -101 -40
-175 -40 -66 0 -76 -3 -153 -47 -127 -74 -198 -129 -309 -241 -91 -91 -174
-192 -158 -192 3 0 45 39 93 86 138 137 238 222 328 280 83 54 104 63 104 45
0 -6 12 -6 33 0 l32 9 -26 -23 c-15 -12 -29 -30 -33 -40 -3 -10 -20 -24 -36
-30 -21 -8 -30 -18 -30 -34 0 -21 -10 -28 -32 -24 -5 0 -8 -4 -8 -10 0 -6 -14
-24 -31 -42 -39 -39 -76 -97 -85 -134 -7 -26 -4 -25 34 17 23 25 41 40 42 33
0 -7 7 -10 17 -6 11 4 14 3 9 -5 -5 -8 -2 -10 9 -6 9 4 14 13 11 21 -3 8 -1
11 4 8 10 -6 92 49 84 57 -8 9 46 19 58 12 7 -4 8 -3 4 4 -4 7 -2 12 3 12 14
0 14 -27 1 -35 -17 -10 -50 -92 -50 -122 0 -18 13 -43 34 -68 19 -22 42 -63
51 -92 17 -54 27 -62 49 -40 7 6 27 23 44 37 35 28 39 42 17 60 -21 18 -19 31
11 64 23 24 33 27 63 23 38 -5 150 -66 187 -101 12 -12 47 -41 78 -64 31 -24
55 -49 53 -55 -3 -7 -10 -11 -16 -10 -6 2 -11 -2 -11 -7 0 -13 13 -13 28 2 9
9 16 7 32 -7 11 -10 17 -23 13 -29 -3 -6 -2 -8 2 -3 12 10 76 -53 68 -67 -3
-6 -3 -8 2 -4 15 14 35 -13 30 -41 -4 -18 -3 -21 3 -8 7 18 8 18 24 0 37 -42
68 -118 68 -166 0 -27 -4 -46 -9 -43 -4 3 -6 -6 -3 -19 2 -14 -1 -32 -8 -40
-13 -16 -6 -65 10 -65 6 0 10 -4 10 -10 0 -5 -17 -10 -38 -10 -33 0 -45 -8
-104 -67 -82 -84 -138 -170 -179 -277 -17 -44 -34 -85 -38 -91 -31 -41 -113
-216 -135 -290 -38 -122 -89 -225 -158 -318 -47 -64 -58 -86 -58 -117 0 -61
-20 -140 -41 -161 -10 -10 -19 -28 -19 -39 0 -11 -9 -28 -20 -37 -12 -11 -20
-30 -20 -49 0 -20 -36 -103 -101 -230 -56 -110 -111 -217 -122 -239 -23 -45
-29 -121 -12 -139 7 -6 12 -18 12 -26 0 -12 -13 -15 -56 -14 -31 1 -61 -3 -68
-8 -8 -7 -23 -3 -46 11 -42 26 -137 125 -137 143 0 8 8 25 17 38 57 80 105
244 173 585 105 532 193 777 375 1046 113 167 208 260 318 312 26 12 47 25 47
29 0 5 19 8 43 7 l42 -1 -40 -13 c-110 -34 -211 -104 -270 -187 -37 -51 -39
-89 -2 -41 12 15 25 30 29 31 5 2 6 8 3 13 -9 14 148 125 212 150 48 19 78 23
175 23 166 1 152 18 -27 34 -75 6 -77 7 -35 13 l45 6 -40 1 c-123 5 -285 -63
-395 -165 -73 -69 -181 -24 -337 140 -81 85 -146 207 -162 299 l-9 53 -1 -60
c-1 -60 17 -123 60 -206 11 -22 15 -39 9 -39 -27 0 -205 97 -265 145 -38 30
-70 55 -72 55 -22 0 60 -87 133 -140 28 -21 88 -57 135 -80 102 -52 167 -100
147 -110 -22 -12 -180 -19 -223 -10 -163 34 -226 36 -149 4 54 -23 201 -43
314 -45 126 -1 158 -13 189 -72 17 -35 24 -63 24 -110 0 -54 -8 -79 -57 -189
-155 -351 -187 -463 -286 -988 -47 -245 -106 -403 -180 -475 -35 -34 -41 -37
-57 -24 -16 12 -17 12 -5 -2 11 -14 2 -21 -68 -53 -45 -20 -85 -34 -90 -31 -6
4 -10 2 -10 -3 0 -14 -57 -35 -71 -26 -7 4 -10 3 -6 -3 13 -20 -70 -45 -202
-59 -142 -16 -176 -27 -281 -88 -34 -20 -64 -36 -68 -36 -4 0 1 5 12 11 15 9
16 13 5 20 -20 13 -37 11 -19 -2 12 -8 9 -10 -12 -6 -17 2 -29 -1 -32 -9 -4
-9 2 -14 16 -14 12 0 18 -3 15 -7 -10 -10 -109 -4 -201 12 -103 18 -248 63
-241 75 3 4 -3 6 -14 3 -10 -3 -32 3 -47 11 -21 12 -23 15 -7 11 12 -3 24 -2
27 3 3 5 -9 8 -27 6 -39 -3 -89 15 -80 29 4 7 -1 8 -13 4 -15 -6 -14 -3 5 11
20 17 21 20 7 25 -11 5 -15 3 -10 -5 5 -8 2 -9 -10 -5 -10 4 -15 3 -11 -3 3
-6 -3 -10 -15 -10 -12 0 -19 4 -16 9 3 5 -1 12 -10 15 -10 4 -13 2 -8 -6 14
-22 -182 93 -198 117 -4 5 -8 6 -8 1 0 -5 -7 -3 -15 4 -11 9 -12 16 -5 25 11
14 -5 33 -17 21 -4 -3 -1 -6 6 -6 7 0 9 -4 6 -10 -10 -16 -19 -12 -64 26 -36
31 -40 38 -29 53 12 14 11 15 -5 2 -9 -8 -19 -12 -21 -10 -2 2 0 33 5 69 4 36
10 90 13 120 15 135 81 638 131 995 30 215 70 505 90 645 43 315 55 380 67
380 5 0 7 -4 3 -9 -3 -6 6 -7 23 -2 17 5 36 5 46 -1 9 -5 24 -7 32 -4 8 3 17
0 20 -8 4 -9 27 -14 76 -15 38 -1 123 -6 187 -11 64 -5 136 -9 161 -9 l45 1
-55 14 c-30 7 -131 17 -223 22 -93 5 -172 13 -175 18 -8 12 -93 45 -121 47
-24 1 -25 -7 25 309 19 120 34 235 34 256 0 47 -41 116 -96 159 -141 110 -453
198 -872 244 l-112 12 -31 48 c-36 57 -112 129 -136 129 -9 0 -26 9 -37 19
-12 11 -37 22 -56 25 -35 5 -115 77 -101 92 3 4 1 4 -6 1 -11 -7 -63 46 -63
65 0 37 -41 84 -129 149 -53 40 -112 84 -131 98 -19 15 -47 34 -63 44 -33 22
-75 82 -82 122 -10 51 8 62 145 89 196 39 347 56 590 67 124 5 259 16 301 24
101 20 111 19 210 -10 93 -28 248 -55 469 -80 389 -44 764 -96 1380 -189 525
-79 920 -112 1142 -95 140 11 224 54 216 111 -2 18 -11 24 -43 30 -142 24
-166 26 -200 17 -33 -9 -226 4 -248 18 -5 3 -128 9 -275 14 -256 8 -448 24
-652 55 -52 8 -192 23 -310 34 -227 21 -394 40 -575 65 -225 31 -261 36 -312
42 -29 3 -53 9 -53 13 0 9 -78 24 -200 40 -94 13 -293 85 -347 126 -17 13 -44
48 -60 76 -15 29 -35 54 -43 55 -9 2 -34 -24 -60 -61 -45 -65 -85 -92 -163
-111 -36 -10 -44 -23 -9 -18 23 3 24 2 7 -6 -11 -5 -40 -10 -65 -11 -25 0 -85
-7 -135 -16 -49 -8 -141 -19 -203 -24 -62 -6 -154 -17 -205 -25 -128 -21 -205
-19 -272 6 -31 11 -62 18 -70 15 -23 -9 -18 51 9 109 12 28 43 73 67 101 51
59 171 164 188 164 15 0 14 -13 -1 -30 -11 -12 -10 -12 2 -3 8 5 48 23 88 38
40 16 77 35 84 42 8 10 -5 8 -43 -6 -96 -37 -139 -24 -139 41 0 22 3 23 78 24
93 1 163 29 255 103 71 56 178 165 196 199 7 12 16 20 20 17 5 -2 8 1 7 8 -2
20 87 187 100 187 6 0 17 -7 24 -15 11 -13 10 -14 -4 -9 -12 4 -16 0 -16 -15
0 -23 15 -29 23 -8 3 6 6 -8 6 -33 l1 -45 -20 33 c-11 18 -20 37 -20 43 0 6
-5 7 -10 4 -8 -5 -7 -12 2 -23 11 -13 10 -15 -4 -9 -11 4 -18 2 -19 -6 -2 -30
-10 -62 -20 -74 -9 -10 -8 -13 4 -13 9 0 19 9 22 21 6 17 9 18 23 7 16 -12 16
-11 0 7 -14 18 -15 22 -2 39 8 11 14 17 14 14 0 -4 3 -14 7 -24 5 -13 3 -15
-7 -9 -8 5 -11 4 -7 -3 11 -17 38 -7 53 19 13 23 13 23 14 3 0 -12 -11 -29
-25 -38 -14 -9 -24 -20 -23 -24 4 -12 -33 -62 -46 -62 -6 0 -43 -32 -81 -71
l-70 -71 47 24 c26 12 49 31 51 41 5 18 27 24 27 7 0 -5 -4 -10 -10 -10 -5 0
-2 -20 8 -45 9 -25 20 -45 23 -45 8 0 23 -69 34 -152 4 -34 12 -51 26 -59 49
-26 69 37 69 224 0 102 3 136 12 131 7 -5 8 -3 3 5 -9 15 -22 4 -27 -23 -1
-11 -10 -21 -18 -23 -11 -3 -11 -2 -3 4 8 6 9 14 3 23 -7 11 -10 12 -10 2 0
-7 -5 -10 -12 -6 -6 4 -8 3 -4 -4 11 -19 -17 -26 -30 -7 -15 21 -10 37 10 29
24 -9 75 25 111 74 38 51 43 72 20 72 -18 0 -19 12 -3 28 17 17 18 88 2 135
-8 22 -32 66 -54 98 -22 32 -40 68 -40 78 0 11 -9 22 -19 26 -19 6 -48 84 -66
175 -11 56 -47 171 -68 220 -26 58 -131 186 -160 194 -65 17 -145 0 -176 -38
-8 -9 -18 -16 -24 -16 -17 0 55 70 93 90 24 13 56 19 100 19 58 0 69 -3 107
-32z m2313 23 c-8 -5 -19 -10 -25 -10 -5 0 -3 5 5 10 8 5 20 10 25 10 6 0 3
-5 -5 -10z m-120 -52 c-108 -62 -199 -146 -271 -250 -40 -59 -59 -77 -38 -35
64 121 178 234 297 292 68 35 76 30 12 -7z m592 17 c79 -17 163 -54 159 -70
-2 -5 -8 -8 -14 -7 -148 45 -293 54 -417 28 -80 -17 -196 -69 -277 -125 -119
-81 -232 -230 -287 -379 -27 -73 -33 -82 -56 -82 -13 0 -28 -16 -44 -47 -13
-27 -32 -55 -42 -64 -26 -23 -144 -61 -314 -103 -80 -19 -179 -47 -220 -61
-41 -15 -102 -28 -135 -30 l-60 -4 100 40 c118 48 186 71 275 94 239 60 283
86 334 193 20 42 56 110 81 150 25 41 45 77 45 82 0 4 7 13 15 20 8 7 28 35
44 64 66 115 259 271 351 283 36 5 40 4 33 -13 -5 -15 -4 -17 8 -8 8 6 43 19
79 28 36 10 70 20 75 21 31 10 204 3 267 -10z m-2880 -26 c13 -6 28 -18 33
-28 11 -20 70 -111 82 -126 4 -5 14 -26 21 -45 90 -232 116 -502 63 -653 -28
-81 -78 -170 -118 -214 -20 -21 -30 -31 -25 -23 25 36 84 190 97 250 58 286
35 530 -69 707 -37 63 -96 123 -121 123 -8 0 -15 5 -15 10 0 13 23 13 52 -1z
m3192 -96 c96 -73 145 -128 205 -232 58 -101 87 -179 73 -193 -9 -9 -12 -9
-12 3 -1 7 -9 32 -20 54 -11 22 -19 48 -20 58 0 9 -4 17 -10 17 -5 0 -10 9
-10 20 0 11 -4 20 -9 20 -5 0 -29 28 -55 63 -25 34 -54 68 -65 74 -12 7 -18
19 -15 27 4 9 -5 20 -25 30 -36 19 -45 20 -35 4 4 -7 3 -8 -5 -4 -6 4 -9 11
-7 15 8 13 -24 51 -43 51 -9 0 -22 5 -29 12 -6 6 -14 9 -17 6 -3 -3 13 -17 35
-32 22 -14 40 -29 40 -32 0 -3 -20 9 -44 25 -29 20 -43 37 -41 48 2 10 4 21 4
26 2 15 18 5 105 -60z m-234 28 c36 -11 93 -37 128 -58 67 -41 162 -119 162
-133 0 -5 -12 3 -27 17 -121 112 -228 163 -389 183 -235 30 -505 -96 -637
-298 -79 -121 -104 -207 -114 -389 -8 -167 13 -274 83 -415 27 -56 31 -68 17
-68 -31 0 -89 75 -117 151 -76 211 -59 424 50 642 97 193 290 344 494 387 76
16 276 5 350 -19z m-3089 -7 l-34 -15 28 -15 c21 -10 31 -12 39 -4 8 8 6 9 -6
5 -12 -5 -18 -2 -18 7 0 39 80 -4 109 -60 7 -12 15 -20 20 -18 4 3 14 -4 21
-15 8 -10 20 -19 27 -19 7 0 13 -5 13 -11 0 -6 7 -18 16 -27 11 -10 13 -17 5
-20 -17 -6 -13 -33 5 -30 12 2 21 -10 31 -46 13 -44 13 -50 -3 -67 -14 -15
-19 -17 -26 -7 -6 9 -8 7 -6 -7 3 -14 10 -19 26 -17 17 2 22 -2 22 -17 0 -12
-6 -21 -12 -22 -10 0 -10 -2 0 -6 26 -10 10 -22 -25 -17 l-38 4 38 -16 c21
-10 37 -24 37 -33 -1 -13 -3 -13 -15 3 -8 11 -15 16 -15 12 0 -5 -7 -2 -16 5
-14 11 -18 10 -29 -5 -8 -10 -19 -15 -25 -11 -9 5 -9 10 -1 18 6 6 11 15 11
20 0 5 -9 -2 -21 -17 -21 -26 -46 -37 -33 -13 5 9 4 9 -6 0 -7 -6 -10 -19 -6
-29 6 -15 8 -16 24 0 23 20 28 20 36 0 3 -8 2 -12 -3 -9 -5 3 -12 1 -15 -3 -6
-11 -46 -10 -64 2 -7 4 -11 15 -8 23 3 8 1 11 -4 8 -5 -3 -18 12 -29 34 -55
106 -184 255 -234 267 -35 8 -120 -32 -164 -77 -17 -19 -47 -61 -67 -94 -20
-33 -36 -55 -36 -49 0 12 62 116 96 162 38 49 95 79 162 84 7 1 11 7 8 15 -3
8 5 18 19 25 14 6 25 15 25 20 0 5 5 6 10 3 6 -3 10 -2 10 4 0 10 38 27 53 23
4 -1 7 5 7 14 0 17 -47 -6 -158 -76 -29 -18 -54 -31 -57 -29 -7 8 91 82 148
111 60 32 102 46 137 46 23 0 22 -1 -9 -14z m2828 -75 c-9 -6 -10 -9 -2 -9 6
0 14 4 17 9 4 5 33 8 65 6 48 -2 58 0 54 11 -3 9 2 14 17 14 16 0 20 -4 16
-15 -3 -8 -1 -15 4 -15 6 0 10 5 10 10 0 6 5 10 11 10 5 0 7 -5 4 -10 -4 -7 3
-9 22 -5 22 5 25 4 13 -4 -11 -8 -7 -9 19 -4 27 5 32 3 26 -7 -6 -10 -3 -12
13 -8 13 4 19 2 16 -6 -3 -7 6 -17 18 -23 41 -20 58 -23 58 -10 1 7 10 1 21
-13 12 -14 26 -25 33 -25 17 0 56 -25 56 -35 0 -5 -10 -9 -21 -7 -12 1 -23 -4
-25 -11 -1 -7 0 -8 2 -3 7 14 34 2 34 -15 0 -8 10 -14 25 -14 23 0 24 -2 13
-20 -7 -11 -14 -16 -16 -10 -2 5 -7 10 -12 10 -13 0 -6 -34 10 -47 13 -11 13
-12 -3 -13 -10 0 -20 -6 -23 -14 -3 -8 -13 -12 -26 -8 -15 4 -19 2 -13 -7 4
-7 18 -11 31 -8 18 3 25 -2 33 -24 5 -16 14 -29 18 -29 5 0 14 -9 20 -19 8
-12 -12 -3 -52 23 -120 81 -266 124 -380 111 -133 -15 -272 -83 -379 -188
-125 -121 -118 -116 -146 -98 -14 8 -32 24 -41 33 -18 20 -49 15 -49 -8 0 -8
-4 -14 -9 -14 -5 0 -7 9 -4 20 3 11 9 20 14 20 5 0 9 9 9 20 0 11 -4 20 -10
20 -5 0 -7 -8 -3 -17 5 -15 4 -16 -8 -5 -11 10 -11 16 0 34 11 17 11 22 -1 29
-9 6 -6 9 10 9 22 0 22 1 8 21 -8 12 -12 28 -8 37 5 14 6 14 11 -1 4 -12 10
-14 21 -6 13 8 12 12 -5 26 -18 14 -18 15 -2 9 28 -9 41 4 20 20 -17 12 -17
13 -1 14 12 0 16 6 12 18 -5 14 -3 14 11 -3 17 -20 17 -19 11 6 -4 18 -1 31 9
39 10 9 15 9 15 1 0 -6 5 -11 10 -11 6 0 8 11 4 28 -7 24 -5 25 9 14 13 -11
16 -10 19 10 2 13 9 22 16 21 6 -2 12 3 12 10 0 6 15 22 33 34 41 28 183 94
211 97 11 2 29 7 39 11 9 4 24 5 32 2 8 -4 18 -1 22 5 5 9 8 8 11 -1 2 -7 -2
-17 -9 -22z m-2933 -205 c80 -38 114 -134 59 -170 -64 -42 -165 26 -165 109 0
29 35 77 57 77 8 0 30 -7 49 -16z m3595 -65 c16 -34 29 -63 27 -65 -2 -2 -18
26 -36 61 -17 36 -30 65 -27 65 3 0 19 -27 36 -61z m-119 -1 c-9 -9 -12 -7
-12 12 0 19 3 21 12 12 9 -9 9 -15 0 -24z m-1725 6 c-3 -3 -12 -4 -19 -1 -8 3
-5 6 6 6 11 1 17 -2 13 -5z m-467 -68 c0 -21 -49 -68 -68 -64 -22 5 -19 48 5
66 22 16 63 15 63 -2z m-1639 -23 c-12 -20 -14 -14 -5 12 4 9 9 14 11 11 3 -2
0 -13 -6 -23z m3242 6 c79 -42 28 -141 -90 -175 -51 -15 -59 -15 -89 0 -66 31
-36 113 58 160 57 28 88 32 121 15z m841 -98 c-2 -2 -4 1 -4 8 0 7 -5 9 -12 5
-8 -5 -9 -2 -5 10 4 10 7 25 8 34 1 9 5 1 9 -18 5 -19 7 -37 4 -39z m-3423 32
c-12 -20 -14 -14 -5 12 4 9 9 14 11 11 3 -2 0 -13 -6 -23z m1173 21 c36 -14 4
-29 -103 -50 l-34 -6 19 25 c11 14 26 28 34 30 24 7 67 8 84 1z m913 -116 c-3
-8 -6 -5 -6 6 -1 11 2 17 5 13 3 -3 4 -12 1 -19z m1362 -151 c1 -62 -2 -75
-11 -66 -9 8 -13 45 -12 118 0 58 2 111 4 116 5 19 18 -91 19 -168z m-1289
148 c0 -8 -4 -15 -10 -15 -5 0 -7 7 -4 15 4 8 8 15 10 15 2 0 4 -7 4 -15z
m-2692 -312 c55 -23 233 12 340 66 26 13 40 16 37 9 -3 -7 -34 -27 -70 -43
-36 -17 -65 -34 -65 -38 0 -5 -4 -5 -10 -2 -5 3 -10 0 -10 -7 0 -9 -3 -9 -10
2 -5 8 -10 10 -10 5 0 -6 -12 -11 -27 -12 -93 -6 -153 -16 -153 -24 0 -6 5 -7
12 -3 7 4 8 3 4 -5 -5 -8 -16 -3 -36 16 -15 16 -40 39 -56 53 -27 24 -38 36
-73 85 -8 11 10 -4 40 -34 30 -29 69 -60 87 -68z m3949 20 c-3 -10 -5 -4 -5
12 0 17 2 24 5 18 2 -7 2 -21 0 -30z m30 15 c-3 -8 -6 -5 -6 6 -1 11 2 17 5
13 3 -3 4 -12 1 -19z m-3564 -21 c-5 -8 -8 -7 -11 1 -5 17 -22 15 -22 -3 0 -8
7 -15 15 -15 8 0 15 -8 15 -17 0 -13 -3 -14 -12 -5 -7 7 -21 11 -32 11 -17 -1
-18 -2 -3 -6 9 -2 17 -11 17 -18 0 -9 6 -12 16 -8 14 5 16 1 12 -20 -3 -17 -1
-27 7 -27 21 0 24 12 10 34 -12 18 -11 23 2 35 15 13 16 13 11 -7 -4 -12 -2
-22 3 -22 5 0 9 5 9 12 0 6 3 9 6 6 13 -13 -34 -114 -74 -159 -48 -53 -105
-90 -95 -60 3 9 12 21 20 28 12 9 12 15 1 32 -7 12 -20 21 -28 21 -12 -1 -11
-3 3 -11 14 -8 15 -14 7 -24 -6 -8 -17 -12 -25 -9 -7 3 -16 1 -20 -5 -4 -7 1
-8 12 -4 16 6 16 5 4 -10 -7 -9 -21 -17 -30 -17 -14 0 -14 -2 -1 -10 20 -12 9
-20 -19 -13 -12 3 -20 11 -17 18 2 7 -5 20 -16 30 -17 14 -18 19 -7 27 11 8
10 9 -3 4 -23 -7 -25 36 -3 54 9 7 13 15 10 18 -2 3 3 11 13 18 16 12 15 13
-6 14 -12 0 -25 -6 -28 -14 -3 -8 -12 -12 -19 -10 -7 3 -20 -4 -28 -16 l-14
-21 -6 22 c-8 32 0 40 34 34 16 -3 29 -1 29 5 0 5 11 10 25 10 14 0 25 4 25 9
0 5 8 11 18 15 22 7 55 28 64 41 5 6 8 5 8 -3 0 -7 4 -11 9 -7 6 3 15 -3 21
-12 8 -13 10 -14 9 -3 -3 29 1 40 15 40 13 0 31 27 28 42 -1 4 9 2 23 -4 13
-6 21 -16 18 -21z m2653 -106 c44 -16 109 -35 145 -41 91 -17 99 -20 69 -32
-26 -9 -40 -8 -130 19 -100 28 -184 65 -250 108 -100 64 -102 80 -3 25 48 -28
124 -63 169 -79z m598 64 c-27 -25 -81 -61 -120 -80 -74 -37 -202 -77 -216
-69 -19 12 -3 22 70 42 96 25 219 84 269 127 57 49 54 31 -3 -20z m-2094 24
c-13 -6 -28 -15 -32 -22 -10 -16 -22 -2 -15 18 4 9 18 15 39 14 32 0 32 -1 8
-10z m96 -42 c45 -42 46 -43 27 -64 -25 -30 -63 -38 -88 -18 -20 16 -20 16 2
6 27 -13 50 -5 58 20 8 23 -7 52 -41 78 -15 12 -21 21 -15 21 7 0 33 -19 57
-43z m1049 14 c-6 -5 -25 10 -25 20 0 5 6 4 14 -3 8 -7 12 -15 11 -17z m-1905
16 c0 -2 -18 -21 -41 -42 -34 -34 -39 -36 -29 -14 11 23 70 71 70 56z m-846
-22 c-4 -8 -8 -15 -10 -15 -2 0 -4 7 -4 15 0 8 4 15 10 15 5 0 7 -7 4 -15z
m2800 0 c-4 -11 1 -15 17 -15 30 0 43 -9 58 -38 15 -29 30 -21 23 13 -3 19 0
25 13 25 13 0 16 -6 12 -22 -4 -12 -1 -28 5 -35 6 -7 7 -13 4 -13 -15 0 21
-28 44 -35 22 -6 20 -2 -15 34 -21 22 -34 41 -28 41 6 0 14 -6 16 -12 4 -10 8
-9 17 2 9 12 10 11 5 -7 -4 -14 -2 -23 5 -23 6 0 18 -7 26 -15 9 -8 24 -15 35
-15 11 0 18 -4 14 -9 -3 -5 0 -13 6 -17 8 -5 10 1 7 18 -3 16 0 25 9 25 7 0
13 -5 12 -11 -1 -6 -1 -15 0 -21 1 -12 61 -16 61 -4 0 5 7 9 15 9 8 0 15 -5
15 -11 0 -5 -4 -8 -8 -5 -7 4 -52 -28 -52 -37 0 -2 16 -3 35 -4 32 -1 34 1 23
15 -11 13 -10 15 4 9 10 -3 17 -3 17 1 -3 21 3 20 24 -2 13 -14 27 -23 30 -19
4 3 7 2 7 -4 0 -6 9 -13 20 -16 25 -6 26 2 3 19 -20 14 -12 29 12 21 8 -4 15
-15 15 -26 0 -14 9 -23 26 -27 19 -5 23 -9 13 -18 -8 -8 -13 -8 -16 2 -8 21
-23 13 -20 -10 2 -19 -2 -22 -20 -20 -17 2 -21 -1 -17 -12 4 -12 0 -16 -16
-16 -18 0 -21 -4 -17 -21 6 -21 5 -21 -19 2 -13 12 -24 18 -24 12 0 -6 6 -14
13 -16 7 -3 5 -6 -5 -6 -18 -1 -48 36 -52 64 -2 17 -23 35 -40 35 -6 0 0 -9
12 -21 12 -11 20 -24 17 -30 -4 -5 -1 -9 5 -9 6 0 9 -4 5 -9 -3 -5 5 -17 17
-26 20 -13 21 -17 8 -25 -10 -7 -12 -12 -4 -17 6 -5 11 -15 11 -24 0 -11 -7
-14 -26 -11 -19 4 -21 7 -9 11 14 5 14 8 2 19 -8 7 -14 9 -14 4 0 -15 -34 -9
-47 8 -10 12 -12 12 -13 1 0 -10 -8 -12 -32 -7 -40 8 -61 26 -30 26 24 0 25 1
16 23 -6 17 -44 11 -44 -7 0 -7 -7 -13 -15 -13 -8 0 -15 4 -15 7 0 4 -14 13
-30 20 -17 7 -33 17 -36 22 -4 6 3 5 15 -1 21 -12 27 -5 13 15 -4 7 -19 11
-33 9 -20 -2 -32 5 -49 28 -18 23 -19 29 -7 24 11 -4 17 -1 17 8 0 18 -21 19
-39 3 -11 -11 -12 -10 -7 0 5 8 -2 23 -17 38 -33 33 -41 64 -17 64 27 0 34
-17 13 -29 -16 -9 -16 -10 5 -11 13 0 20 -4 17 -10 -3 -5 1 -10 9 -10 19 0 21
19 3 26 -8 3 -14 11 -14 19 0 8 6 15 14 15 7 0 13 9 13 20 0 21 -8 24 -37 13
-16 -6 -15 -8 7 -14 24 -7 24 -7 -6 -8 -16 -1 -39 6 -50 14 -18 15 -18 15 0 8
13 -4 17 -3 12 5 -5 8 1 12 18 12 23 0 25 2 16 25 -7 20 -6 25 5 25 9 0 12 -6
9 -15z m-324 -9 c0 -2 -6 -9 -13 -15 -10 -8 -14 -7 -14 4 0 8 6 15 14 15 7 0
13 -2 13 -4z m-2260 -17 c0 -11 -27 -12 -34 -1 -2 4 4 9 15 9 10 1 19 -2 19
-8z m-50 -9 c8 -5 11 -10 5 -10 -5 0 -17 5 -25 10 -8 5 -10 10 -5 10 6 0 17
-5 25 -10z m2320 -33 c-8 -9 -9 -7 -4 7 5 13 4 17 -4 12 -8 -5 -10 -2 -5 10 6
15 7 15 16 -1 6 -11 5 -21 -3 -28z m-2455 23 c9 8 15 8 20 0 3 -5 -1 -10 -9
-10 -20 0 -20 -14 -1 -33 12 -13 12 -15 -3 -20 -13 -3 -18 1 -18 17 1 11 -5
21 -11 22 -25 3 -25 4 -12 20 9 11 15 12 17 5 3 -9 8 -9 17 -1z m1565 -5 c7
-9 8 -15 2 -15 -5 0 -12 7 -16 15 -3 8 -4 15 -2 15 2 0 9 -7 16 -15z m2280
-54 c-28 -56 -35 -52 -8 4 12 24 23 43 26 41 2 -2 -6 -22 -18 -45z m-3804 24
c17 -16 14 -18 -10 -9 -9 3 -16 10 -16 15 0 13 9 11 26 -6z m2944 -1 c0 -8 -4
-12 -10 -9 -5 3 -10 10 -10 16 0 5 5 9 10 9 6 0 10 -7 10 -16z m-1100 -14 c0
-5 -5 -10 -11 -10 -5 0 -7 5 -4 10 3 6 8 10 11 10 2 0 4 -4 4 -10z m-1730 -9
c0 -5 -7 -11 -15 -15 -15 -5 -20 5 -8 17 9 10 23 9 23 -2z m2930 -11 c0 -5 -7
-10 -16 -10 -8 0 -12 5 -9 10 3 6 10 10 16 10 5 0 9 -4 9 -10z m-2984 -27 c-7
-7 -26 7 -26 19 0 6 6 6 15 -2 9 -7 13 -15 11 -17z m3474 17 c0 -5 -2 -10 -4
-10 -3 0 -8 5 -11 10 -3 6 -1 10 4 10 6 0 11 -4 11 -10z m-3530 -10 c0 -5 -2
-10 -4 -10 -3 0 -8 5 -11 10 -3 6 -1 10 4 10 6 0 11 -4 11 -10z m3489 -3 c-9
-7 -18 -19 -22 -27 -4 -10 -6 -8 -6 7 -1 19 9 26 39 32 3 0 -2 -5 -11 -12z
m-3386 -17 c3 -11 1 -20 -4 -20 -5 0 -9 9 -9 20 0 11 2 20 4 20 2 0 6 -9 9
-20z m1937 0 c0 -5 -5 -10 -11 -10 -5 0 -7 5 -4 10 3 6 8 10 11 10 2 0 4 -4 4
-10z m43 -7 c-7 -2 -19 -2 -25 0 -7 3 -2 5 12 5 14 0 19 -2 13 -5z m1367 -10
c0 -6 6 -14 13 -16 17 -8 -12 -27 -30 -20 -7 3 -20 0 -28 -7 -12 -10 -16 -8
-24 11 -5 13 -7 27 -4 32 2 4 -1 7 -6 7 -11 0 -10 -35 2 -46 15 -15 6 -24 -25
-24 l-33 0 25 -20 c18 -14 21 -20 9 -20 -25 0 -59 35 -58 61 0 17 2 20 7 9 6
-14 14 -16 40 -11 4 1 1 5 -7 10 -11 7 -10 12 5 29 14 15 31 19 66 18 29 0 48
-6 48 -13z m58 -7 c-7 -8 -15 -12 -17 -11 -5 6 10 25 20 25 5 0 4 -6 -3 -14z
m-3381 -21 c8 -9 12 -19 9 -23 -4 -3 -11 0 -15 7 -5 8 -17 11 -30 6 -22 -7
-30 10 -8 18 21 9 28 8 44 -8z m3289 -53 c1 -7 0 -8 -3 -2 -2 5 -9 10 -14 10
-6 0 -7 -4 -4 -10 3 -5 -1 -10 -9 -10 -19 0 -21 16 -3 23 17 7 30 3 33 -11z
m-66 -42 c0 -5 -7 -10 -16 -10 -8 0 -12 5 -9 10 3 6 10 10 16 10 5 0 9 -4 9
-10z m-160 -10 c0 -5 -2 -10 -4 -10 -3 0 -8 5 -11 10 -3 6 -1 10 4 10 6 0 11
-4 11 -10z m115 -10 c3 -5 1 -10 -4 -10 -6 0 -11 5 -11 10 0 6 2 10 4 10 3 0
8 -4 11 -10z m1213 -652 c4 -18 13 -33 19 -33 6 0 15 -4 20 -9 5 -5 3 -6 -4
-2 -15 8 -16 5 -7 -19 5 -11 9 -13 14 -6 4 7 11 2 18 -14 6 -14 8 -25 3 -25
-5 0 -7 -9 -4 -21 3 -11 11 -18 18 -15 19 7 48 -70 40 -105 -4 -16 -3 -29 2
-29 5 0 15 -24 21 -52 59 -248 76 -400 62 -543 -5 -55 -10 -125 -10 -155 0
-75 -16 -124 -52 -165 -36 -42 -65 -45 -107 -9 l-30 25 6 135 c4 90 2 134 -5
134 -15 0 -31 -52 -25 -83 3 -14 0 -33 -5 -44 -10 -17 -11 -17 -18 1 -4 10 -3
21 2 25 5 3 10 21 11 40 1 19 6 44 11 55 5 12 19 46 31 76 12 30 20 44 17 30
-2 -14 -7 -41 -10 -60 -10 -59 20 37 60 189 43 168 50 230 33 306 -7 33 -13
66 -12 72 0 7 -3 10 -9 7 -5 -3 -6 6 -2 22 5 18 3 25 -3 21 -6 -4 -14 5 -17
21 -4 15 -25 71 -47 124 -35 87 -48 138 -34 138 2 0 8 -15 13 -32z m184 -383
c3 -14 1 -25 -3 -25 -5 0 -9 11 -9 25 0 14 2 25 4 25 2 0 6 -11 8 -25z m-4668
-174 c40 -76 60 -191 35 -206 -6 -4 -8 -12 -6 -19 17 -46 19 -58 6 -51 -8 5
-11 5 -7 0 24 -26 -79 -102 -172 -127 -36 -9 -53 -17 -39 -17 50 -2 128 30
195 79 64 47 73 50 123 49 70 -3 96 23 88 87 l-4 42 31 -10 c17 -6 36 -15 41
-19 6 -4 25 -10 42 -14 18 -3 44 -10 58 -15 39 -15 55 -12 55 10 0 31 13 24
59 -29 40 -48 81 -127 81 -157 0 -13 -53 -117 -70 -139 -13 -16 1 -32 33 -40
40 -10 24 -23 -95 -81 -86 -41 -111 -49 -153 -47 -51 2 -76 -9 -88 -39 -5 -14
2 -20 30 -27 30 -9 42 -7 68 8 16 10 29 23 28 30 -2 6 4 11 13 11 22 0 182 79
280 138 44 26 88 46 96 43 8 -3 26 -16 41 -27 l27 -22 -35 -52 c-19 -29 -35
-58 -35 -65 0 -7 -3 -22 -7 -32 -6 -15 -4 -16 8 -6 8 7 20 8 28 4 17 -11 -41
-37 -91 -40 -19 -1 -20 -3 -8 -11 12 -8 13 -10 1 -10 -8 0 -22 -7 -32 -16 -17
-15 -19 -15 -30 9 -13 28 -49 49 -117 67 -53 14 -95 6 -127 -24 -17 -16 -48
-27 -97 -35 -40 -6 -125 -21 -188 -31 -269 -46 -258 -45 -278 -27 -30 27 -74
30 -100 7 -13 -11 -21 -24 -18 -29 4 -5 -15 -12 -41 -16 -86 -11 -80 -13 54
-14 81 -1 133 3 135 9 3 11 213 53 323 65 54 6 108 17 159 32 18 5 18 4 2 -18
-9 -13 -16 -43 -16 -66 0 -49 -2 -48 121 -58 50 -4 92 -2 120 6 24 7 47 13 51
13 3 1 10 5 15 10 5 5 2 6 -7 2 -9 -5 -8 -2 3 7 9 8 17 25 17 39 0 21 10 30
63 53 195 85 213 101 222 200 5 63 4 72 -15 93 -12 13 -33 27 -46 32 -13 5
-24 16 -24 24 0 7 -14 20 -31 29 -19 9 -27 17 -20 21 6 4 18 1 26 -7 8 -8 43
-18 77 -22 114 -11 165 -26 224 -61 37 -22 75 -37 103 -39 26 -2 58 -14 81
-30 21 -14 64 -34 96 -44 73 -22 109 -41 153 -81 39 -35 52 -33 24 3 -28 39
-72 64 -194 116 -181 75 -193 86 -50 46 196 -55 283 -119 266 -196 -4 -17 -13
-33 -21 -36 -17 -6 -19 -33 -1 -34 6 0 -1 -5 -17 -9 -35 -11 -47 -5 -39 17 11
29 -39 102 -92 134 l-50 30 47 -43 c25 -24 54 -62 63 -86 17 -42 17 -43 -5
-67 -47 -50 -222 -108 -440 -145 -431 -73 -1102 -85 -1580 -29 -236 28 -607
106 -733 156 -75 29 -147 85 -147 113 0 20 47 63 60 55 4 -3 15 6 23 19 21 32
184 111 280 134 l77 20 0 -38 c0 -21 3 -46 7 -55 5 -15 3 -16 -17 -5 -35 19
-86 4 -111 -32 -17 -23 -20 -35 -12 -47 14 -23 69 -40 131 -40 55 -1 55 -1 66
52 4 15 11 25 16 22 6 -3 10 -1 10 4 0 12 49 14 137 5 l59 -6 0 -67 c-1 -99 7
-119 50 -127 48 -9 170 1 219 17 31 11 42 22 53 51 20 53 2 94 -52 119 -43 20
-40 21 44 21 l45 -1 -40 10 c-22 6 -66 12 -98 14 -32 3 -71 12 -88 21 -38 19
-83 11 -104 -19 -14 -21 -23 -22 -140 -22 -69 0 -125 3 -125 8 0 16 -2 22 -9
32 -21 27 -21 66 1 99 24 37 82 81 96 72 5 -3 7 -19 4 -36 -4 -27 0 -32 32
-45 45 -19 67 -19 110 1 22 11 36 26 40 43 3 14 9 31 13 37 11 15 67 29 58 14
-3 -5 0 -10 7 -10 7 0 51 -5 98 -11 47 -5 112 -11 145 -13 33 -2 45 -1 28 1
-18 2 -33 6 -33 8 0 2 11 21 25 41 27 40 31 64 14 95 -15 30 -47 37 -98 25
-37 -10 -49 -19 -63 -46 -17 -33 -17 -35 3 -68 l20 -34 -38 7 c-21 4 -59 16
-85 27 -45 19 -46 21 -36 49 18 52 73 81 187 98 24 3 46 12 49 19 3 9 -4 11
-25 7 -15 -4 12 10 60 31 48 20 90 34 93 31 3 -3 -2 -17 -11 -31 -23 -35 -14
-53 34 -67 36 -11 44 -9 86 13 41 21 49 31 66 78 24 68 24 76 -1 83 -17 4 -18
9 -10 38 5 18 8 34 6 37 -2 2 -7 -7 -11 -20 -9 -29 -44 -68 -62 -68 -7 0 -13
2 -13 5 0 10 59 120 80 150 l22 30 -6 -43 c-9 -63 10 -44 25 25 l13 57 16 -54
c9 -30 25 -70 34 -89z m26 24 c0 -6 36 -47 81 -91 81 -80 105 -111 95 -122 -3
-3 -17 5 -30 17 -24 23 -26 23 -70 8 l-46 -16 0 42 c0 23 -9 61 -20 85 -10 23
-24 58 -29 78 -8 30 -8 34 5 23 8 -6 14 -17 14 -24z m3922 -70 c0 -5 -5 -11
-10 -13 -5 -1 -9 4 -9 13 0 9 4 14 9 13 5 -2 10 -8 10 -13z m-4052 -35 c0 -5
-7 -10 -16 -10 -8 0 -12 5 -9 10 3 6 10 10 16 10 5 0 9 -4 9 -10z m-90 -10 c0
-5 -5 -10 -11 -10 -5 0 -7 5 -4 10 3 6 8 10 11 10 2 0 4 -4 4 -10z m350 -180
c0 -5 -5 -10 -11 -10 -5 0 -7 5 -4 10 3 6 8 10 11 10 2 0 4 -4 4 -10z m-615
-80 c3 -5 1 -10 -4 -10 -6 0 -11 5 -11 10 0 6 2 10 4 10 3 0 8 -4 11 -10z
m5202 -82 c-2 -13 -4 -3 -4 22 0 25 2 35 4 23 2 -13 2 -33 0 -45z m-3987 42
c0 -5 -2 -10 -4 -10 -3 0 -8 5 -11 10 -3 6 -1 10 4 10 6 0 11 -4 11 -10z m285
-31 c329 -64 550 -162 583 -259 13 -36 -1 -48 -21 -17 -32 48 -99 107 -149
131 -55 25 -242 84 -338 106 -30 7 -63 16 -72 21 -10 5 -64 16 -120 24 -57 8
-116 16 -133 19 -16 2 11 2 60 -1 50 -2 135 -13 190 -24z m-1979 2 c-4 -5 -25
-12 -49 -16 -49 -8 -284 -80 -310 -95 -10 -6 -23 -8 -29 -4 -6 4 -8 3 -5 -3 4
-6 1 -13 -6 -16 -8 -3 -14 1 -14 9 0 24 194 87 392 128 11 2 21 4 23 5 2 0 1
-3 -2 -8z m-51 -40 c-11 -9 -94 -26 -84 -17 4 4 33 13 89 25 2 1 0 -3 -5 -8z
m2165 -41 c18 -12 2 -12 -25 0 -13 6 -15 9 -5 9 8 0 22 -4 30 -9z m-380 -20
c0 -5 -2 -10 -4 -10 -3 0 -8 5 -11 10 -3 6 -1 10 4 10 6 0 11 -4 11 -10z
m3647 -72 c-2 -18 -4 -6 -4 27 0 33 2 48 4 33 2 -15 2 -42 0 -60z m-5647 60
c-14 -6 -52 -23 -85 -38 -33 -15 -64 -28 -70 -29 -5 -1 -14 -9 -18 -17 -9 -16
-37 -19 -37 -4 0 14 94 62 160 82 63 19 87 22 50 6z m5927 -30 c-3 -7 -5 -2
-5 12 0 14 2 19 5 13 2 -7 2 -19 0 -25z m-6133 -10 c-5 -8 -2 -9 10 -5 11 4
15 3 11 -4 -4 -5 -12 -8 -18 -6 -7 3 -25 -7 -42 -22 -26 -22 -25 -21 4 12 35
37 48 47 35 25z m2260 -30 c10 -13 13 -32 9 -47 -6 -28 -50 -81 -67 -81 -5 0
2 13 17 28 30 31 37 82 12 82 -15 0 -21 21 -8 33 11 12 21 8 37 -15z m-2288
-44 c-10 -14 -20 -23 -23 -20 -3 3 2 17 11 32 10 14 20 23 23 20 3 -3 -2 -17
-11 -32z m755 13 c-10 -9 -11 -8 -5 6 3 10 9 15 12 12 3 -3 0 -11 -7 -18z
m1490 -16 c-7 -5 -11 -14 -7 -20 5 -7 1 -9 -9 -5 -12 5 -16 2 -13 -11 2 -10
-3 -20 -9 -22 -7 -3 -13 3 -13 12 0 18 50 68 59 60 3 -4 -1 -10 -8 -14z m4332
-56 c67 -28 133 -145 124 -221 -6 -56 -21 -74 -63 -74 -76 0 -168 132 -162
232 3 44 7 54 28 65 31 16 30 16 73 -2z m-686 -17 c-3 -8 -6 -5 -6 6 -1 11 2
17 5 13 3 -3 4 -12 1 -19z m-5974 -82 c50 -49 135 -97 180 -100 18 -2 78 -17
135 -35 56 -18 108 -31 115 -28 6 2 -15 12 -48 21 -62 19 -107 37 -102 42 2 2
19 -1 38 -6 18 -5 75 -18 124 -30 50 -11 106 -25 125 -30 19 -5 108 -20 196
-34 464 -72 1209 -75 1684 -6 297 43 373 59 473 100 53 22 100 40 104 40 3 0
-2 -9 -12 -20 -10 -11 -14 -20 -9 -20 18 -1 -110 -62 -169 -80 -410 -126
-1109 -169 -1764 -110 -464 43 -784 109 -1015 211 -74 33 -77 36 -92 83 -9 26
-15 58 -15 70 2 19 2 19 6 -3 3 -13 23 -42 46 -65z m6877 31 c0 -1 11 -33 25
-71 24 -66 31 -106 19 -106 -33 0 -76 64 -88 131 -9 50 0 72 25 58 10 -5 19
-11 19 -12z m-733 -19 c-3 -8 -6 -5 -6 6 -1 11 2 17 5 13 3 -3 4 -12 1 -19z
m-2976 -34 c-5 -22 -17 -85 -25 -141 -15 -92 -34 -166 -35 -137 -1 7 -8 15
-17 18 -8 3 -13 2 -9 -3 5 -10 -94 -76 -102 -68 -8 9 20 172 31 180 12 10 -9
5 -66 -15 l-36 -12 -7 -97 -7 -97 -37 -15 c-146 -62 -602 -157 -881 -183 -41
-4 -199 -10 -350 -14 l-275 -7 257 -1 c176 -1 306 3 410 14 146 15 173 15 211
-1 13 -5 16 -3 11 8 -4 12 -1 14 15 10 23 -6 27 -19 9 -26 -8 -3 -6 -6 5 -6
12 -1 17 -10 18 -28 0 -16 1 -84 3 -153 2 -95 6 -132 19 -155 10 -18 17 -52
17 -86 l0 -56 -77 -19 c-43 -10 -81 -22 -84 -27 -4 -5 -10 -4 -13 2 -5 8 -13
8 -27 1 -10 -6 -36 -9 -57 -6 -30 5 -32 4 -12 -3 l25 -9 -24 -8 c-23 -7 -24
-8 -5 -15 10 -4 33 -8 51 -8 17 -1 35 -5 38 -11 4 -6 -21 -11 -67 -11 l-73 -2
82 -10 c82 -10 82 -10 86 -41 3 -25 4 -23 5 12 2 34 6 42 21 42 23 0 31 -65
31 -261 0 -86 4 -139 10 -139 6 0 11 12 11 28 l2 27 4 -29 c4 -23 7 -26 15
-15 8 11 9 10 4 -4 -3 -10 -6 -43 -6 -73 0 -40 -3 -53 -12 -48 -8 5 -9 2 -3
-12 8 -20 8 -71 -1 -85 -3 -5 -23 -9 -45 -9 -21 0 -39 -4 -39 -10 0 -5 -18
-10 -40 -10 l-40 0 0 -40 0 -40 43 0 44 0 11 -52 c6 -29 13 -74 17 -100 3 -27
10 -48 14 -48 15 0 11 -90 -15 -345 -63 -635 -92 -797 -173 -964 -41 -87 -86
-135 -156 -167 -50 -23 -169 -44 -248 -44 -33 0 -39 -3 -27 -11 11 -8 -36 -9
-165 -5 -171 5 -188 7 -335 46 -85 23 -167 42 -182 43 -14 1 -24 5 -22 8 2 4
-26 19 -62 33 -36 15 -92 43 -123 64 -31 20 -65 40 -76 43 -11 3 -19 12 -17
19 2 8 -1 23 -7 34 -23 45 -73 276 -61 276 4 0 21 -7 36 -15 41 -21 81 -18
139 9 65 31 87 53 121 123 26 51 29 69 29 149 -1 83 -3 95 -28 133 -15 22 -34
41 -43 41 -11 0 -10 5 7 23 12 12 33 46 46 75 20 43 24 65 21 111 -5 72 -51
172 -106 229 -23 24 -42 46 -42 49 0 7 35 0 135 -25 215 -54 260 -60 370 -48
39 4 90 9 114 11 50 4 60 10 31 18 -13 3 -18 1 -13 -6 4 -6 0 -8 -10 -4 -41
16 -52 19 -38 9 11 -8 8 -10 -13 -9 l-26 2 27 20 c71 51 93 78 108 130 15 51
17 185 3 185 -4 0 -10 16 -14 35 -3 19 -11 35 -16 35 -6 0 -7 7 -4 16 3 8 2
12 -4 9 -17 -10 -32 37 -28 86 3 26 1 54 -3 61 -5 8 -9 -9 -9 -41 l0 -55 -36
60 c-50 83 -109 140 -181 175 -116 55 -211 48 -329 -24 -38 -23 -82 -48 -98
-55 -53 -24 -190 -52 -253 -52 -60 0 -61 1 -72 32 -6 17 -27 131 -46 252 -31
199 -42 265 -62 374 -5 31 -18 43 -88 85 -7 3 -4 -29 7 -81 10 -48 18 -98 17
-112 0 -23 -1 -22 -14 9 -8 18 -17 43 -19 55 -3 11 -14 57 -24 101 -16 64 -75
374 -109 574 l-6 33 49 -27 c27 -16 59 -34 72 -42 12 -8 22 -9 22 -3 0 5 -31
26 -70 45 -48 24 -71 42 -75 58 -45 195 -45 253 2 194 19 -25 90 -57 183 -82
466 -126 868 -175 1435 -175 510 0 910 45 1169 131 174 59 322 151 347 217 14
37 22 19 10 -24z m2879 1 c6 3 10 1 10 -4 0 -17 -36 -13 -51 6 -13 15 -12 15
9 4 12 -6 27 -9 32 -6z m-2920 -4 c0 -11 -109 -85 -116 -78 -3 2 15 16 39 30
24 14 49 33 57 41 14 18 20 20 20 7z m-120 -11 c0 -5 -5 -10 -11 -10 -5 0 -7
5 -4 10 3 6 8 10 11 10 2 0 4 -4 4 -10z m3240 -40 c25 -25 25 -53 0 -109 l-20
-44 29 6 c20 4 33 1 45 -12 21 -23 20 -34 -3 -55 -35 -32 -118 7 -107 50 4 16
-1 26 -19 38 -34 23 -34 74 1 115 30 36 46 39 74 11z m-5983 -16 c-5 -5 -57
13 -57 20 0 3 14 0 31 -6 16 -6 28 -12 26 -14z m5862 -53 c12 -21 5 -31 -20
-31 -22 0 -33 16 -25 35 8 21 33 19 45 -4z m-10 -147 c2 -2 6 -23 8 -49 5 -40
4 -45 -15 -45 -18 0 -40 23 -65 67 -11 18 22 45 47 37 11 -4 23 -8 25 -10z
m390 -8 c30 -31 63 -123 55 -150 -9 -30 -34 -56 -55 -56 -22 0 -60 34 -88 80
-23 39 -29 118 -9 138 20 20 72 14 97 -12z m-3408 -106 c-9 -23 -10 -23 -10
11 -1 20 2 39 7 43 11 12 14 -27 3 -54z m3280 -76 c29 -30 33 -41 33 -89 1
-49 -2 -58 -32 -87 -28 -27 -33 -29 -30 -13 2 11 6 22 10 25 12 10 -32 52 -48
46 -8 -3 -12 -11 -8 -17 4 -8 3 -9 -5 -5 -18 12 -41 75 -41 117 0 31 5 41 27
52 34 19 54 13 94 -29z m499 -108 c0 -3 -4 -16 -9 -29 -8 -20 -7 -25 5 -23 9
1 20 9 25 17 7 12 9 11 9 -2 0 -9 -11 -21 -24 -29 -13 -7 -32 -32 -41 -55 -23
-61 -39 -73 -60 -42 -38 59 -33 130 12 156 17 10 83 16 83 7z m-3815 -56 c-4
-23 -9 -39 -12 -36 -3 2 -2 23 2 46 4 23 9 39 12 36 3 -2 2 -23 -2 -46z m3509
19 c45 -53 29 -139 -25 -139 -35 0 -79 53 -79 95 0 52 15 75 49 75 20 0 37
-10 55 -31z m-4 -189 c0 -32 -44 -16 -53 20 -5 18 -3 19 24 4 16 -8 29 -19 29
-24z m510 30 c0 -5 -4 -10 -10 -10 -5 0 -10 5 -10 10 0 6 5 10 10 10 6 0 10
-4 10 -10z m-4043 -32 c-3 -7 -5 -2 -5 12 0 14 2 19 5 13 2 -7 2 -19 0 -25z
m3671 -9 c36 -34 45 -67 13 -50 -20 11 -31 5 -31 -16 0 -7 9 -13 20 -13 41 0
17 -37 -30 -45 -19 -3 -37 -10 -40 -15 -3 -5 -13 3 -22 18 -15 25 -15 31 -1
60 11 23 21 31 32 27 13 -4 13 -3 -1 8 -16 12 -16 16 -2 35 20 28 23 28 62 -9z
m-3681 -81 c-3 -7 -5 -2 -5 12 0 14 2 19 5 13 2 -7 2 -19 0 -25z m3112 2 c6 0
11 -5 11 -11 0 -20 -33 -4 -41 21 -8 22 -8 23 5 8 7 -10 18 -18 25 -18z
m-6072 -17 c-12 -62 -36 -108 -77 -142 -28 -23 -39 -28 -33 -16 6 11 8 34 6
52 -6 39 26 96 65 118 39 20 45 18 39 -12z m7333 -143 c19 -10 43 -22 52 -26
13 -4 16 -13 12 -30 -4 -14 0 -29 9 -39 16 -16 53 -20 61 -7 2 4 -5 8 -17 7
-12 0 -23 5 -24 10 -1 6 8 9 19 7 28 -3 128 -61 128 -73 0 -6 -7 -3 -16 5 -22
22 -31 20 -11 -2 10 -10 17 -27 17 -38 0 -10 5 -26 11 -34 8 -11 9 -7 4 18 -8
39 2 42 15 6 11 -27 -3 -59 -20 -49 -4 3 -10 -4 -13 -15 -5 -18 -4 -18 19 -3
30 19 30 18 37 -33 7 -49 -8 -74 -58 -98 -19 -9 -35 -22 -35 -29 0 -17 -33
-44 -48 -39 -7 2 -32 -8 -57 -23 -25 -14 -46 -25 -46 -23 -5 12 -5 48 0 48 4
0 7 15 8 33 l2 32 -15 -39 c-7 -21 -19 -45 -25 -52 -9 -11 -8 -14 5 -14 20 0
21 -14 2 -29 -11 -9 -16 -9 -22 0 -5 8 -3 9 6 4 9 -5 11 -4 6 4 -10 16 -29 2
-22 -16 3 -8 -1 -21 -8 -29 -22 -21 -147 -104 -158 -104 -5 0 -6 -5 -3 -10 7
-12 -23 -6 -90 16 -31 10 -41 10 -48 1 -5 -7 -6 -4 -2 9 3 14 0 24 -8 27 -9 3
-12 -3 -10 -22 4 -28 -11 -60 -23 -48 -4 4 -2 18 4 32 6 14 8 25 3 25 -5 0
-12 -6 -15 -12 -8 -19 0 103 9 132 l8 25 -24 -21 c-52 -46 -98 -55 -147 -30
-41 21 -56 57 -47 108 4 24 8 67 9 96 2 34 10 62 23 80 11 15 23 37 27 48 11
35 128 143 183 169 29 14 87 32 129 40 42 8 79 17 82 20 13 12 90 3 122 -15z
m-7492 -243 c-9 -17 -22 -16 -23 1 -2 19 -17 52 -25 52 -4 0 -8 10 -8 23 0 12
-1 29 -3 37 -7 42 3 81 29 111 l27 33 6 -120 c4 -69 2 -127 -3 -137z m159 231
c31 -39 15 -140 -28 -187 -27 -29 -40 -26 -66 12 -39 58 -34 96 17 147 42 42
61 49 77 28z m2072 -82 c-2 -2 -20 -6 -39 -10 -25 -4 -31 -3 -20 4 14 9 69 15
59 6z m-2328 -278 c-20 -58 -6 -138 21 -122 7 5 9 1 5 -9 -8 -22 25 -23 43 -3
13 17 43 10 37 -9 -3 -6 0 -12 6 -12 7 0 38 -16 70 -37 63 -40 147 -79 155
-72 2 3 -16 15 -41 27 -44 21 -53 39 -21 39 9 0 12 -5 8 -12 -4 -6 -3 -8 4 -4
6 3 26 -3 44 -13 61 -37 154 -54 255 -48 50 3 99 10 109 15 11 6 -15 8 -77 5
-53 -3 -105 0 -119 5 -19 8 0 11 86 11 61 1 127 3 145 6 29 4 30 3 9 -4 -21
-7 -16 -9 25 -9 43 -1 113 15 78 17 -30 2 -9 17 38 28 32 8 74 30 117 63 72
54 113 70 179 70 50 0 146 -34 165 -58 12 -15 11 -16 -4 -4 -9 8 -21 11 -26 8
-5 -3 -27 4 -48 15 -32 17 -52 20 -112 16 -48 -3 -78 -9 -90 -21 -10 -9 -23
-16 -28 -16 -9 0 -21 -16 -54 -75 -15 -27 -16 -37 -6 -56 6 -13 11 -33 10 -44
-1 -16 6 -20 28 -21 17 -1 24 2 18 6 -9 6 -9 13 0 30 9 17 9 25 -4 39 -20 22
-20 32 0 75 20 40 63 62 144 71 41 4 51 3 40 -5 -12 -9 -11 -10 6 -6 23 7 69
-25 56 -39 -4 -5 -2 -5 5 -1 19 11 57 -80 43 -102 -10 -15 -11 -14 -7 5 3 15
1 20 -8 17 -9 -4 -16 -37 -20 -100 -5 -66 -11 -94 -20 -94 -7 0 -16 -16 -19
-35 -4 -19 -11 -35 -16 -35 -17 0 -11 -18 8 -23 9 -3 -2 -5 -26 -6 -48 -1
-117 23 -107 39 8 12 -12 50 -26 50 -6 0 -8 -7 -5 -16 5 -14 4 -15 -9 -4 -18
15 -20 35 -3 24 8 -5 9 -2 5 10 -4 10 -3 15 3 11 6 -3 10 1 10 9 0 12 -10 16
-40 16 -22 0 -40 -5 -40 -11 0 -7 -53 -9 -177 -4 -98 4 -216 7 -263 6 -118 -1
-195 10 -195 29 0 11 -17 17 -65 21 -36 4 -88 14 -116 23 -76 24 -217 92 -246
119 -14 13 -33 27 -43 31 -12 4 -15 13 -11 33 4 16 8 39 11 52 2 13 11 31 20
41 8 9 15 21 15 26 0 6 9 19 19 31 10 11 27 35 37 54 l19 34 3 -33 c2 -19 -1
-47 -7 -64z m2466 -70 c-3 -8 -6 -5 -6 6 -1 11 2 17 5 13 3 -3 4 -12 1 -19z
m-20 -10 c-3 -8 -6 -5 -6 6 -1 11 2 17 5 13 3 -3 4 -12 1 -19z m-1034 -110
c16 -20 27 -44 25 -54 -3 -15 -8 -12 -25 16 -12 19 -30 46 -40 59 -28 39 6 21
40 -21z m4545 8 c4 -34 -13 -56 -44 -56 -31 0 -32 27 -3 64 25 32 43 29 47 -8z
m-4621 -138 c-3 -8 -6 -5 -6 6 -1 11 2 17 5 13 3 -3 4 -12 1 -19z m6018 2 c3
-6 -1 -7 -9 -4 -18 7 -21 14 -7 14 6 0 13 -4 16 -10z m-7445 -184 c0 -49 3
-66 10 -56 8 13 20 11 87 -14 43 -16 98 -31 123 -34 25 -2 55 -13 68 -23 13
-10 29 -16 37 -13 15 6 60 -14 51 -23 -3 -3 -12 0 -20 7 -9 6 -21 10 -28 7 -7
-3 4 -12 26 -22 21 -9 45 -14 52 -11 8 3 14 1 14 -4 0 -6 12 -10 28 -10 15 0
40 -7 55 -15 56 -29 119 -30 201 -1 49 17 97 26 136 26 54 0 62 -3 92 -33 34
-34 47 -70 29 -81 -10 -6 -61 49 -61 66 0 6 -6 6 -15 -2 -8 -7 -15 -18 -15
-24 0 -6 4 -4 10 4 8 13 9 13 14 0 2 -8 5 -22 5 -30 0 -8 3 -35 7 -60 5 -37 2
-50 -16 -73 -20 -25 -27 -28 -75 -25 -29 1 -51 6 -49 10 3 5 -4 8 -15 8 -12 0
-21 4 -21 9 0 5 -8 12 -17 14 -10 2 -6 4 9 2 15 -1 25 2 22 7 -3 4 -20 8 -37
9 -18 0 -26 3 -19 6 14 6 16 33 2 33 -5 0 -10 5 -10 11 0 5 3 8 8 6 4 -3 7 12
7 32 0 36 -6 40 -44 32 -2 -1 3 -8 10 -18 11 -13 11 -17 2 -20 -7 -3 -13 -15
-13 -28 0 -12 -6 -27 -13 -33 -22 -19 -132 14 -169 51 -17 17 -72 32 -63 17 8
-13 9 -14 -71 14 -72 24 -135 53 -144 66 -5 8 -94 50 -106 50 -4 0 -27 16 -50
36 -31 25 -44 31 -44 20 0 -27 -29 -17 -51 17 -25 40 -20 106 12 162 21 35 23
36 36 19 8 -11 13 -46 13 -88z m7239 85 c19 -12 5 -48 -22 -57 -32 -11 -77
-12 -71 -2 20 32 -136 -43 -180 -87 -51 -51 -58 -36 -10 21 46 54 125 102 198
120 64 15 68 16 85 5z m-5847 -43 c-7 -7 -12 -8 -12 -2 0 6 3 14 7 17 3 4 9 5
12 2 2 -3 -1 -11 -7 -17z m1774 -55 c-7 -58 -18 -147 -56 -432 -12 -85 -30
-224 -40 -310 -66 -537 -96 -737 -116 -768 -8 -12 -38 -40 -67 -62 -371 -279
-1134 -342 -1692 -139 -127 47 -211 87 -275 132 -76 54 -73 54 -65 5 4 -24 5
-42 2 -39 -10 10 -35 175 -28 183 4 4 20 -12 35 -35 63 -97 188 -172 403 -242
404 -130 861 -136 1241 -14 179 57 291 122 385 224 57 62 70 98 86 239 13 108
53 431 71 570 5 39 23 162 39 275 16 113 36 258 45 322 9 65 19 124 22 133 12
31 16 13 10 -42z m-661 -5 c4 -18 9 -42 11 -53 5 -17 3 -18 -6 -5 -9 12 -10 3
-7 -39 2 -29 1 -47 -3 -40 -11 21 -20 169 -10 169 5 0 11 -15 15 -32z m4075
-119 c-47 -184 -176 -476 -338 -764 -153 -275 -230 -390 -333 -500 -21 -22
-49 -65 -63 -95 -33 -76 -86 -133 -164 -180 -76 -44 -219 -93 -337 -115 -71
-13 -464 -39 -472 -31 -3 3 76 29 182 60 82 24 157 36 215 33 52 -2 94 7 291
64 118 33 168 78 214 190 6 13 20 29 32 35 28 13 63 44 63 55 0 4 25 31 55 60
64 61 127 153 251 369 48 85 111 193 139 240 41 71 130 255 191 396 18 42 70
201 79 242 4 18 9 31 12 29 3 -3 -5 -42 -17 -88z m-660 -4 c15 -38 -10 -89
-59 -119 -47 -30 -98 -34 -108 -10 -15 39 84 154 132 154 18 0 28 -7 35 -25z
m-5320 -45 l65 -7 -66 -1 c-46 -2 -71 3 -85 14 -19 15 -19 16 1 8 11 -4 49
-11 85 -14z m410 -15 c0 -2 -6 -5 -13 -8 -8 -3 -14 1 -14 8 0 7 6 11 14 8 7
-3 13 -6 13 -8z m-332 -212 c-1 -5 4 -19 11 -33 l13 -25 -21 23 c-12 12 -19
27 -16 32 7 12 16 13 13 3z m62 -29 c0 -2 -7 -4 -15 -4 -8 0 -15 4 -15 10 0 5
7 7 15 4 8 -4 15 -8 15 -10z m-54 -186 c28 -30 17 -30 -18 0 -16 13 -24 32
-15 32 2 0 16 -14 33 -32z m-253 -29 c-7 -24 12 -31 51 -20 25 6 46 5 75 -5
93 -32 175 -39 193 -16 12 16 11 16 -7 2 -19 -14 -19 -14 -6 3 9 11 27 17 56
17 35 0 48 -5 64 -26 24 -30 27 -64 9 -83 -9 -10 -9 -12 -1 -7 9 5 11 -8 8
-51 -4 -48 -9 -62 -31 -80 -26 -21 -88 -38 -78 -21 3 4 -3 8 -12 8 -32 0 -64
40 -64 80 0 36 -1 37 -67 60 -62 22 -189 104 -221 143 -11 13 -9 15 11 13 17
-1 23 -6 20 -17z m262 -30 c-5 -7 -54 -4 -61 4 -3 3 11 4 30 4 19 -1 33 -4 31
-8z m4422 -430 c18 -49 14 -47 153 -112 83 -40 128 -73 114 -86 -5 -4 -45 -23
-89 -40 -91 -37 -182 -88 -305 -171 -95 -64 -142 -90 -163 -90 -8 0 -32 -16
-53 -35 -21 -19 -42 -35 -46 -35 -12 0 -66 -39 -108 -78 -19 -18 -52 -42 -72
-54 -21 -12 -38 -26 -38 -32 0 -6 -4 -5 -9 2 -5 9 -7 -3 -5 -29 1 -24 -2 -49
-8 -57 -8 -9 -8 -16 0 -24 15 -15 16 -32 2 -23 -5 3 -10 2 -10 -4 0 -5 5 -11
11 -13 6 -2 10 -11 8 -20 -4 -15 -11 -14 -69 6 -36 13 -87 27 -115 31 -27 5
-54 9 -60 10 -5 1 -23 3 -39 3 -36 2 -29 10 44 49 30 16 79 44 108 61 28 17
52 29 52 27 0 -13 131 139 172 201 48 69 137 150 201 180 18 9 39 25 46 36 11
18 10 19 -11 13 -59 -18 -157 -61 -207 -91 -56 -34 -77 -42 -67 -25 4 5 -7 12
-23 16 -16 3 -35 12 -41 20 -13 15 -10 46 5 57 6 5 5 8 -2 8 -7 0 -13 4 -13 9
0 5 6 12 13 14 6 2 -1 3 -17 1 -93 -12 -283 -145 -270 -189 4 -15 3 -17 -5 -6
-8 12 -14 12 -33 3 -13 -7 -15 -10 -5 -8 10 3 17 0 17 -8 0 -14 -81 -42 -112
-38 -20 2 -24 -14 -5 -21 26 -10 -10 -25 -75 -31 -37 -3 -78 -10 -91 -15 -13
-5 -51 -14 -83 -20 -43 -8 -194 -62 -240 -85 -1 -1 -5 -12 -9 -26 l-7 -25 21
23 c12 12 24 22 27 22 9 0 -17 -40 -26 -41 -21 -3 -26 -5 -50 -21 -51 -33 -82
-32 -124 6 l-38 34 64 36 c77 43 221 97 337 126 161 41 248 82 396 191 51 38
178 105 413 218 72 35 132 68 132 73 0 5 4 7 9 4 5 -4 23 5 39 19 16 13 53 30
81 36 28 6 51 13 51 16 0 3 -9 3 -20 0 -11 -3 -18 -1 -14 4 3 5 11 9 19 9 8 0
17 5 20 10 11 18 -52 -2 -160 -50 -60 -27 -98 -39 -106 -34 -5 3 -9 1 -9 -3 0
-9 -52 -43 -65 -43 -3 0 -3 5 0 10 6 9 -21 14 -70 11 -11 0 5 8 35 19 30 11
60 27 66 35 6 9 72 36 147 60 75 25 168 61 209 80 l73 36 43 -48 c23 -26 50
-69 59 -94z m-4457 101 c0 -5 -4 -10 -10 -10 -15 0 -251 -108 -356 -163 -50
-26 -104 -60 -120 -75 -58 -55 -56 -54 -115 -28 -35 15 -49 26 -39 30 8 3 44
15 79 26 35 12 107 42 160 67 171 83 355 161 379 162 12 1 22 -3 22 -9z m-301
-74 c-4 -3 -61 -26 -211 -87 -37 -14 -48 -16 -48 -5 0 7 10 18 23 25 19 10 15
11 -23 5 -25 -3 -57 -7 -72 -8 -33 -3 -74 -39 -82 -72 -5 -19 -13 -24 -40 -24
-18 0 -53 -7 -76 -15 -55 -19 -60 -19 -60 4 0 33 48 79 117 113 58 28 75 32
137 30 39 -1 89 -3 111 -3 22 -1 74 8 115 19 68 19 120 27 109 18z m432 -23
c6 -16 20 -71 30 -123 25 -127 40 -182 56 -198 12 -12 18 -32 9 -32 -1 0 -15
11 -30 25 -23 21 -31 43 -47 128 -11 56 -26 130 -33 165 -13 63 -4 84 15 35z
m4604 7 c3 -5 1 -10 -4 -10 -6 0 -11 5 -11 10 0 6 2 10 4 10 3 0 8 -4 11 -10z
m-110 -22 c5 4 4 1 0 -7 -6 -11 -4 -13 8 -8 10 3 17 2 17 -4 0 -6 5 -7 12 -3
7 4 8 3 4 -4 -4 -7 -2 -12 3 -12 6 0 12 15 12 33 1 23 3 26 6 10 5 -24 18 -30
28 -13 4 6 11 8 16 4 16 -9 -8 -31 -43 -38 -27 -5 -64 9 -107 40 -1 2 0 8 5
15 5 9 10 8 19 -4 7 -9 16 -13 20 -9z m-4535 -84 c0 -11 -23 -49 -34 -56 -16
-11 -76 -10 -76 2 0 5 -12 16 -27 25 -24 13 -24 15 -5 10 13 -4 28 -2 35 3 21
17 107 30 107 16z m3670 -14 c-25 -10 -54 -19 -65 -19 -11 0 3 8 30 18 66 24
92 25 35 1z m2881 -30 c10 -6 25 -23 34 -39 17 -33 60 -194 70 -261 9 -60 62
-223 92 -282 13 -27 20 -48 15 -48 -17 0 -8 -30 10 -36 10 -3 16 -9 13 -14 -3
-5 2 -21 11 -35 12 -19 25 -25 52 -25 58 0 32 -8 -43 -13 -83 -6 -165 -25
-183 -44 -22 -22 -30 -15 -29 23 1 20 3 32 5 25 2 -6 8 -9 13 -5 5 3 9 0 9 -5
0 -6 10 -10 23 -10 16 1 18 2 5 6 -24 6 -23 34 2 86 l21 42 -21 -24 -20 -23 0
73 c0 75 -15 149 -31 160 -17 10 -48 112 -60 193 -6 45 -15 90 -20 101 -8 20
-29 127 -29 152 0 16 34 17 61 3z m-6684 -27 c12 -8 24 -21 27 -29 3 -8 13
-14 23 -14 15 0 16 -2 3 -10 -20 -13 -33 -13 -25 0 3 6 1 10 -5 10 -7 0 -9 -8
-5 -19 4 -14 0 -20 -17 -25 -36 -9 -115 -7 -100 3 9 5 -1 8 -26 8 -23 0 -59 9
-81 20 -37 18 -41 19 -57 4 -17 -15 -17 -15 -4 2 17 23 65 48 74 39 4 -3 10
-1 15 6 8 14 107 32 136 24 11 -3 30 -11 42 -19z m-637 -14 c63 -15 74 -17 86
-18 5 -1 19 -7 29 -15 19 -13 18 -16 -25 -56 -34 -32 -50 -41 -71 -38 -17 3
-25 0 -23 -7 6 -14 -12 -17 -93 -18 -35 0 -68 5 -75 10 -7 6 -25 13 -40 17
-15 3 -30 15 -33 26 -3 11 -11 20 -16 20 -6 0 -9 7 -7 16 4 22 131 72 183 73
22 0 60 -4 85 -10z m6900 -29 c0 -6 -23 -61 -51 -123 -28 -62 -55 -130 -60
-152 -4 -22 -11 -51 -13 -64 -3 -13 -8 -26 -12 -30 -4 -3 -5 1 -2 10 4 9 2 22
-3 30 -5 9 -7 1 -6 -23 2 -24 -1 -39 -10 -42 -7 -3 -13 -13 -13 -21 0 -9 -5
-13 -11 -9 -7 4 -7 -1 1 -16 9 -16 9 -20 1 -15 -7 4 -19 1 -27 -6 -12 -10 -13
-9 -8 5 3 9 1 16 -6 16 -7 0 -10 -13 -8 -37 3 -37 2 -38 -30 -40 -20 -1 -30 3
-26 9 4 6 2 8 -3 5 -6 -4 -27 0 -47 8 -19 8 -49 15 -66 15 -26 0 -29 2 -18 14
10 11 16 11 27 2 12 -9 13 -8 7 3 -6 9 17 39 80 100 49 48 94 96 100 107 7 11
25 45 40 75 16 30 34 60 41 67 7 8 18 23 25 35 6 12 20 28 30 35 10 7 16 17
13 22 -6 10 22 29 43 30 6 0 12 -5 12 -10z m-7200 -16 c0 -3 -11 -15 -25 -26
-22 -17 -25 -26 -21 -59 3 -25 14 -47 28 -60 29 -24 84 -49 110 -49 19 0 19
-1 4 -25 -21 -32 -20 -44 6 -72 26 -28 108 -34 108 -8 0 15 25 19 110 16 53
-2 96 13 92 32 -3 16 2 18 65 21 9 1 17 -7 19 -16 1 -13 -5 -18 -21 -18 -13 0
-26 -4 -29 -9 -8 -12 158 -13 188 -1 32 12 44 60 20 77 -10 7 -29 14 -43 14
-15 1 -19 3 -10 6 9 2 49 -6 90 -17 86 -25 100 -28 154 -39 l40 -8 -47 -7
c-120 -20 -90 -126 35 -126 59 0 96 19 105 53 4 17 14 32 22 35 12 3 12 2 2
-6 -11 -7 -11 -10 3 -15 9 -4 14 -3 11 2 -3 5 2 15 11 22 15 12 16 12 10 -4
-6 -15 -4 -16 13 -7 25 13 40 5 40 -21 0 -10 4 -19 8 -19 9 0 12 -35 6 -67 -2
-12 -13 -24 -24 -28 -11 -3 -19 -12 -17 -18 1 -7 -9 -12 -23 -13 -62 -3 -71
-5 -65 -14 4 -6 -5 -10 -20 -10 -15 0 -24 -4 -20 -10 3 -6 -1 -7 -9 -4 -9 3
-16 1 -16 -4 0 -6 -9 -14 -20 -17 -23 -7 -27 -25 -5 -25 24 0 18 -26 -6 -27
-12 -1 -34 -13 -48 -26 -14 -14 -56 -34 -93 -46 -82 -26 -81 -26 -66 -1 11 17
10 22 -2 30 -8 5 -19 6 -25 2 -5 -3 -22 -5 -37 -3 -15 1 -39 -5 -55 -13 l-28
-16 43 6 c24 4 42 3 42 -3 0 -10 -17 -14 -62 -14 -16 0 -28 -4 -28 -9 0 -6
-11 -10 -25 -10 -14 0 -25 5 -25 12 0 7 -6 6 -17 -4 -23 -19 -153 -25 -153 -7
0 7 -7 5 -16 -7 -15 -19 -15 -18 -11 4 6 25 -8 30 -17 7 -3 -8 -18 -15 -34
-15 -15 0 -37 -6 -48 -14 -18 -14 -18 -15 -1 -21 9 -4 17 -15 17 -24 0 -12 -2
-13 -9 -3 -4 7 -12 12 -17 11 -21 -4 -35 2 -29 11 3 6 -2 10 -12 10 -14 1 -13
4 7 15 25 15 25 15 -15 14 -22 -1 -44 -1 -50 1 -22 5 -35 -1 -35 -16 0 -12 -6
-15 -22 -10 -13 3 -35 6 -50 6 -25 0 -28 4 -28 34 0 19 -5 38 -10 41 -6 4 -8
15 -5 24 7 22 -6 32 -62 54 -38 15 -42 15 -61 -1 -11 -9 -29 -23 -41 -31 -11
-8 -18 -18 -15 -22 7 -12 -80 3 -88 15 -4 6 -10 7 -15 3 -12 -12 18 -27 55
-27 17 0 32 -5 32 -11 0 -7 -9 -9 -22 -6 -21 5 -21 5 -6 -7 21 -16 13 -26 -20
-26 -15 0 -26 7 -29 20 -4 14 -13 19 -37 19 -46 -2 -70 9 -84 39 -19 41 -15
61 24 97 42 40 43 73 2 93 -53 25 -148 -11 -148 -57 0 -10 -3 -12 -11 -4 -14
14 -1 63 17 63 8 0 14 7 14 15 0 8 -4 15 -10 15 -5 0 -10 -5 -10 -11 0 -5 -4
-8 -9 -5 -14 9 -1 46 20 59 11 7 19 17 19 23 0 12 124 134 136 134 4 0 12 -7
19 -16 9 -13 18 -15 41 -7 37 12 34 27 -8 33 l-33 5 25 17 c14 9 39 20 55 24
17 4 38 15 47 24 17 18 118 53 218 75 69 16 70 16 70 9z m4340 -141 c-8 -3
-18 -10 -21 -15 -3 -5 -23 -11 -45 -15 -47 -7 -38 7 14 23 40 13 81 18 52 7z
m-210 -43 c-20 -7 -16 -8 25 -10 28 -1 54 -2 59 -1 5 1 4 -5 -3 -13 -10 -12
-8 -15 11 -19 13 -2 -4 -5 -37 -7 -216 -8 -341 -23 -330 -39 6 -12 -60 -24
-85 -16 -34 11 -24 41 18 53 57 17 163 32 238 33 38 1 63 4 57 6 -28 10 -10
23 30 22 36 -1 38 -2 17 -9z m177 -5 c0 -8 -4 -12 -9 -9 -5 3 -6 10 -3 15 9
13 12 11 12 -6z m3148 -45 c8 -16 15 -36 15 -45 0 -9 5 -13 11 -9 8 4 9 0 4
-15 -4 -15 -2 -21 8 -21 13 0 32 -39 23 -47 -1 -2 -15 8 -30 22 -15 14 -31 25
-35 25 -4 0 -16 9 -26 20 -11 12 -31 20 -52 20 -42 0 -43 20 -2 54 40 34 65
33 84 -4z m-3827 4 c16 -11 22 -24 20 -42 -3 -23 -8 -27 -41 -30 -42 -4 -64
10 -78 47 -7 17 -6 27 3 33 21 13 72 9 96 -8z m649 0 c-3 -3 -12 -4 -19 -1 -8
3 -5 6 6 6 11 1 17 -2 13 -5z m3053 -27 c0 -2 -10 -12 -22 -23 l-23 -19 19 23
c18 21 26 27 26 19z m-6143 -69 c-3 -7 -5 -2 -5 12 0 14 2 19 5 13 2 -7 2 -19
0 -25z m10 -50 c-3 -8 -6 -5 -6 6 -1 11 2 17 5 13 3 -3 4 -12 1 -19z m2034
-21 c-10 -9 -11 -8 -5 6 3 10 9 15 12 12 3 -3 0 -11 -7 -18z m1069 3 c0 -5
-10 -10 -22 -9 -22 0 -22 1 -3 9 11 5 21 9 23 9 1 1 2 -3 2 -9z m-3066 -79
c10 -18 13 -30 7 -27 -6 4 -4 -6 4 -21 8 -15 16 -36 19 -45 3 -10 15 -18 28
-18 17 0 19 -3 10 -12 -24 -24 76 -91 210 -141 166 -63 412 -97 698 -97 205 0
322 11 408 36 84 26 85 34 2 34 -100 0 -119 14 -41 29 34 7 61 15 61 18 0 3
-43 3 -96 -1 -256 -19 -654 7 -654 43 0 18 27 31 64 31 28 0 37 3 27 9 -8 5
-20 7 -28 4 -7 -3 -13 0 -13 7 0 8 23 11 73 10 106 -2 567 17 574 24 12 12 -4
14 -137 21 -74 4 -142 9 -150 11 -8 1 -44 3 -80 5 -42 1 -3 6 110 15 96 7 202
18 236 23 33 6 82 11 107 11 26 0 47 4 47 8 0 4 60 7 133 7 144 -1 187 -13
209 -60 26 -57 -20 -114 -136 -170 -39 -19 -66 -34 -60 -35 15 0 170 54 227
80 59 26 122 91 141 144 13 37 14 38 15 13 2 -66 -66 -135 -194 -198 -185 -90
-516 -149 -840 -149 -415 0 -755 85 -909 227 -63 58 -71 72 -90 157 -16 69
-20 111 -7 66 5 -14 16 -40 25 -59z m2026 2 c-11 -17 -11 -17 -6 0 3 10 7 33
8 50 l1 32 4 -32 c2 -18 -1 -41 -7 -50z m-99 19 c18 -20 26 -38 22 -49 -4 -11
-3 -14 5 -9 7 4 12 21 12 37 0 18 4 28 10 24 17 -11 11 -45 -16 -96 -25 -44
-61 -78 -47 -43 3 7 9 14 13 14 5 0 7 12 5 28 -2 15 -4 33 -4 40 -2 28 -68 42
-208 43 -104 1 -129 3 -103 10 117 31 162 38 219 36 57 -3 66 -6 92 -35z
m-1636 -2 c47 -8 45 -8 -30 -8 -51 0 -93 -6 -115 -16 -19 -8 -30 -15 -25 -16
23 -1 -22 -20 -48 -20 -16 0 -26 -4 -22 -10 3 -5 1 -10 -4 -10 -19 0 -13 57 7
66 42 19 164 26 237 14z m-2115 -51 c0 -11 -4 -17 -10 -14 -5 3 -10 13 -10 21
0 8 5 14 10 14 6 0 10 -9 10 -21z m7431 -1 c18 -6 45 -22 60 -36 31 -27 66
-105 50 -110 -5 -2 -8 -9 -5 -15 6 -18 -17 -44 -46 -52 -20 -5 -22 -4 -10 5
12 9 7 9 -20 3 -138 -32 -298 36 -323 138 -8 33 3 43 79 69 63 21 152 20 215
-2z m-3176 2 c-3 -5 -16 -10 -28 -9 -21 0 -21 1 -2 9 28 12 37 12 30 0z
m-1910 -29 c152 -21 162 -29 41 -30 -131 -1 -213 -25 -159 -45 14 -6 14 -8 -3
-20 -18 -14 -18 -15 0 -35 11 -12 15 -21 10 -21 -5 0 9 -9 31 -19 50 -24 82
-47 74 -56 -10 -9 -135 13 -209 37 -134 43 -231 111 -201 141 8 8 11 7 12 -3
1 -8 4 -2 8 15 10 47 39 56 181 52 69 -2 166 -9 215 -16z m1892 -12 c61 -13
119 -42 116 -57 -2 -7 3 -12 10 -12 16 0 33 -33 41 -77 5 -30 2 -35 -39 -59
-25 -14 -50 -23 -57 -21 -8 3 -6 6 5 6 9 1 17 5 17 10 0 4 -16 3 -35 -3 -27
-8 -31 -12 -17 -18 23 -9 18 -9 -141 -9 -131 0 -141 2 -183 26 -47 28 -58 46
-21 38 15 -3 18 -2 9 5 -8 5 -11 20 -7 38 5 24 4 26 -4 8 -5 -12 -14 -25 -19
-28 -13 -8 -24 22 -16 47 5 14 3 18 -7 12 -11 -6 -11 -5 -3 4 9 10 18 9 43 -3
34 -18 42 -11 14 10 -16 12 -16 15 -3 24 8 5 21 8 28 5 7 -3 26 2 42 10 16 8
47 15 70 15 22 0 40 4 40 9 0 5 10 12 23 14 12 2 -1 5 -29 6 -28 0 -68 -6 -87
-14 -42 -17 -57 -19 -57 -6 0 26 179 40 267 20z m186 -26 c-7 -3 -13 -12 -13
-21 0 -14 -2 -15 -9 -3 -7 10 -4 19 7 27 9 7 19 10 22 7 3 -3 -1 -8 -7 -10z
m-4073 -84 c10 -18 9 -20 -7 -17 -10 2 -19 11 -21 21 -5 24 15 21 28 -4z
m4695 -8 c-3 -3 18 -10 47 -17 29 -6 62 -15 72 -19 13 -6 17 -5 13 2 -4 6 -1
13 5 16 7 2 -16 7 -52 12 -36 4 -57 10 -47 12 44 11 243 -39 232 -57 -3 -5 8
-20 25 -33 16 -14 30 -32 30 -39 0 -9 -3 -9 -8 -2 -4 6 -17 13 -29 16 -18 5
-22 1 -25 -20 -2 -19 -15 -32 -48 -50 -41 -22 -54 -23 -142 -19 -87 3 -103 7
-145 33 -43 27 -48 34 -49 67 -1 46 28 81 59 72 17 -5 19 -4 7 4 -12 8 -10 11
9 19 27 10 54 12 46 3z m-3835 -27 c0 -2 -12 -4 -27 -4 -21 0 -24 3 -14 9 13
8 41 5 41 -5z m7151 -30 c-18 -8 -38 -13 -45 -11 -6 3 5 9 24 15 50 15 60 13
21 -4z m197 -3 c110 -41 141 -87 108 -164 -14 -34 -75 -86 -63 -53 4 9 3 17
-1 17 -37 6 -63 7 -59 2 14 -13 -67 -54 -102 -52 -20 1 -45 1 -56 0 l-20 -2
20 -9 c20 -8 19 -9 -1 -9 -12 -1 -27 6 -34 14 -7 8 -19 15 -27 15 -8 0 -12 3
-9 8 2 4 -14 6 -36 3 -34 -3 -40 -1 -35 12 4 12 2 14 -10 10 -13 -5 -15 -1
-11 22 7 36 0 55 -17 49 -7 -3 -19 4 -25 16 -10 19 -9 27 8 49 11 14 27 25 35
25 10 -1 13 4 10 13 -5 13 1 14 34 8 28 -4 52 -1 79 10 25 10 53 14 79 10 31
-4 35 -3 18 5 -13 5 -23 12 -23 15 0 12 90 3 138 -14z m-8033 -1 c3 -5 1 -10
-4 -10 -6 0 -11 5 -11 10 0 6 2 10 4 10 3 0 8 -4 11 -10z m142 -7 c-4 -3 -1
-13 5 -21 10 -12 9 -14 -6 -11 -24 5 -31 39 -8 39 8 0 12 -3 9 -7z m7508 -162
c6 -34 16 -45 26 -30 6 10 9 10 9 2 0 -6 -4 -14 -9 -18 -12 -7 -41 34 -41 59
0 24 9 16 15 -13z m45 14 c0 -2 -6 -8 -13 -14 -10 -8 -14 -7 -14 2 0 8 6 14
14 14 7 0 13 -1 13 -2z m370 -55 c0 -5 -4 -10 -10 -10 -5 0 -10 5 -10 10 0 6
5 10 10 10 6 0 10 -4 10 -10z m-52 -42 c-3 -8 -25 -13 -61 -14 l-57 -1 55 4
c32 2 53 8 50 14 -4 5 -1 9 5 9 7 0 10 -6 8 -12z m-251 -4 c-3 -3 -12 -4 -19
-1 -8 3 -5 6 6 6 11 1 17 -2 13 -5z"/>
<path d="M4408 6953 c7 -3 16 -2 19 1 4 3 -2 6 -13 5 -11 0 -14 -3 -6 -6z"/>
<path d="M3585 6303 c-81 -10 -255 -48 -291 -63 -22 -10 -63 -32 -90 -48 -69
-43 -36 -52 47 -12 35 16 71 30 79 29 10 0 8 -3 -5 -9 -13 -6 -2 -7 30 -3 28
3 57 9 65 13 8 4 34 11 57 15 54 9 67 25 16 19 -34 -3 -33 -2 12 11 28 9 62
14 77 12 15 -2 25 0 22 4 -6 11 218 22 300 16 l71 -6 -50 14 c-47 13 -260 18
-340 8z m-195 -83 c-8 -5 -22 -9 -30 -9 -10 0 -8 3 5 9 27 12 43 12 25 0z"/>
<path d="M4515 6242 c14 -13 129 -32 198 -32 98 0 700 -92 722 -110 7 -6 21
-7 30 -3 12 4 16 3 12 -4 -4 -6 3 -8 18 -5 14 2 42 1 62 -3 36 -8 37 -8 13
-16 -19 -7 -15 -8 16 -4 22 3 95 -6 165 -20 68 -14 162 -33 208 -42 61 -12 78
-19 65 -25 -13 -6 -9 -7 14 -3 40 6 178 -22 209 -42 13 -8 30 -13 38 -9 8 3
27 1 42 -5 27 -10 174 -52 248 -70 21 -6 44 -13 50 -18 5 -4 24 -5 40 -1 37 7
25 15 -58 40 -34 10 -109 32 -167 49 -58 17 -163 45 -235 61 -71 17 -148 35
-170 40 -244 59 -832 165 -1130 204 -149 19 -403 31 -390 18z"/>
<path d="M7145 6040 c3 -5 8 -10 11 -10 2 0 4 5 4 10 0 6 -5 10 -11 10 -5 0
-7 -4 -4 -10z"/>
<path d="M7238 5923 c0 -4 -2 -12 -3 -18 -2 -5 -3 -16 -4 -22 0 -7 -6 -13 -12
-13 -7 0 -9 10 -7 25 6 31 3 31 -25 4 -12 -12 -16 -19 -10 -15 9 5 11 2 7 -8
-3 -9 -1 -16 5 -16 6 0 11 -8 11 -17 0 -15 -3 -14 -15 4 -9 13 -22 20 -30 17
-12 -5 -12 -8 -1 -19 24 -24 68 -23 59 2 -5 12 -2 15 10 10 18 -7 30 6 33 40
2 21 -14 45 -18 26z"/>
<path d="M6195 5910 c3 -5 11 -10 16 -10 6 0 7 5 4 10 -3 6 -11 10 -16 10 -6
0 -7 -4 -4 -10z"/>
<path d="M7205 5739 c-11 -16 -1 -19 13 -3 7 8 8 14 3 14 -5 0 -13 -5 -16 -11z"/>
<path d="M6876 5721 c-6 -10 43 -25 52 -16 3 3 -2 5 -11 5 -9 0 -17 5 -17 10
0 12 -17 13 -24 1z"/>
<path d="M7156 5568 c5 -8 1 -9 -12 -4 -14 5 -16 4 -7 -4 7 -8 17 -9 28 -3 16
9 16 10 1 16 -12 5 -15 3 -10 -5z"/>
<path d="M7005 5510 c-3 -6 1 -7 9 -4 18 7 21 14 7 14 -6 0 -13 -4 -16 -10z"/>
<path d="M6893 5479 c-90 -17 -286 -90 -411 -153 -132 -65 -267 -145 -246
-146 6 0 22 8 35 18 90 66 438 202 672 262 87 23 47 39 -50 19z"/>
<path d="M6776 5392 c-10 -16 18 -21 39 -6 17 12 17 14 2 14 -9 0 -17 -6 -17
-12 0 -10 -3 -9 -9 1 -5 8 -11 9 -15 3z"/>
<path d="M5520 4415 c0 -2 33 -14 73 -26 39 -12 102 -37 140 -56 37 -18 67
-31 67 -28 0 9 -135 73 -200 94 -65 21 -80 25 -80 16z"/>
<path d="M7550 4396 c0 -2 7 -9 15 -16 9 -7 15 -8 15 -2 0 5 -7 12 -15 16 -8
3 -15 4 -15 2z"/>
<path d="M7641 4273 c5 -15 26 -43 46 -61 20 -18 33 -26 29 -17 -3 9 -6 23 -6
32 0 9 -6 13 -15 9 -10 -3 -15 1 -15 12 0 9 -12 25 -25 35 l-25 18 11 -28z"/>
<path d="M5985 4240 c11 -18 211 -89 295 -105 71 -14 13 13 -138 64 -168 56
-166 55 -157 41z"/>
<path d="M7726 4162 c-5 -9 22 -48 29 -41 2 3 2 15 -2 27 -5 22 -18 29 -27 14z"/>
<path d="M6463 3983 c-16 -6 -17 -33 -2 -33 5 0 8 4 4 9 -10 16 14 22 37 10
13 -7 40 -26 60 -43 31 -25 38 -38 38 -67 0 -41 -13 -56 -56 -65 -34 -6 -59
15 -67 56 -4 21 -4 20 -6 -7 -2 -55 66 -83 117 -47 19 13 23 23 20 61 -3 41
-8 50 -48 83 -46 39 -76 52 -97 43z"/>
<path d="M6670 3895 c-25 -30 17 -95 53 -82 7 3 0 10 -15 16 -21 8 -28 17 -28
37 0 24 3 26 39 22 31 -3 37 -1 29 9 -14 18 -63 16 -78 -2z"/>
<path d="M7095 3883 c-11 -25 -14 -43 -8 -43 9 0 32 34 33 48 0 18 -17 15 -25
-5z"/>
<path d="M6515 3574 c-11 -12 -14 -25 -10 -43 13 -52 46 -67 65 -30 25 46 -21
107 -55 73z m45 -25 c7 -11 9 -27 6 -35 -8 -22 -43 -17 -49 7 -12 46 22 68 43
28z"/>
<path d="M4553 2407 c0 -7 9 -14 20 -14 11 -1 18 -1 16 0 -2 2 -11 8 -20 15
-12 9 -16 9 -16 -1z"/>
<path d="M6256 2254 c-5 -14 -4 -15 9 -4 17 14 19 20 6 20 -5 0 -12 -7 -15
-16z"/>
<path d="M6515 2181 c3 -5 31 -19 62 -31 30 -11 76 -33 102 -47 l46 -27 -25
29 c-18 21 -20 27 -8 22 10 -3 20 -2 23 3 4 6 -5 10 -20 10 -14 0 -53 11 -87
25 -63 26 -104 32 -93 16z"/>
<path d="M4760 2140 c-9 -6 -10 -10 -3 -10 6 0 15 5 18 10 8 12 4 12 -15 0z"/>
<path d="M4930 2076 c0 -2 7 -7 16 -10 8 -3 12 -2 9 4 -6 10 -25 14 -25 6z"/>
<path d="M5918 2058 c6 -6 18 -8 28 -6 14 3 12 5 -9 10 -19 3 -25 2 -19 -4z"/>
<path d="M5836 2043 c-6 -14 -5 -15 5 -6 7 7 10 15 7 18 -3 3 -9 -2 -12 -12z"/>
<path d="M6007 2049 c7 -7 15 -10 18 -7 3 3 -2 9 -12 12 -14 6 -15 5 -6 -5z"/>
<path d="M4943 2025 c0 -8 4 -12 9 -9 5 3 6 10 3 15 -9 13 -12 11 -12 -6z"/>
<path d="M5903 2033 c9 -2 23 -2 30 0 6 3 -1 5 -18 5 -16 0 -22 -2 -12 -5z"/>
<path d="M5606 1977 c3 -10 9 -15 12 -12 3 3 0 11 -7 18 -10 9 -11 8 -5 -6z"/>
<path d="M5645 1970 c-3 -5 -1 -10 4 -10 6 0 11 5 11 10 0 6 -2 10 -4 10 -3 0
-8 -4 -11 -10z"/>
<path d="M3309 8213 c-30 -7 -29 -39 1 -57 27 -15 28 -15 23 3 -3 12 -11 17
-19 14 -19 -7 -18 2 2 22 19 18 16 23 -7 18z"/>
<path d="M3350 8185 c0 -8 2 -15 4 -15 2 0 6 7 10 15 3 8 1 15 -4 15 -6 0 -10
-7 -10 -15z"/>
<path d="M3625 8150 c3 -5 8 -10 11 -10 2 0 4 5 4 10 0 6 -5 10 -11 10 -5 0
-7 -4 -4 -10z"/>
<path d="M3682 8045 c0 -11 3 -29 8 -40 11 -25 11 1 0 35 -6 20 -8 21 -8 5z"/>
<path d="M6320 8230 c-13 -8 -12 -10 3 -10 9 0 17 5 17 10 0 12 -1 12 -20 0z"/>
<path d="M6140 8210 c0 -5 7 -7 15 -4 8 4 15 8 15 10 0 2 -7 4 -15 4 -8 0 -15
-4 -15 -10z"/>
<path d="M6448 8173 c7 -3 16 -2 19 1 4 3 -2 6 -13 5 -11 0 -14 -3 -6 -6z"/>
<path d="M6455 8150 c3 -5 8 -10 11 -10 2 0 4 5 4 10 0 6 -5 10 -11 10 -5 0
-7 -4 -4 -10z"/>
<path d="M6519 8103 c0 -5 -2 -16 -4 -27 -3 -14 -1 -16 8 -7 14 14 18 41 6 41
-5 0 -9 -3 -10 -7z"/>
<path d="M6348 8073 c7 -3 16 -2 19 1 4 3 -2 6 -13 5 -11 0 -14 -3 -6 -6z"/>
<path d="M6543 8065 c-15 -17 -17 -45 -3 -45 6 0 10 9 10 20 0 11 5 20 10 20
6 0 10 5 10 10 0 14 -13 12 -27 -5z"/>
<path d="M6267 8040 c-3 -11 -1 -20 4 -20 5 0 9 9 9 20 0 11 -2 20 -4 20 -2 0
-6 -9 -9 -20z"/>
<path d="M6620 8051 c0 -5 -12 -12 -27 -16 -26 -7 -26 -8 -8 -15 14 -5 25 -2
38 11 19 21 22 29 7 29 -5 0 -10 -4 -10 -9z"/>
<path d="M6680 8005 c10 -12 9 -15 -7 -15 -10 0 -24 5 -31 12 -9 9 -12 9 -12
1 0 -12 10 -16 65 -27 17 -4 25 -3 19 1 -6 4 -13 16 -17 26 -3 9 -12 17 -18
17 -8 0 -8 -4 1 -15z"/>
<path d="M5807 7881 c-4 -17 -3 -21 5 -13 5 5 8 16 6 23 -3 8 -7 3 -11 -10z"/>
<path d="M5787 7835 c-4 -8 -2 -17 3 -20 6 -4 10 3 10 14 0 25 -6 27 -13 6z"/>
<path d="M5900 7790 c0 -5 -7 -10 -16 -10 -11 0 -14 -6 -10 -17 6 -16 5 -16
-8 0 -10 12 -16 15 -21 7 -9 -15 24 -39 45 -33 11 3 17 15 17 34 0 16 -2 29
-4 29 -1 0 -3 -4 -3 -10z"/>
<path d="M3460 7359 c0 -7 -8 -18 -17 -25 -17 -13 -17 -14 2 -7 29 10 48 43
25 43 -5 0 -10 -5 -10 -11z"/>
<path d="M3325 7300 c-3 -5 1 -10 10 -10 9 0 13 5 10 10 -3 6 -8 10 -10 10 -2
0 -7 -4 -10 -10z"/>
<path d="M3430 7273 c0 -30 9 -27 15 6 2 11 0 21 -6 21 -5 0 -9 -12 -9 -27z"/>
<path d="M3500 7290 c0 -5 -9 -12 -21 -15 -11 -4 -18 -9 -15 -12 5 -5 76 24
76 30 0 2 -9 3 -20 4 -11 1 -20 -2 -20 -7z"/>
<path d="M3485 7240 c-3 -5 -1 -10 4 -10 6 0 11 5 11 10 0 6 -2 10 -4 10 -3 0
-8 -4 -11 -10z"/>
<path d="M3460 7199 c0 -5 5 -7 10 -4 6 3 10 8 10 11 0 2 -4 4 -10 4 -5 0 -10
-5 -10 -11z"/>
<path d="M3327 7179 c7 -7 15 -10 18 -7 3 3 -2 9 -12 12 -14 6 -15 5 -6 -5z"/>
<path d="M5960 7276 c0 -9 7 -12 20 -9 11 3 20 9 20 14 0 5 -9 9 -20 9 -11 0
-20 -6 -20 -14z"/>
<path d="M5945 7240 c-3 -5 1 -10 10 -10 9 0 13 5 10 10 -3 6 -8 10 -10 10 -2
0 -7 -4 -10 -10z"/>
<path d="M5960 7210 c0 -5 5 -10 10 -10 6 0 10 5 10 10 0 6 -4 10 -10 10 -5 0
-10 -4 -10 -10z"/>
<path d="M6135 7209 c-4 -6 -5 -12 -2 -15 2 -3 7 2 10 11 7 17 1 20 -8 4z"/>
<path d="M6280 7195 c0 -3 9 -15 20 -27 22 -24 27 -13 6 15 -13 16 -26 23 -26
12z"/>
<path d="M6180 7180 c0 -5 5 -10 11 -10 5 0 7 5 4 10 -3 6 -8 10 -11 10 -2 0
-4 -4 -4 -10z"/>
<path d="M6000 7176 c0 -2 9 -6 20 -9 11 -3 20 -1 20 4 0 5 -9 9 -20 9 -11 0
-20 -2 -20 -4z"/>
<path d="M6250 7160 c0 -4 9 -10 20 -13 11 -3 20 -2 20 3 0 4 -9 10 -20 13
-11 3 -20 2 -20 -3z"/>
<path d="M5935 7150 c3 -5 8 -10 11 -10 2 0 4 5 4 10 0 6 -5 10 -11 10 -5 0
-7 -4 -4 -10z"/>
<path d="M5960 7150 c0 -6 7 -10 15 -10 8 0 15 2 15 4 0 2 -7 6 -15 10 -8 3
-15 1 -15 -4z"/>
<path d="M6010 7130 c0 -6 7 -10 15 -10 8 0 15 2 15 4 0 2 -7 6 -15 10 -8 3
-15 1 -15 -4z"/>
<path d="M6255 7130 c3 -5 8 -10 11 -10 2 0 4 5 4 10 0 6 -5 10 -11 10 -5 0
-7 -4 -4 -10z"/>
<path d="M6041 7094 c0 -11 3 -14 6 -6 3 7 2 16 -1 19 -3 4 -6 -2 -5 -13z"/>
<path d="M6155 7100 c-3 -6 1 -7 9 -4 18 7 21 14 7 14 -6 0 -13 -4 -16 -10z"/>
<path d="M6188 7073 c6 -2 18 -2 25 0 6 3 1 5 -13 5 -14 0 -19 -2 -12 -5z"/>
<path d="M6575 7190 c-3 -5 -1 -10 4 -10 6 0 11 5 11 10 0 6 -2 10 -4 10 -3 0
-8 -4 -11 -10z"/>
<path d="M7755 6240 c3 -5 8 -10 11 -10 2 0 4 5 4 10 0 6 -5 10 -11 10 -5 0
-7 -4 -4 -10z"/>
<path d="M7756 6203 c-4 -9 -4 -14 0 -10 5 4 14 -3 21 -15 l14 -23 -7 25 c-9
35 -20 44 -28 23z"/>
<path d="M3450 5563 c-37 -10 -77 -123 -44 -123 8 0 14 -4 14 -10 0 -5 8 -10
17 -10 18 0 -122 -71 -199 -100 -45 -17 -48 -17 -53 0 -12 38 -42 52 -116 56
-83 5 -99 -4 -99 -51 0 -30 3 -33 46 -45 58 -17 45 -24 -71 -45 -101 -17 -125
-28 -44 -20 91 10 252 47 289 66 81 42 238 109 270 115 100 19 137 78 89 145
-20 28 -53 36 -99 22z"/>
<path d="M2928 5423 c6 -2 18 -2 25 0 6 3 1 5 -13 5 -14 0 -19 -2 -12 -5z"/>
<path d="M4350 5268 c0 -9 -17 -13 -56 -13 -51 0 -58 -3 -86 -34 -16 -18 -26
-36 -21 -40 4 -3 19 -23 33 -43 14 -21 37 -43 53 -49 15 -6 27 -15 27 -19 0
-4 11 -19 25 -34 13 -14 20 -26 15 -26 -6 0 -10 -5 -10 -11 0 -7 11 -9 31 -5
58 11 97 37 115 74 16 35 16 37 -7 80 -13 25 -40 55 -61 68 -21 13 -38 31 -38
39 0 7 -4 17 -10 20 -5 3 -10 0 -10 -7z"/>
<path d="M2820 5261 c0 -5 9 -7 20 -4 11 3 20 7 20 9 0 2 -9 4 -20 4 -11 0
-20 -4 -20 -9z"/>
<path d="M2778 5253 c6 -2 18 -2 25 0 6 3 1 5 -13 5 -14 0 -19 -2 -12 -5z"/>
<path d="M1993 5193 c9 -2 23 -2 30 0 6 3 -1 5 -18 5 -16 0 -22 -2 -12 -5z"/>
<path d="M1924 5181 c3 -4 -1 -17 -9 -27 -15 -18 -15 -18 -9 1 6 16 4 18 -6 8
-28 -26 23 -123 64 -123 5 0 -2 13 -17 28 -27 28 -36 66 -18 76 16 11 20 46 4
46 -8 0 -12 -4 -9 -9z"/>
<path d="M1782 5158 c-6 -6 -12 -19 -12 -27 0 -13 2 -13 16 1 9 9 15 21 13 27
-3 9 -8 8 -17 -1z"/>
<path d="M4135 5040 c-22 -25 -18 -71 10 -103 23 -25 29 -27 73 -21 52 7 73
18 90 50 12 22 -3 54 -38 81 -23 19 -116 14 -135 -7z"/>
<path d="M1998 5033 c6 -2 18 -2 25 0 6 3 1 5 -13 5 -14 0 -19 -2 -12 -5z"/>
<path d="M4110 4900 c-8 -5 -10 -10 -5 -10 6 0 17 5 25 10 8 5 11 10 5 10 -5
0 -17 -5 -25 -10z"/>
<path d="M1880 4926 c14 -7 36 -16 50 -20 14 -3 7 3 -15 13 -45 22 -73 27 -35
7z"/>
<path d="M2045 4586 c32 -15 116 -36 137 -35 14 0 -140 49 -157 49 -5 0 4 -7
20 -14z"/>
<path d="M2208 4543 c6 -2 18 -2 25 0 6 3 1 5 -13 5 -14 0 -19 -2 -12 -5z"/>
<path d="M2268 4533 c7 -3 16 -2 19 1 4 3 -2 6 -13 5 -11 0 -14 -3 -6 -6z"/>
<path d="M2318 4523 c6 -2 18 -2 25 0 6 3 1 5 -13 5 -14 0 -19 -2 -12 -5z"/>
<path d="M2373 4513 c9 -2 23 -2 30 0 6 3 -1 5 -18 5 -16 0 -22 -2 -12 -5z"/>
<path d="M2428 4503 c6 -2 18 -2 25 0 6 3 1 5 -13 5 -14 0 -19 -2 -12 -5z"/>
<path d="M2493 4493 c9 -2 23 -2 30 0 6 3 -1 5 -18 5 -16 0 -22 -2 -12 -5z"/>
<path d="M2568 4483 c6 -2 18 -2 25 0 6 3 1 5 -13 5 -14 0 -19 -2 -12 -5z"/>
<path d="M2648 4473 c7 -3 16 -2 19 1 4 3 -2 6 -13 5 -11 0 -14 -3 -6 -6z"/>
<path d="M2748 4463 c7 -3 16 -2 19 1 4 3 -2 6 -13 5 -11 0 -14 -3 -6 -6z"/>
<path d="M2838 4453 c6 -2 18 -2 25 0 6 3 1 5 -13 5 -14 0 -19 -2 -12 -5z"/>
<path d="M2958 4443 c12 -2 30 -2 40 0 9 3 -1 5 -23 4 -22 0 -30 -2 -17 -4z"/>
<path d="M3663 3891 c10 -4 18 -11 17 -16 -1 -5 4 -11 12 -13 9 -2 8 0 -2 7
-11 8 -12 11 -2 11 7 0 10 5 7 10 -3 6 -16 10 -28 9 -19 0 -20 -1 -4 -8z"/>
<path d="M3498 3883 c12 -2 30 -2 40 0 9 3 -1 5 -23 4 -22 0 -30 -2 -17 -4z"/>
<path d="M3448 3873 c7 -3 16 -2 19 1 4 3 -2 6 -13 5 -11 0 -14 -3 -6 -6z"/>
<path d="M3698 3763 c12 -2 32 -2 45 0 12 2 2 4 -23 4 -25 0 -35 -2 -22 -4z"/>
<path d="M3011 3478 c-1 -27 3 -48 7 -48 4 0 6 17 4 38 -5 58 -10 62 -11 10z"/>
<path d="M3740 3240 c0 -29 -4 -40 -15 -40 -11 0 -15 -11 -15 -40 0 -29 4 -40
15 -40 11 0 15 11 15 40 0 22 5 40 10 40 6 0 10 18 10 40 0 22 -4 40 -10 40
-5 0 -10 -18 -10 -40z"/>
<path d="M3082 3198 c2 -5 8 -9 13 -9 5 0 11 4 13 9 1 5 -4 9 -13 9 -9 0 -14
-4 -13 -9z"/>
<path d="M3845 3013 l7 -53 -71 0 -71 0 0 -30 c0 -20 -5 -30 -15 -30 -8 0 -15
-4 -15 -10 0 -5 7 -10 16 -10 8 0 12 -5 9 -10 -3 -6 -18 -8 -33 -5 -22 4 -23
4 -7 -4 11 -4 36 -7 55 -5 34 3 34 3 5 -5 -16 -4 -42 -6 -57 -3 -17 3 -28 0
-28 -7 0 -6 12 -11 28 -10 45 0 212 33 212 42 0 4 0 16 0 27 0 11 -4 20 -10
20 -5 0 -10 -10 -10 -23 0 -19 -6 -23 -37 -25 -20 -2 -43 -8 -50 -14 -9 -7
-13 -7 -13 0 0 6 -8 12 -17 14 -10 2 6 5 35 5 64 2 75 9 68 38 -4 15 -1 25 8
28 11 4 12 16 4 59 -13 70 -22 78 -13 11z"/>
<path d="M3115 3030 c4 -6 11 -8 16 -5 14 9 11 15 -7 15 -8 0 -12 -5 -9 -10z"/>
<path d="M3106 2962 c-2 -4 -1 -14 4 -22 7 -11 9 -9 7 8 -1 24 -3 26 -11 14z"/>
<path d="M3096 2907 c3 -10 9 -15 12 -12 3 3 0 11 -7 18 -10 9 -11 8 -5 -6z"/>
<path d="M3062 2894 c-7 -8 -8 -14 -3 -14 10 0 25 19 20 25 -2 1 -10 -3 -17
-11z"/>
<path d="M3021 2863 c-10 -12 -8 -13 16 -7 36 9 38 10 16 16 -10 3 -24 -1 -32
-9z"/>
<path d="M3448 2863 c6 -2 18 -2 25 0 6 3 1 5 -13 5 -14 0 -19 -2 -12 -5z"/>
<path d="M3098 2843 c7 -3 16 -2 19 1 4 3 -2 6 -13 5 -11 0 -14 -3 -6 -6z"/>
<path d="M3475 2820 c-15 -6 -9 -8 22 -7 24 1 37 5 30 9 -15 9 -26 9 -52 -2z"/>
<path d="M3583 2823 c9 -2 23 -2 30 0 6 3 -1 5 -18 5 -16 0 -22 -2 -12 -5z"/>
<path d="M3093 2809 c-12 -5 -3 -8 25 -8 23 -1 42 3 42 9 0 11 -38 10 -67 -1z"/>
<path d="M7945 4490 c3 -5 11 -10 16 -10 6 0 7 5 4 10 -3 6 -11 10 -16 10 -6
0 -7 -4 -4 -10z"/>
<path d="M7965 4459 c-4 -6 -5 -12 -2 -15 2 -3 7 2 10 11 7 17 1 20 -8 4z"/>
<path d="M9120 3864 c0 -10 -7 -27 -14 -36 -11 -14 -10 -28 1 -75 7 -32 16
-97 19 -146 6 -87 15 -101 35 -50 10 27 3 67 -10 58 -5 -2 -7 -17 -5 -32 2
-18 0 -15 -7 10 -12 40 -4 123 12 132 5 4 9 32 9 64 0 45 -4 62 -20 76 -19 17
-20 17 -20 -1z m20 -40 c0 -8 -4 -12 -10 -9 -5 3 -10 10 -10 16 0 5 5 9 10 9
6 0 10 -7 10 -16z"/>
<path d="M9080 3834 c0 -8 5 -12 10 -9 6 4 8 11 5 16 -9 14 -15 11 -15 -7z"/>
<path d="M9171 3625 c-1 -27 14 -51 23 -36 4 6 12 9 17 6 5 -4 9 3 9 13 0 25
-30 38 -31 14 0 -14 -2 -14 -9 3 l-9 20 0 -20z"/>
<path d="M9000 3410 c-9 -6 -10 -10 -3 -10 6 0 15 5 18 10 8 12 4 12 -15 0z"/>
<path d="M1535 3430 c3 -5 16 -15 28 -20 20 -10 20 -10 5 3 -10 8 -15 17 -11
20 3 4 -1 7 -11 7 -9 0 -14 -4 -11 -10z"/>
<path d="M1838 3333 c7 -3 16 -2 19 1 4 3 -2 6 -13 5 -11 0 -14 -3 -6 -6z"/>
<path d="M2234 2886 c23 -18 36 -20 36 -6 0 6 -4 10 -9 10 -5 0 -18 3 -28 6
-16 5 -16 4 1 -10z"/>
<path d="M1870 2412 c0 -4 9 -13 20 -20 19 -12 20 -11 8 8 -13 20 -28 27 -28
12z"/>
<path d="M5395 1440 c-3 -5 -1 -10 4 -10 6 0 11 5 11 10 0 6 -2 10 -4 10 -3 0
-8 -4 -11 -10z"/>
<path d="M5816 1154 c-4 -9 -4 -19 -1 -22 2 -3 7 3 11 12 4 9 4 19 1 22 -2 3
-7 -3 -11 -12z"/>
<path d="M1137 1763 c-10 -9 -9 -23 2 -23 5 0 11 7 15 15 5 15 -5 20 -17 8z"/>
<path d="M8000 1431 c0 -7 -5 -9 -12 -5 -7 4 -10 4 -6 -1 4 -4 3 -15 -4 -24
-7 -9 -1 -6 12 6 13 12 21 26 17 29 -4 4 -7 2 -7 -5z"/>
<path d="M7920 1310 c0 -6 7 -10 15 -10 8 0 15 2 15 4 0 2 -7 6 -15 10 -8 3
-15 1 -15 -4z"/>
<path d="M815 1683 c-11 -3 -30 -15 -43 -26 -22 -20 -22 -22 -6 -34 10 -7 26
-13 36 -13 10 0 27 -5 37 -12 25 -15 95 18 99 48 4 30 -65 51 -123 37z"/>
<path d="M902 1581 c-41 -16 -42 -18 -24 -34 31 -28 113 -15 126 20 14 37 -31
43 -102 14z"/>
<path d="M895 1478 c-16 -5 -40 -14 -52 -20 -11 -6 -26 -8 -31 -4 -5 3 -15 0
-21 -8 -9 -10 -2 -19 31 -42 51 -35 122 -39 180 -11 45 21 50 28 35 48 -35 45
-81 58 -142 37z"/>
<path d="M1308 1463 c-10 -2 -18 -9 -18 -15 0 -5 7 -7 16 -4 9 3 27 6 40 6 13
0 24 5 24 10 0 10 -30 12 -62 3z"/>
<path d="M1603 1435 c-29 -12 -33 -18 -29 -47 4 -43 39 -55 111 -39 77 17 82
51 14 87 -34 17 -55 17 -96 -1z"/>
<path d="M1225 1405 c-19 -14 -18 -14 13 -15 22 0 32 4 30 12 -6 18 -22 20
-43 3z"/>
<path d="M1760 1388 c0 -5 16 -8 35 -8 19 0 35 4 35 8 0 5 -16 8 -35 8 -19 -1
-35 -4 -35 -8z"/>
<path d="M1500 1365 c0 -8 -7 -15 -15 -15 -8 0 -15 -5 -15 -11 0 -5 -4 -8 -9
-5 -5 4 -22 1 -38 -5 l-28 -11 24 -19 c23 -19 74 -25 105 -13 21 8 21 58 0 78
-19 20 -24 20 -24 1z"/>
<path d="M1022 1335 c-48 -21 -41 -55 14 -74 38 -13 45 -13 68 2 35 23 35 64
0 77 -33 13 -42 12 -82 -5z"/>
<path d="M1203 1280 c-28 -17 -33 -26 -33 -58 0 -31 5 -41 29 -55 37 -22 81
-22 126 0 37 18 43 35 23 78 -8 18 -18 25 -30 22 -10 -3 -16 -1 -13 3 7 11
-27 30 -52 30 -10 0 -33 -9 -50 -20z m58 -9 c-8 -5 -20 -7 -28 -4 -9 4 -11 0
-7 -13 5 -16 4 -16 -5 -4 -17 24 -13 30 22 30 22 0 28 -3 18 -9z"/>
<path d="M1650 1290 c-9 -6 -10 -10 -3 -10 6 0 15 5 18 10 8 12 4 12 -15 0z"/>
<path d="M1794 1286 c-61 -27 -83 -91 -42 -120 28 -20 59 -20 104 -1 29 12 35
19 31 35 -3 11 -1 23 4 26 15 9 10 24 -17 49 -31 28 -37 29 -80 11z"/>
<path d="M600 1215 c-9 -10 -9 -15 -1 -15 6 0 11 5 11 11 0 6 13 1 29 -10 16
-12 35 -21 43 -21 7 0 4 6 -7 12 -11 7 -26 18 -33 25 -17 17 -27 16 -42 -2z"/>
<path d="M1528 1133 c7 -3 16 -2 19 1 4 3 -2 6 -13 5 -11 0 -14 -3 -6 -6z"/>
<path d="M1425 1120 c-16 -7 -17 -9 -3 -9 9 -1 20 4 23 9 7 11 7 11 -20 0z"/>
<path d="M1490 1100 c0 -5 5 -10 10 -10 6 0 10 5 10 10 0 6 -4 10 -10 10 -5 0
-10 -4 -10 -10z"/>
<path d="M3387 1133 c-14 -13 -7 -23 16 -22 12 0 16 3 9 6 -6 2 -10 9 -6 14 6
10 -9 12 -19 2z"/>
<path d="M3635 1126 c-32 -7 -44 -14 -34 -18 20 -8 109 11 109 23 0 11 -11 10
-75 -5z"/>
<path d="M3093 1123 c9 -2 25 -2 35 0 9 3 1 5 -18 5 -19 0 -27 -2 -17 -5z"/>
<path d="M3320 1110 c0 -5 9 -10 20 -10 11 0 20 5 20 10 0 6 -9 10 -20 10 -11
0 -20 -4 -20 -10z"/>
<path d="M3440 1108 c0 -5 27 -8 60 -8 33 0 60 3 60 8 0 4 -27 7 -60 7 -33 0
-60 -3 -60 -7z"/>
<path d="M2367 1289 c-9 -6 -15 -14 -12 -20 10 -15 22 -10 28 11 3 11 4 20 4
20 -1 0 -10 -5 -20 -11z"/>
<path d="M2670 1106 c0 -2 8 -10 18 -17 15 -13 16 -12 3 4 -13 16 -21 21 -21
13z"/>
<path d="M4830 1130 c0 -5 5 -10 11 -10 5 0 7 5 4 10 -3 6 -8 10 -11 10 -2 0
-4 -4 -4 -10z"/>
<path d="M4387 1114 c-4 -4 -7 -14 -7 -23 0 -11 3 -12 11 -4 6 6 10 16 7 23
-2 6 -7 8 -11 4z"/>
<path d="M4515 1040 c27 -12 43 -12 25 0 -8 5 -22 9 -30 9 -10 0 -8 -3 5 -9z"/>
<path d="M8885 990 c28 -12 37 -12 30 0 -3 6 -16 10 -28 9 -21 0 -21 -1 -2 -9z"/>
<path d="M8679 956 c-9 -19 -9 -19 4 -4 8 10 16 15 19 12 4 -3 8 -1 12 4 3 5
-2 9 -10 9 -8 0 -20 -10 -25 -21z"/>
<path d="M8716 864 c-4 -10 -4 -15 0 -12 4 4 16 1 27 -7 11 -8 31 -12 43 -9
12 3 25 1 28 -5 10 -16 36 -14 36 3 0 9 -17 15 -56 18 -31 3 -59 10 -64 17 -5
9 -9 8 -14 -5z"/>
<path d="M8848 803 c7 -3 16 -2 19 1 4 3 -2 6 -13 5 -11 0 -14 -3 -6 -6z"/>
<path d="M10231 4854 c0 -11 3 -14 6 -6 3 7 2 16 -1 19 -3 4 -6 -2 -5 -13z"/>
<path d="M7418 1023 c7 -3 16 -2 19 1 4 3 -2 6 -13 5 -11 0 -14 -3 -6 -6z"/>
</g>
</svg>
